<svg xmlns="http://www.w3.org/2000/svg" id="Layer_1" x="0" y="0" enable-background="new 0 0 530 530" version="1.1" viewBox="0 0 530 530" xml:space="preserve"><path fill="#4a5b6b" d="M521,455.9c0,0.9-0.4,1.6-0.9,2.2c-0.6,0.6-1.3,0.9-2.2,0.9H12.1c-1.7,0-3.1-1.4-3.1-3.1
					c0-0.9,0.4-1.6,0.9-2.2c0.6-0.6,1.3-0.9,2.2-0.9h505.8C519.6,452.8,521,454.2,521,455.9z"/><path fill="#5b6f8b" fill-rule="evenodd" d="M447.9,93.7v336.3c0,12.5-10.3,22.8-22.8,22.8H254.1c-12.5,0-22.8-10.3-22.8-22.8V93.7
								c0-12.5,10.3-22.8,22.8-22.8h171.1C437.7,70.9,447.9,81.2,447.9,93.7z" clip-rule="evenodd"/><path fill="#fff" fill-rule="evenodd" d="M439.3,93.7v336.3c0,7.8-6.4,14.2-14.2,14.2H254.1c-7.8,0-14.2-6.4-14.2-14.2V93.7
								c0-7.8,6.4-14.2,14.2-14.2h35.5c2.7,0,5.1,1.8,5.9,4.3v2.4c0,3.4,2.8,6.2,6.2,6.2h75.8c3.4,0,6.2-2.8,6.2-6.2v-2.4
								c0.8-2.5,3.2-4.3,5.9-4.3h35.5C432.9,79.5,439.3,85.9,439.3,93.7z" clip-rule="evenodd"/><path fill="#fff" fill-rule="evenodd" d="M356.8,84c1.3,0,2.4-1.1,2.4-2.4c0-1.3-1.1-2.4-2.4-2.4h-44.4c-1.3,0-2.4,1.1-2.4,2.4
								c0,1.3,1.1,2.4,2.4,2.4H356.8L356.8,84z M364.8,79.2c-1.3,0-2.4,1.1-2.4,2.4c0,1.3,1.1,2.4,2.4,2.4h2c1.3,0,2.4-1.1,2.4-2.4
								c0-1.3-1.1-2.4-2.4-2.4H364.8z" clip-rule="evenodd"/><path fill="#dde3ea" d="M401.9,111.2c9,0,16.3,7.3,16.3,16.3v65.6c0,9.1,7.4,16.5,16.5,16.5H244.2c-6.8,0-12.3-5.5-12.3-12.3
									v-86.1H401.9z"/><path fill="#f0f4f9" d="M402,111.2c-9.1,0-16.5,7.4-16.5,16.5v280.9c0,6.8-5.5,12.3-12.3,12.3h-176c-6.8,0-12.3-5.5-12.3-12.3
									V123.5c0-6.8,5.5-12.3,12.3-12.3H402z"/><path fill="#fa5814" d="M309.3,137.3c-1.1-5.6-6.7-10-12.5-9.8c-5.7,0.2-10.9,5-11.6,10.6c-0.8-5.6-6.1-10.3-11.8-10.4
								c-5.8-0.1-11.3,4.3-12.3,10c-0.8,4.1,0.7,8.4,3,11.9c2.3,3.5,5.5,6.3,8.6,9.1c4.4,3.9,8.5,7.5,12.9,11.4
								c4.3-4,8-7.7,12.4-11.6c3.1-2.8,6.2-5.7,8.5-9.2C308.8,145.8,310.1,141.4,309.3,137.3z"/><path fill="#fff" d="M353.9,184.4v24c0,2.1-1.7,3.7-3.7,3.7H220.3c-2,0-3.7-1.7-3.7-3.7v-24c0-2.1,1.7-3.7,3.7-3.7h129.9
							C352.3,180.7,353.9,182.3,353.9,184.4z"/><path fill="#3d84f2" d="M241.1,203.1c-0.1-0.1-0.2-0.3-0.2-0.5l-2.1-12.5c0,0,0-0.1,0-0.1c0-0.1,0-0.2,0.1-0.3
								c0.1-0.1,0.2-0.1,0.3-0.1h2.6c0.4,0,0.6,0.2,0.6,0.5l1.2,7.4l1.4-4.3c0.1-0.4,0.3-0.5,0.6-0.5h1.5c0.3,0,0.5,0.2,0.6,0.5
								l1.4,4.3l1.2-7.4c0-0.2,0.1-0.3,0.2-0.3c0.1-0.1,0.2-0.1,0.4-0.1h2.6c0.1,0,0.2,0,0.3,0.1c0.1,0.1,0.1,0.2,0.1,0.3v0.1
								l-2.1,12.5c0,0.2-0.1,0.3-0.3,0.5c-0.1,0.1-0.3,0.2-0.5,0.2h-2c-0.2,0-0.4-0.1-0.5-0.2c-0.1-0.1-0.2-0.2-0.2-0.4l-1.9-5.4
								l-1.9,5.4c-0.1,0.1-0.1,0.2-0.3,0.4c-0.1,0.1-0.3,0.2-0.5,0.2h-2C241.5,203.2,241.3,203.2,241.1,203.1z"/><path fill="#3d84f2" d="M255.9,203.1c-0.1-0.1-0.1-0.2-0.1-0.3V190c0-0.1,0-0.3,0.1-0.4c0.1-0.1,0.2-0.1,0.3-0.1h2.8
								c0.1,0,0.3,0,0.4,0.1c0.1,0.1,0.1,0.2,0.1,0.4v12.7c0,0.1,0,0.2-0.1,0.3c-0.1,0.1-0.2,0.1-0.4,0.1h-2.8
								C256.2,203.2,256,203.2,255.9,203.1z"/><path fill="#3d84f2" d="M264.2,202.9c-0.9-0.4-1.6-0.8-2-1.4c-0.5-0.6-0.7-1.3-0.7-2c0-0.1,0-0.2,0.1-0.3
								c0.1-0.1,0.2-0.1,0.3-0.1h2.6c0.2,0,0.3,0,0.4,0.1c0.1,0.1,0.2,0.1,0.3,0.3c0.2,0.3,0.4,0.6,0.8,0.8c0.4,0.2,0.8,0.3,1.4,0.3
								c0.7,0,1.2-0.1,1.6-0.3c0.4-0.2,0.6-0.5,0.6-0.9c0-0.3-0.1-0.5-0.3-0.7c-0.2-0.2-0.5-0.3-0.9-0.5c-0.4-0.1-1.1-0.3-1.9-0.5
								c-1.6-0.3-2.8-0.8-3.5-1.4c-0.8-0.6-1.2-1.6-1.2-2.7c0-0.8,0.2-1.5,0.7-2.2c0.4-0.6,1.1-1.1,1.9-1.5c0.8-0.4,1.8-0.5,2.9-0.5
								c1.1,0,2.1,0.2,3,0.6c0.8,0.4,1.5,0.9,1.9,1.5c0.4,0.6,0.7,1.2,0.7,1.8c0,0.1,0,0.2-0.1,0.3c-0.1,0.1-0.2,0.1-0.3,0.1h-2.7
								c-0.3,0-0.5-0.1-0.7-0.4c-0.1-0.3-0.3-0.5-0.6-0.7c-0.3-0.2-0.7-0.3-1.2-0.3c-0.5,0-1,0.1-1.3,0.3s-0.4,0.5-0.4,0.9
								c0,0.4,0.2,0.7,0.6,0.9c0.4,0.2,1.1,0.4,2.2,0.7c1.2,0.2,2.2,0.5,2.9,0.8c0.7,0.3,1.3,0.8,1.6,1.3c0.3,0.5,0.5,1.2,0.5,2
								c0,0.9-0.3,1.7-0.8,2.3c-0.5,0.7-1.2,1.2-2.1,1.5c-0.9,0.3-1.9,0.5-3.1,0.5C266.2,203.4,265.1,203.2,264.2,202.9z"/><path fill="#3d84f2" d="M275.4,203.1c-0.1-0.1-0.1-0.2-0.1-0.4V190c0-0.1,0-0.3,0.1-0.4c0.1-0.1,0.2-0.1,0.4-0.1h2.7
								c0.1,0,0.3,0,0.4,0.1c0.1,0.1,0.1,0.2,0.1,0.4v4.6h4.6V190c0-0.1,0-0.3,0.1-0.4c0.1-0.1,0.2-0.1,0.4-0.1h2.7
								c0.1,0,0.3,0,0.4,0.1c0.1,0.1,0.1,0.2,0.1,0.4v12.7c0,0.1,0,0.3-0.1,0.4c-0.1,0.1-0.2,0.1-0.4,0.1h-2.7c-0.1,0-0.3,0-0.4-0.1
								s-0.1-0.2-0.1-0.4V198H279v4.8c0,0.1,0,0.3-0.1,0.4c-0.1,0.1-0.2,0.1-0.4,0.1h-2.7C275.6,203.2,275.5,203.2,275.4,203.1z"/><path fill="#3d84f2" d="M290.1,203.1c-0.1-0.1-0.1-0.2-0.1-0.3V190c0-0.1,0-0.3,0.1-0.4s0.2-0.1,0.3-0.1h2.7
								c0.1,0,0.3,0,0.4,0.1c0.1,0.1,0.1,0.2,0.1,0.4v10.1h5.9c0.1,0,0.3,0,0.4,0.1c0.1,0.1,0.1,0.2,0.1,0.4v2.1
								c0,0.1,0,0.3-0.1,0.4c-0.1,0.1-0.2,0.1-0.4,0.1h-9.1C290.3,203.2,290.2,203.2,290.1,203.1z"/><path fill="#3d84f2" d="M301.8,203.1c-0.1-0.1-0.1-0.2-0.1-0.3V190c0-0.1,0-0.3,0.1-0.4s0.2-0.1,0.3-0.1h2.8
								c0.1,0,0.3,0,0.4,0.1c0.1,0.1,0.1,0.2,0.1,0.4v12.7c0,0.1,0,0.2-0.1,0.3c-0.1,0.1-0.2,0.1-0.4,0.1h-2.8
								C302,203.2,301.9,203.2,301.8,203.1z"/><path fill="#3d84f2" d="M310.1,202.9c-0.9-0.4-1.6-0.8-2-1.4c-0.5-0.6-0.7-1.3-0.7-2c0-0.1,0-0.2,0.1-0.3
								c0.1-0.1,0.2-0.1,0.3-0.1h2.6c0.2,0,0.3,0,0.4,0.1c0.1,0.1,0.2,0.1,0.3,0.3c0.2,0.3,0.4,0.6,0.8,0.8c0.4,0.2,0.8,0.3,1.4,0.3
								c0.7,0,1.2-0.1,1.6-0.3c0.4-0.2,0.6-0.5,0.6-0.9c0-0.3-0.1-0.5-0.3-0.7c-0.2-0.2-0.5-0.3-0.9-0.5c-0.4-0.1-1.1-0.3-1.9-0.5
								c-1.6-0.3-2.8-0.8-3.5-1.4c-0.8-0.6-1.2-1.6-1.2-2.7c0-0.8,0.2-1.5,0.7-2.2c0.4-0.6,1.1-1.1,1.9-1.5c0.8-0.4,1.8-0.5,2.9-0.5
								c1.1,0,2.1,0.2,3,0.6c0.8,0.4,1.5,0.9,1.9,1.5c0.4,0.6,0.7,1.2,0.7,1.8c0,0.1,0,0.2-0.1,0.3c-0.1,0.1-0.2,0.1-0.3,0.1h-2.7
								c-0.3,0-0.5-0.1-0.7-0.4c-0.1-0.3-0.3-0.5-0.6-0.7c-0.3-0.2-0.7-0.3-1.2-0.3c-0.5,0-1,0.1-1.3,0.3s-0.4,0.5-0.4,0.9
								c0,0.4,0.2,0.7,0.6,0.9c0.4,0.2,1.1,0.4,2.2,0.7c1.2,0.2,2.2,0.5,2.9,0.8c0.7,0.3,1.3,0.8,1.6,1.3c0.3,0.5,0.5,1.2,0.5,2
								c0,0.9-0.3,1.7-0.8,2.3c-0.5,0.7-1.2,1.2-2.1,1.5c-0.9,0.3-1.9,0.5-3.1,0.5C312,203.4,311,203.2,310.1,202.9z"/><path fill="#3d84f2" d="M324.2,203.1c-0.1-0.1-0.1-0.2-0.1-0.4v-10h-3.4c-0.1,0-0.3,0-0.4-0.1c-0.1-0.1-0.1-0.2-0.1-0.4V190
								c0-0.1,0-0.3,0.1-0.4c0.1-0.1,0.2-0.1,0.4-0.1h10.6c0.1,0,0.3,0,0.4,0.1c0.1,0.1,0.1,0.2,0.1,0.4v2.2c0,0.1,0,0.3-0.1,0.4
								c-0.1,0.1-0.2,0.1-0.4,0.1h-3.4v10c0,0.1,0,0.3-0.1,0.4c-0.1,0.1-0.2,0.1-0.4,0.1h-2.7C324.4,203.2,324.3,203.2,324.2,203.1z
								"/><g><path fill="#48dbc5" d="M234,229.6V257c0,1.8-1.4,3.2-3.2,3.2h-27.4c-1.8,0-3.2-1.4-3.2-3.2v-27.4c0-1.8,1.4-3.2,3.2-3.2h27.4
									C232.5,226.4,234,227.9,234,229.6z"/><path fill="#fff" d="M225.7,240l-12.1,9.3c-0.3,0.2-0.7,0.3-1,0.3c-0.5,0-1-0.2-1.4-0.7l-3-3.9c-0.6-0.7-0.4-1.8,0.3-2.4
										c0.7-0.6,1.8-0.4,2.4,0.3l2,2.6l10.8-8.2c0.8-0.6,1.8-0.4,2.4,0.3C226.6,238.4,226.4,239.5,225.7,240z"/><g><path fill="#dde3ea" d="M370.3,235.9c0,0.6-0.2,1.1-0.6,1.5c-0.4,0.4-0.9,0.6-1.5,0.6H248.4c-1.2,0-2.1-0.9-2.1-2.1
										c0-0.6,0.2-1.1,0.6-1.5c0.4-0.4,0.9-0.6,1.5-0.6h119.9C369.4,233.8,370.3,234.7,370.3,235.9z"/><path fill="#dde3ea" d="M320.1,250.8c0,0.6-0.2,1.1-0.6,1.5c-0.4,0.4-0.9,0.6-1.5,0.6h-69.7c-1.2,0-2.1-0.9-2.1-2.1
										c0-0.6,0.2-1.1,0.6-1.5c0.4-0.4,0.9-0.6,1.5-0.6H318C319.2,248.7,320.1,249.6,320.1,250.8z"/></g></g><g><path fill="#48dbc5" d="M234,274.1v27.4c0,1.8-1.4,3.2-3.2,3.2h-27.4c-1.8,0-3.2-1.4-3.2-3.2v-27.4c0-1.8,1.4-3.2,3.2-3.2
									h27.4C232.5,270.9,234,272.4,234,274.1z"/><path fill="#fff" d="M225.7,284.5l-12.1,9.3c-0.3,0.2-0.7,0.3-1,0.3c-0.5,0-1-0.2-1.4-0.7l-3-3.9c-0.6-0.7-0.4-1.8,0.3-2.4
										c0.7-0.6,1.8-0.4,2.4,0.3l2,2.6l10.8-8.2c0.8-0.6,1.8-0.4,2.4,0.3C226.6,282.9,226.4,284,225.7,284.5z"/><g><path fill="#dde3ea" d="M370.3,280.4c0,0.6-0.2,1.1-0.6,1.5c-0.4,0.4-0.9,0.6-1.5,0.6H248.4c-1.2,0-2.1-0.9-2.1-2.1
										c0-0.6,0.2-1.1,0.6-1.5c0.4-0.4,0.9-0.6,1.5-0.6h119.9C369.4,278.3,370.3,279.2,370.3,280.4z"/><path fill="#dde3ea" d="M320.1,295.3c0,0.6-0.2,1.1-0.6,1.5c-0.4,0.4-0.9,0.6-1.5,0.6h-69.7c-1.2,0-2.1-0.9-2.1-2.1
										c0-0.6,0.2-1.1,0.6-1.5c0.4-0.4,0.9-0.6,1.5-0.6H318C319.2,293.2,320.1,294.1,320.1,295.3z"/></g></g><g><path fill="#48dbc5" d="M234,318.6V346c0,1.8-1.4,3.2-3.2,3.2h-27.4c-1.8,0-3.2-1.4-3.2-3.2v-27.4c0-1.8,1.4-3.2,3.2-3.2h27.4
									C232.5,315.4,234,316.9,234,318.6z"/><path fill="#fff" d="M225.7,329l-12.1,9.3c-0.3,0.2-0.7,0.3-1,0.3c-0.5,0-1-0.2-1.4-0.7l-3-3.9c-0.6-0.7-0.4-1.8,0.3-2.4
										c0.7-0.6,1.8-0.4,2.4,0.3l2,2.6l10.8-8.2c0.8-0.6,1.8-0.4,2.4,0.3C226.6,327.4,226.4,328.5,225.7,329z"/><g><path fill="#dde3ea" d="M370.3,324.9c0,0.6-0.2,1.1-0.6,1.5c-0.4,0.4-0.9,0.6-1.5,0.6H248.4c-1.2,0-2.1-0.9-2.1-2.1
										c0-0.6,0.2-1.1,0.6-1.5c0.4-0.4,0.9-0.6,1.5-0.6h119.9C369.4,322.8,370.3,323.7,370.3,324.9z"/><path fill="#dde3ea" d="M320.1,339.8c0,0.6-0.2,1.1-0.6,1.5c-0.4,0.4-0.9,0.6-1.5,0.6h-69.7c-1.2,0-2.1-0.9-2.1-2.1
										c0-0.6,0.2-1.1,0.6-1.5c0.4-0.4,0.9-0.6,1.5-0.6H318C319.2,337.7,320.1,338.6,320.1,339.8z"/></g></g><g><path fill="#48dbc5" d="M234,363.1v27.4c0,1.8-1.4,3.2-3.2,3.2h-27.4c-1.8,0-3.2-1.4-3.2-3.2v-27.4c0-1.8,1.4-3.2,3.2-3.2
									h27.4C232.5,359.9,234,361.4,234,363.1z"/><path fill="#fff" d="M225.7,373.5l-12.1,9.3c-0.3,0.2-0.7,0.3-1,0.3c-0.5,0-1-0.2-1.4-0.7l-3-3.9c-0.6-0.7-0.4-1.8,0.3-2.4
										c0.7-0.6,1.8-0.4,2.4,0.3l2,2.6l10.8-8.2c0.8-0.6,1.8-0.4,2.4,0.3C226.6,371.9,226.4,373,225.7,373.5z"/><g><path fill="#dde3ea" d="M370.3,369.4c0,0.6-0.2,1.1-0.6,1.5c-0.4,0.4-0.9,0.6-1.5,0.6H248.4c-1.2,0-2.1-0.9-2.1-2.1
										c0-0.6,0.2-1.1,0.6-1.5c0.4-0.4,0.9-0.6,1.5-0.6h119.9C369.4,367.3,370.3,368.2,370.3,369.4z"/><path fill="#dde3ea" d="M320.1,384.3c0,0.6-0.2,1.1-0.6,1.5c-0.4,0.4-0.9,0.6-1.5,0.6h-69.7c-1.2,0-2.1-0.9-2.1-2.1
										c0-0.6,0.2-1.1,0.6-1.5c0.4-0.4,0.9-0.6,1.5-0.6H318C319.2,382.2,320.1,383.1,320.1,384.3z"/></g></g><g><path fill="#ba93df" d="M521,371.6v26.7c0,0.6-0.5,1.2-1.2,1.2H414.8c-0.6,0-1.2-0.5-1.2-1.2v-26.7c0-0.6,0.5-1.2,1.2-1.2h105.1
							C520.5,370.4,521,371,521,371.6z"/><path fill="#ba93df" d="M513,399.5V450c0,1.6-1.3,2.9-2.9,2.9h-85.7c-1.6,0-2.9-1.3-2.9-2.9v-50.5H513z"/><rect width="25.8" height="53.4" x="454.4" y="399.5" fill="#fa5814"/><rect width="25.8" height="29" x="454.4" y="370.4" fill="#fa5814"/><path fill="#fa5814" d="M467.6,370.4h-5.8c-5.4-10.5-12.8-14.1-18.7-15.2c-5.3-1-9.2,0-9.2,0c0.3-1.5,1-2.9,1.9-4.1
									c3.3-4.4,9.2-5.9,14.4-4.2C467.2,352.4,467.6,370.4,467.6,370.4z"/><path fill="#e44000" d="M452.2,370.4h-6.9c-12-5.7-11.3-15.2-11.3-15.2s4-1,9.2,0C444.1,364.7,452.2,370.4,452.2,370.4z"/><path fill="#fa5814" d="M467,370.4h5.8c5.4-10.5,12.8-14.1,18.7-15.2c5.3-1,9.2,0,9.2,0c-0.3-1.5-1-2.9-1.9-4.1
									c-3.3-4.4-9.2-5.9-14.4-4.2C467.4,352.4,467,370.4,467,370.4z"/><path fill="#e44000" d="M482.4,370.4h6.9c12-5.7,11.3-15.2,11.3-15.2s-4-1-9.2,0C490.5,364.7,482.4,370.4,482.4,370.4z"/><g opacity=".15"><rect width="25.8" height="5.8" x="454.4" y="399.5" fill="#131514"/></g><g opacity=".15"><rect width="32.8" height="5.8" x="480.2" y="399.5" fill="#131514"/></g><g opacity=".15"><rect width="32.8" height="5.8" x="421.6" y="399.5" fill="#131514"/></g></g><g><path fill="#464ae4" d="M85.8,450.3c-0.1,0.8-0.2,1.5-0.3,1.9c-0.1,0.3-0.4,0.5-0.7,0.5H51.5c-0.5,0-0.8-0.4-0.7-0.9
											l1.3-5.4l4.1-17.4l13.2,1.4c0,0-1,7.8,9.4,10.8C85.2,443.1,86,447.5,85.8,450.3z"/><path fill="#2624bd" d="M73.2,438.6c-4.4-3.5-3.8-8.1-3.8-8.1l-13.2-1.4l-2.2,9.5H73.2z"/><path fill="#464ae4" d="M141.5,450.3c-0.1,0.8-0.2,1.5-0.3,1.9c-0.1,0.3-0.4,0.5-0.7,0.5h-33.3c-0.5,0-0.8-0.4-0.7-0.9
											l1.3-5.4l4.1-17.4l13.2,1.4c0,0-1,7.8,9.4,10.8C140.9,443.1,141.7,447.5,141.5,450.3z"/><path fill="#2624bd" d="M129,438.6c-4.4-3.5-3.8-8.1-3.8-8.1l-13.2-1.4l-2.2,9.5H129z"/><g><path fill="#292561" d="M142.2,432.6H95.7c-0.7-3.6-0.5-8.8,0.2-14.5c0.1-0.5,0.1-1,0.2-1.5c0.8-6.1,2.2-12.6,3.7-18.6
											c0-0.1,0.1-0.2,0.1-0.3c0.1-0.5,0.2-1,0.4-1.5c0.5-2.3,0.8-4.7,1.1-7.4c0.3-3.6,0.4-7.6,0.3-11.8c0-0.5,0-1-0.1-1.5
											c-0.2-5.5-0.7-11.3-1.4-17.3v0c-0.1-0.8-0.2-1.6-0.3-2.4c-0.1-0.5-0.1-1.1-0.2-1.6c-0.9-6.6-2-13.3-3.2-19.9
											c-0.1-0.5-0.2-1.1-0.3-1.6c-1.3-7-2.8-13.7-4.2-20c-0.1-0.5-0.2-1.1-0.4-1.6c-1.8-7.7-3.5-14.6-4.9-20
											c-0.1-0.5-0.3-1.1-0.4-1.6c-1.7-6.4-2.8-10.3-2.8-10.3l23.2-1.3l18.9-1c0,0,1.2,7,2.9,18.1c0.1,0.5,0.2,1,0.2,1.5
											c0.9,5.7,1.9,12.3,3,19.5c0.1,0.5,0.1,1,0.2,1.5c0.9,6.1,1.8,12.7,2.7,19.4c0.1,0.5,0.1,1,0.2,1.5
											c0.9,6.3,1.7,12.8,2.5,19.3c0.1,0.5,0.1,1,0.2,1.5c0.8,6.5,1.5,12.9,2.2,19.2c0.1,0.5,0.1,1,0.2,1.5
											c0.7,6.6,1.3,13.1,1.7,19.2c0,0.5,0.1,1,0.1,1.5c0.5,7,0.8,13.5,0.9,19.2c0,0.5,0,1,0,1.5
											C142.5,425.9,142.4,429.5,142.2,432.6z"/><path fill="#191937" d="M108.4,355c-0.6,6.5-0.3,13.2-1.3,19.6c-0.8,5.1-2.6,10.3-5.8,14.2c0.3-3.6,0.4-7.6,0.3-11.8
											c0-0.5,0-1-0.1-1.5c-0.2-5.5-0.7-11.3-1.4-17.3v0c2.7-13.3,3.7-26.4,4.1-39.9c0.2-6.2,0.4-12.5,0.6-18.7
											c0.1-4.7-0.6-14.8-1-19.5c5.8,7.8,10.4,22.7,10.8,32.4C115.4,326.9,109.7,340.7,108.4,355z"/><path fill="#292561" d="M107.6,313.7c0,0.5,0,1-0.1,1.5c-0.3,5.4-0.9,10.5-1.8,15c-0.3,1.2-0.5,2.5-0.8,4
													c-0.1,0.5-0.2,1-0.3,1.5c-1,5.1-2.3,11.6-3.7,18.8c-0.1,0.5-0.2,1-0.3,1.5c-0.1,0.7-0.3,1.5-0.4,2.3c0,0,0,0,0,0
													c-1,5.3-2.1,10.9-3.2,16.6c-0.1,0.5-0.2,1-0.3,1.5c-1.2,6.4-2.5,12.8-3.7,18.9c-0.1,0.5-0.2,1-0.3,1.5
													c-1.4,7-2.6,13.4-3.7,18.9c-0.1,0.5-0.2,1-0.3,1.5c-1.6,8.2-2.8,14-3.2,15.2c0,0.1-0.1,0.2-0.1,0.2H44.6
													c-0.8-2.2-1.5-4.6-2-7.1c-0.1-0.6-0.2-1.2-0.3-1.7c-0.9-5.9-0.7-12.6,1.4-20.1c0.2-0.8,0.4-1.6,0.7-2.4
													c1.6-5,4-10.3,7.4-15.9c1.1-1.8,2.2-4.6,3.5-8.3c0.2-0.6,0.4-1.1,0.6-1.7c1.8-5.6,3.7-12.8,5.6-20.7
													c0.1-0.5,0.3-1.1,0.4-1.6c1.5-6.4,3-13.2,4.4-20h0c0.1-0.5,0.2-1,0.3-1.6c1.4-6.7,2.6-13.4,3.8-19.7
													c0.1-0.5,0.2-1,0.3-1.5c0.3-1.5,0.5-3,0.8-4.5c1-5.7,1.8-10.8,2.5-15c0.1-0.5,0.2-1,0.2-1.5c1.1-6.4,1.7-10.3,1.7-10.3
													l29-18.6c0,0,1,7.4,1.9,18c0.4,4.4,0.7,9.3,0.9,14.5c0,0.5,0,1,0.1,1.6C107.9,300.7,107.9,307.3,107.6,313.7z"/><path fill="#ffd1c4" d="M189.1,215.5c0,0,13.1-19.8,19.7-7.5c6.6,12.3-15.3,15.3-15.3,15.3L189.1,215.5z"/><path fill="#fcc800" d="M120.1,234.5c0,0,11.3,10.8,22,16.7c3.9,2.1,7.7,3.7,10.9,3.8c12,0.5,45.3-29.9,45.3-29.9l-9.2-12.3
												l-35.8,21.3c-10.7-16.8-32.2-24-32.2-24l-0.4,8.5L120.1,234.5z"/><path fill="#e3b400" d="M120.1,234.5c0,0,11.3,10.8,22,16.7c-0.4-0.6-1-1.2-1.5-1.7c-3.4-3.6-5.9-8.2-7.1-13
												c-1-3.9-1.1-7.9-1.8-11.8c-0.6-3.2-3.4-13-8.4-8.9c-0.9,0.8-1.8,1.8-2.5,2.9L120.1,234.5z"/><path fill="#fcc800" d="M72.3,282c0,3.1,7.7,5,17.4,5.7c16.3,1.3,38-0.6,38-5.7c-1.2-19,6.7-56.9-1.2-68.2
												c-5.8-8.3-40.3-8.7-50.7,0.5c-3.3,2.9-3.8,8.5-3.4,15.7c0.4,6.4,1.5,14.1,2.2,22.2C76.3,272,72.3,282,72.3,282z"/><path fill="#e3b400" d="M72.3,282c0,3.1,7.7,5,17.4,5.7c-0.2-0.6-0.4-1.1-0.6-1.6c-1.9-4.6-4.5-8.9-6.6-13.4
												c-2.1-4.5-3.7-9.4-3.4-14.4c0.2-4.5,2-8.8,3.7-12.9c1.7-4.2,3.4-8.5,3.5-13c0.1-3.5-0.9-7-3.2-9.7
												c-1-1.2-2.2-2.8-3.9-2.2c-1.6,0.5-2.9,2.7-3.7,4c-1.1,1.8-2.2,3.6-3.2,5.4c0.4,6.4,1.5,14.1,2.2,22.2
												C76.3,272,72.3,282,72.3,282z"/><path fill="#ffd1c4" d="M108.8,209.4l0.7-6c0,0,6.6,1.5,10.1-0.6c3.6-2.2,6.6-26.8-0.8-29.5c-12.1-4.4-20.5,0-21.8,7.3
												c-1.2,7.4,0.7,18.3,0.7,18.3l-1.8,9.9C96.2,210.2,108.9,210.8,108.8,209.4z"/><path fill="#7c3a3a" d="M97.6,201.6c0,0,4.1,1.4,3.1-4.6s-4-10.1-1.1-11.4s3.6,3.1,3.6,3.1s1.4-2.2,0.7-5.8
												c0,0,29.7,1.5,26.8-13.1c-2.9-14.6-27.4-2.1-30.5-2.6C91.2,165.4,85,189.8,97.6,201.6z"/></g><g><path fill="#f1c0ba" d="M109.5,203.3c0,0-6.4-1.3-7.6-4c0,0,3.3,6.1,7.3,7L109.5,203.3z"/></g><g><path fill="#fcc800" d="M24.9,250.5c0,0,32.9,14.3,40.7,10.7c7.8-3.6,32.3-33.9,18.2-50.4l0-0.6c0,0-17.4,3.8-30.3,36L25.9,240
						L24.9,250.5z"/></g></g><g><path fill="#fa5814" d="M26.8,413.2l31.1-2.7l-16.2-190l-1.6-19.3c-0.3-3.3-3.2-5.7-6.5-5.4l-19.2,1.6c-3.3,0.3-5.7,3.2-5.4,6.5
							l1.8,21.5L26.8,413.2z"/><path fill="#ffd1c4" d="M26.8,413.2l12.3,26.7l5.7,12.3c0.5,0.9,1.5,0.9,1.8-0.1l3.2-11.9l8-29.6L26.8,413.2z"/><path fill="#d9e9fd" d="M10.8,225.3l30.8-2.1l0.1-2.7l-1.6-19.3c-0.3-3.3-3.2-5.7-6.5-5.4l-19.2,1.6c-3.3,0.3-5.7,3.2-5.4,6.5
						L10.8,225.3z"/><g><path fill="#191937" d="M39.2,439.8l5.7,12.3c0.5,0.9,1.5,0.9,1.8-0.1l3.2-11.9L39.2,439.8z"/></g></g></svg>