<svg xmlns="http://www.w3.org/2000/svg" data-name="Layer 1" viewBox="0 0 1440 1440"><ellipse cx="720" cy="1177.671" fill="#272a2c" opacity=".31" rx="658.528" ry="67.5"/><path fill="#eaeaea" d="M1000.4431,384.0255s-18.76-13.2184-43.4409,31.8594-34.3,71.2114-34.3,71.2114-6.4495,9.4073-12.8509,2.9439-14.897-24.5115-26.188-21.6411c-11.7106,2.9764-15.9184,15.8227-14.268,34.9312s3.73,61.1069,3.9037,64.9046c.1706,3.7291-2.122,9.1471-7.1887,5.4433s-33.8359-37.7169-49.1585-23.0994-1.9776,67.096-.6285,72.8606.1578,8.1746-2.6018,9.51-11.3515-11.0089-19.93-20.3475-20.1633-18.6634-28.2968-9.4887-11.8023,48.1446,23.4786,112.6655l18.3054,28.8266,34.287-.8859c73.261-6.3678,103.6736-31.01,106.8064-42.8636s-11.0479-16.3333-23.5749-18.3024-27.5642-2.2852-27.9805-5.3219.9293-5.3635,6.4761-7.4336,56.63-20.0307,60.3119-40.8844-40.5727-25.965-46.4626-28.1312-2.65-7.0764.5494-9c3.2584-1.9592,39.376-23.4929,56.1991-32.7042s25.1871-19.83,21.1784-31.2281c-3.8653-10.9906-23.5975-8.0657-32.5246-9.815s-4.6674-12.33-4.6674-12.33,16.4291-22.4846,40.2865-68.0038,1.8809-53.9165,1.8809-53.9165"/><path fill="#e0e0e0" d="M801.6383,750.5872c17.6531-33.3609,50.0244-92.1269,77.5543-142.725,27.521-50.581,52.3954-96.3989,70.2162-129.6667,8.8774-16.6148,16.0688-30.073,21.0633-39.42l5.7349-10.7149c.65-1.19,1.1538-2.1123,1.5152-2.7744.347-.622.5487-.9282.5487-.9282s-.1373.34-.4525.9785c-.3393.6737-.8123,1.6122-1.4219,2.823-1.2919,2.5111-3.1615,6.1458-5.559,10.8077-4.8376,9.381-11.9345,22.9043-20.767,39.5813-17.6529,33.3607-42.425,79.24-69.9459,129.82C852.5941,658.9669,820.1208,717.6726,802.3,750.94"/><path fill="#e0e0e0" d="M894.5312,494.1258a11.0989,11.0989,0,0,1,.7921,2.3408c.45,1.5226,1.0349,3.7428,1.7328,6.493,1.3843,5.5029,3.1027,13.1517,4.8467,21.6261,1.6889,8.3637,3.2162,15.9261,4.3845,21.7117.5425,2.6038,1.0007,4.8006,1.3691,6.5674a11.0693,11.0693,0,0,1,.4092,2.4351,11.0627,11.0627,0,0,1-.81-2.335c-.4451-1.5247-1.0316-3.7462-1.7-6.5046-1.33-5.518-2.9484-13.1864-4.6909-21.66-1.7484-8.3467-3.329-15.8956-4.5384-21.6708-.5565-2.6026-1.0258-4.7982-1.4034-6.5642A11.0285,11.0285,0,0,1,894.5312,494.1258Z"/><path fill="#e0e0e0" d="M911.1822,555.9994c-.0719-.2841,15.5411-4.5212,34.8694-9.463,19.335-4.9438,35.0625-8.72,35.135-8.4363s-15.5376,4.52-34.8724,9.4639C926.9862,552.5058,911.2549,556.2828,911.1822,555.9994Z"/><path fill="#e0e0e0" d="M865.4086,631.781a11.543,11.543,0,0,1,2.522-.0411c1.8356.0609,4.1281.1365,6.8489.2268,5.7815.1826,13.7675.402,22.5873.32,8.8229-.0613,16.8055-.3951,22.5821-.683,2.72-.1326,5.01-.2449,6.8445-.3346a11.5433,11.5433,0,0,1,2.5218-.0019,11.4777,11.4777,0,0,1-2.4882.4135c-1.609.1958-3.9409.4376-6.8288.6713-5.7738.48-13.775.9334-22.6233.9953-8.845.0818-16.8505-.2567-22.632-.6319-2.89-.1993-5.2277-.3869-6.8387-.5639A11.5264,11.5264,0,0,1,865.4086,631.781Z"/><path fill="#e0e0e0" d="M838.03,579.1317a9.8606,9.8606,0,0,1,1.28,1.949q1.2816,2.2449,3.1424,5.5024c2.613,4.6676,6.1574,11.15,10.0147,18.3418,3.8586,7.1937,7.299,13.7332,9.7428,18.4918q1.6813,3.3459,2.8452,5.6613a9.8844,9.8844,0,0,1,.9158,2.1441,9.8648,9.8648,0,0,1-1.28-1.9489l-3.1421-5.5021c-2.6131-4.6677-6.1578-11.1513-10.0166-18.3449-3.8572-7.1913-7.2974-13.73-9.741-18.4888q-1.6817-3.3456-2.8452-5.6617A9.8638,9.8638,0,0,1,838.03,579.1317Z"/><path fill="#e0e0e0" d="M789.1206,640.8993a16.0726,16.0726,0,0,1,1.6132,2.51c1.0561,1.8334,2.4181,4.1977,4.0534,7.036,3.3816,5.9637,7.99,14.2372,13.0213,23.4066,5.0335,9.1721,9.5376,17.5038,12.7512,23.5595,1.5158,2.9041,2.7786,5.3227,3.7577,7.1981a16.07,16.07,0,0,1,1.2509,2.7087,16.06,16.06,0,0,1-1.613-2.51c-1.0559-1.8332-2.4178-4.1973-4.053-7.0359-3.3822-5.9636-7.99-14.2378-13.0236-23.41-5.0317-9.1695-9.5354-17.5-12.7493-23.556-1.5156-2.9036-2.7786-5.3223-3.7577-7.1977A16.0762,16.0762,0,0,1,789.1206,640.8993Z"/><path fill="#e0e0e0" d="M825.144,705.4852a18.3737,18.3737,0,0,1,3.1931-.1327c2.2429-.0071,5.1684-.0159,8.6942-.0263,7.3394-.03,17.4769-.11,28.6647-.5148,11.1922-.3878,21.3118-1.0059,28.6346-1.5044,3.5177-.2368,6.4371-.4331,8.6745-.5838a18.4777,18.4777,0,0,1,3.1932-.0942,18.38,18.38,0,0,1-3.1551.5055c-2.0385.2562-4.994.5808-8.6527.92-7.3147.69-17.4458,1.4282-28.6573,1.8166-11.2068.4058-21.3636.3674-28.7093.2049-3.6728-.09-6.6442-.1936-8.6961-.3109A18.4749,18.4749,0,0,1,825.144,705.4852Z"/><path fill="#eaeaea" d="M940.4152,1162.3675l-169.607-280.72a18.4235,18.4235,0,0,1,6.2417-25.2961l171.516-103.6271a18.4241,18.4241,0,0,1,25.2968,6.2419l169.6056,280.723a18.422,18.422,0,0,1-6.2409,25.2937L965.7123,1168.6092A18.4244,18.4244,0,0,1,940.4152,1162.3675Z"/><path fill="#fff" d="M1077.9664,1037.9919a25.18,25.18,0,1,1,8.5313-34.5746A25.1809,25.1809,0,0,1,1077.9664,1037.9919Z"/><path fill="#fff" d="M1080.6838,1068.8227a26.6417,26.6417,0,0,1-6.3718-.7778,26.2661,26.2661,0,1,1,6.3718.7778Zm-.0906-50.3806a23.9634,23.9634,0,1,0,12.4312,44.4763h0a23.9733,23.9733,0,0,0-12.4312-44.4763Z"/><path fill="#fff" d="M851.243,849.5205l-17.331,10.47-1.0758-1.7821,15.7446-9.5111-2.4692-4.089,1.5842-.9566Z"/><path fill="#fff" d="M846.2668,876.859l-1.584.9566-7.3453-12.1544,1.2644-.761,11.4055,2.9414c3.1132.7849,4.5014.4556,5.6918-.2623,2.0038-1.2119,2.3881-3.3709.7873-6.0213a6.8746,6.8746,0,0,0-4.7879-3.5616l.3269-1.9181a9.0909,9.0909,0,0,1,6.1859,4.6423c2.123,3.5164,1.6865,6.82-1.21,8.5713-1.6579,1.0021-3.4566,1.3814-7.14.4295l-9.3537-2.3928Z"/><path fill="#fff" d="M860.26,893.3121l-2.0945-3.4685-4.5541,2.7506-1.0782-1.7821,4.5565-2.7506-5.9091-9.7783,1.2883-.7778,17.0352,2.2425,1.1975,1.98-16.5462-2.1015,4.5468,7.5265,4.0126-2.4216,1.0472,1.732-4.01,2.4213,2.0945,3.4688Z"/><path fill="#fff" d="M876.31,919.8777l-2.0944-3.4685-4.5539,2.7506-1.0785-1.7821,4.5565-2.7506-5.9091-9.7783,1.2883-.7778,17.0352,2.2425,1.1975,1.98-16.5437-2.0991,4.5468,7.5263,4.01-2.4213,1.0473,1.73-4.01,2.4213,2.0945,3.4688Z"/><path fill="#fff" d="M886.0126,934.6992c-2.9485,1.78-6.4911,1.1164-9.0509-3.1177a10.4616,10.4616,0,0,1-1.5243-7.5576l1.9347.012a8.7607,8.7607,0,0,0,1.2119,6.534c1.78,2.946,4.1557,3.64,6.26,2.3688,2.2281-1.3477,2.7792-3.5711.1167-7.9772l-2.23-3.6906,9.2273-4.3607,5.73,9.4825-1.5839.9566-4.7879-7.92-5.88,2.7411,1.35,2.2305C889.9391,929.6228,889.0805,932.8434,886.0126,934.6992Z"/><path fill="#fff" d="M896.4351,951.7848c-3.2419,1.9584-6.8634.6654-8.8958-2.7006-2.7816-4.6042-1.1022-9.0364,4.37-12.3428,5.8923-3.5594,10.9067-2.1924,13.7479,2.51a9.3077,9.3077,0,0,1,1.5433,4.678l-1.87.1527a7.0914,7.0914,0,0,0-1.2165-3.86c-2.2591-3.7407-6.1119-4.69-10.8139-1.849-.3959.2411-.8779.5631-1.367.928,2.4287-.2863,4.7213,1.1,6.1716,3.502C900.1828,946.243,899.6056,949.8691,896.4351,951.7848Zm-1.1118-1.7249c2.2785-1.3765,2.7221-3.9434,1.1047-6.6176-1.5984-2.648-4.3226-3.4685-6.4769-2.1685-1.9061,1.1523-2.7577,3.8289-.9471,6.8253C890.5166,950.599,893.0215,951.4484,895.3233,950.06Z"/><path fill="#fff" d="M910.5672,975.6235c-2.8962,1.751-6.3957.9925-8.9221-3.1918a10.5345,10.5345,0,0,1-1.5434-7.5837l1.9372.0119a8.863,8.863,0,0,0,1.24,6.5842c1.7342,2.8722,4.0268,3.65,6.1808,2.3473,2.08-1.2571,2.56-3.54.6156-6.7559l-.7489-1.24,1.312-.7919,8.9194,1.1689-5.3556-8.8648,1.5842-.9566,6.7319,11.14-1.262.7634-9.127-1.1784C914.174,970.91,913.3415,973.9489,910.5672,975.6235Z"/><path fill="#fff" d="M921.2665,992.8832c-3.2421,1.9584-6.8633.6654-8.8982-2.7006-2.7816-4.6042-1.1-9.0364,4.3727-12.3428,5.8923-3.5594,10.9069-2.1924,13.7479,2.51a9.3074,9.3074,0,0,1,1.5436,4.6783l-1.87.1526a7.1057,7.1057,0,0,0-1.2192-3.8623c-2.2567-3.7382-6.1093-4.6875-10.8137-1.8465-.3959.2411-.8755.563-1.3669.9256,2.4308-.2861,4.7234,1.1022,6.1737,3.502C925.014,987.3414,924.4368,990.9675,921.2665,992.8832Zm-1.1117-1.73c2.2757-1.374,2.7218-3.9385,1.1068-6.6129-1.6008-2.6478-4.3274-3.4685-6.4815-2.1685-1.9061,1.1523-2.7555,3.8289-.9471,6.8252C915.3454,991.6974,917.8527,992.5468,920.1548,991.1536Z"/><path fill="#fff" d="M943.0562,1001.4831l-1.2644.7634-20.4491,2.4548-1.1664-1.9323,20.0552-2.3832-5.3866-8.9126-3.2419,1.9611-1.0616-1.7584,4.826-2.9174Z"/><path fill="#fff" d="M958.0279,1026.2642l-1.2619.7634-20.4491,2.4548L935.15,1027.55l20.0531-2.3832-5.3864-8.9124-3.2421,1.9609-1.0617-1.7581,4.8261-2.9177Z"/><path fill="#fff" d="M955.8331,1050.8785c-3.07,1.8536-6.5458.4079-9.046-3.7287-2.512-4.1579-2.1326-7.8366.9375-9.69,2.08-1.257,4.2584-.9517,6.2788.7683a4.5691,4.5691,0,0,1,2.166-5.0263c2.8222-1.7034,6.0333-.3652,8.247,3.299s1.9371,7.1782-.8851,8.8816a4.5845,4.5845,0,0,1-5.4892-.4676C958.6411,1047.5267,957.8872,1049.6356,955.8331,1050.8785ZM954.75,1049.03c2.13-1.2859,2.3592-3.9244.5056-6.9945-1.856-3.07-4.2844-4.07-6.4148-2.7841-2.1541,1.3025-2.3974,3.917-.5413,6.985C950.153,1049.3087,952.5983,1050.3323,954.75,1049.03Zm1.9156-7.8485c1.6294,2.698,3.8145,3.5757,5.6967,2.4379,1.9562-1.1809,2.1135-3.6071.5415-6.2072-1.5841-2.6216-3.7739-3.5641-5.7064-2.3976C955.2917,1036.1666,955.0365,1038.4832,956.6658,1041.1813Z"/><path fill="#fff" d="M969.9914,1065.304c-5.8924,3.5617-10.9092,2.1947-13.748-2.5073a9.2535,9.2535,0,0,1-1.5433-4.678l1.8678-.15a7.1175,7.1175,0,0,0,1.2189,3.8623c2.2569,3.7358,6.11,4.6875,10.8139,1.8441.3959-.2387.8755-.5606,1.367-.9256-2.4309.2863-4.721-1.1022-6.1716-3.5045-2.08-3.44-1.5006-7.0685,1.6675-8.9817,3.2443-1.9608,6.8633-.6654,8.8982,2.703C977.1459,1057.57,975.4616,1061.9974,969.9914,1065.304Zm1.9586-4.53c1.9061-1.1522,2.7577-3.8288.9471-6.8252-1.51-2.4975-4.0172-3.3493-6.3193-1.9584-2.2782,1.3763-2.7245,3.9408-1.1069,6.6176C967.0693,1061.2556,969.796,1062.0739,971.95,1060.7738Z"/><path fill="#fff" d="M989.1259,1077.7375l-17.3286,10.47-1.0758-1.7842,15.7447-9.5138-2.4692-4.0839,1.5842-.9566Z"/><path fill="#fff" d="M984.1521,1105.076l-1.5839.9566-7.3453-12.1545,1.2644-.7609,11.4055,2.9389c3.1131.7874,4.5014.4581,5.6917-.26,2.0041-1.2119,2.3881-3.3733.79-6.0213a6.8831,6.8831,0,0,0-4.79-3.5616l.3269-1.92a9.1014,9.1014,0,0,1,6.1859,4.6448c2.1231,3.5162,1.6866,6.82-1.21,8.5713-1.658,1.0018-3.4566,1.3787-7.1423.4292l-9.3514-2.3949Z"/><path fill="#fff" d="M996.9363,1118.5735c-2.8959,1.751-6.3957.9925-8.9218-3.1918a10.5242,10.5242,0,0,1-1.5437-7.5837l1.9347.012a8.8756,8.8756,0,0,0,1.24,6.5841c1.7368,2.872,4.0294,3.6474,6.1835,2.3473,2.08-1.2571,2.56-3.5377.6131-6.7583l-.7467-1.24,1.312-.7919,8.9173,1.1689-5.3532-8.86,1.5839-.9588,6.73,11.14-1.262.7634-9.127-1.1784C1000.5434,1113.86,999.7084,1116.899,996.9363,1118.5735Z"/><rect width="8.794" height="162.218" x="932.374" y="986.629" fill="#fff" transform="rotate(-31.143 936.77 1067.737)"/><rect width="8.796" height="83.2" x="937.775" y="1069.036" fill="#fff" transform="rotate(-31.142 942.171 1110.635)"/><path fill="#e0e0e0" d="M888.6149,877.6271l-22.6588-37.5038a12.1245,12.1245,0,0,1,4.1081-16.6478L892.83,809.7222a12.1253,12.1253,0,0,1,16.6478,4.1083l22.6571,37.5014a12.1246,12.1246,0,0,1-4.1066,16.6468l-22.7616,13.7559A12.1269,12.1269,0,0,1,888.6149,877.6271Z"/><path fill="#eaeaea" d="M871.7336,822.4649l2.7936-1.6846,18.121,29.9956a7.3351,7.3351,0,1,0,12.5563-7.5864l-18.1227-29.9983,2.7936-1.6843,18.121,29.9956a10.5971,10.5971,0,1,1-18.14,10.9606Z"/><rect width="3.262" height="24.054" x="908.153" y="852.923" fill="#eaeaea" transform="rotate(-31.089 909.785 864.951)"/><rect width="175.05" height="15.023" x="894.479" y="859.983" fill="#fff" transform="rotate(58.863 982.004 867.494)"/><g><path fill="#f5f5f5" d="M524.537,116.6625c-1.85,26.3841.0149,75.5152-9.601,100.1541s-22.4241,50.0252-46.4677,61.0454c-29.6074,13.57-64.4009,7.82-95.9848,15.77-49.5046,12.46-85.2957,57.8735-100.576,106.5815S258.3213,501.1044,260.1632,552.12L512.819,587.1777s1.3282-102.6646,23.3619-130.681,126.71-53.24,161.2863-129.9748c31.1146-69.0532,40.4994-178.57,40.4994-178.57Z"/><path fill="#e0e0e0" d="M586.2419,186.0342l-3.2562-6.0308a12.16,12.16,0,0,1-1.3873-.0977l-4.6352-.5726-.6762,5.47-1.8226-.224,2.1314-17.2477,6.4578.7993c4.3846.5413,6.77,3.0867,6.3134,6.782a5.3848,5.3848,0,0,1-4.61,4.9335l3.4793,6.4336Zm1.3026-11.3459c.341-2.76-1.2872-4.5612-4.7367-4.9882l-4.5849-.5653-1.0675,8.6452,4.5849.5667C585.19,178.7737,587.2093,177.3984,587.5445,174.6883Z"/><path fill="#e0e0e0" d="M604.6669,186.7092l-.1945,1.5768L592.275,186.78l2.1316-17.2462,11.8276,1.461-.1957,1.5768-10.0026-1.2355-.7575,6.1344,8.9172,1.1022-.192,1.5529-8.9172-1.1022-.792,6.4053Z"/><path fill="#e0e0e0" d="M608.1975,179.9927a8.7253,8.7253,0,0,1,10.1254-7.6541,8.4107,8.4107,0,0,1,5.9974,3.2922l-1.3,1.0137a6.8846,6.8846,0,0,0-4.8473-2.6741A7.2007,7.2007,0,1,0,616.406,188.26a6.8164,6.8164,0,0,0,5.3569-1.44l1.0138,1.3013a8.45,8.45,0,0,1-6.645,1.7559A8.72,8.72,0,0,1,608.1975,179.9927Z"/><path fill="#e0e0e0" d="M638.7637,190.9233,638.57,192.5l-12.1962-1.5077,2.1314-17.2463,11.8254,1.4623-.1957,1.5768-10.0026-1.2368-.7587,6.1344,8.9172,1.1022-.1908,1.5529-8.9172-1.1022-.792,6.4053Z"/><path fill="#e0e0e0" d="M644.9875,175.7834l1.8225.2255-2.13,17.2463-1.8226-.2255Z"/><path fill="#e0e0e0" d="M665.1981,184.2832c-.4558,3.6713-3.3877,5.5594-7.7723,5.0168l-4.6328-.5726-.6728,5.4463-1.8247-.2243,2.13-17.2465,6.4578.7981C663.268,178.0426,665.6537,180.588,665.1981,184.2832Zm-1.8226-.2242c.341-2.76-1.2884-4.5613-4.7378-4.9883l-4.5827-.5655-1.0639,8.6239,4.58.5653C661.0209,188.1214,663.0391,186.77,663.3755,184.059Z"/><path fill="#e0e0e0" d="M672.46,180.7788l-6.0616-.7493.1954-1.5768,13.946,1.7237-.1954,1.5768-6.0618-.749-1.9347,15.67-1.8226-.2255Z"/><path fill="#e0e0e0" d="M645.1592,228.1527c-.0474.3481-23.0643-2.5012-51.4027-6.3633-28.3483-3.8635-51.2834-7.2766-51.2358-7.6247s23.0592,2.5007,51.4075,6.3643C622.2668,224.391,645.2066,227.8046,645.1592,228.1527Z"/><path fill="#e0e0e0" d="M642.3954,248.7237c-.0474.3483-23.0641-2.5012-51.4027-6.3633-28.3483-3.8636-51.2834-7.2764-51.2358-7.6248s23.0592,2.501,51.4075,6.3643C619.503,244.962,642.4428,248.3758,642.3954,248.7237Z"/><path fill="#e0e0e0" d="M632.9847,269.6984c-.0474.3481-23.0641-2.5012-51.4027-6.3633-28.3483-3.8635-51.2832-7.2766-51.2358-7.6247s23.0592,2.5007,51.4076,6.3642C610.0923,265.9367,633.0321,269.3505,632.9847,269.6984Z"/><path fill="#e0e0e0" d="M615.85,290.86c-.0474.3481-23.0641-2.5012-51.4026-6.3633-28.3484-3.8635-51.2835-7.2766-51.2359-7.6247s23.0592,2.5007,51.4076,6.364C592.958,287.0983,615.8977,290.5119,615.85,290.86Z"/><path fill="#e0e0e0" d="M588.5768,311.9757c-.0474.3481-23.0641-2.5015-51.4027-6.3635-28.3484-3.8633-51.2832-7.2764-51.2358-7.6245s23.0592,2.5007,51.4075,6.364C565.6844,308.2138,588.6242,311.6276,588.5768,311.9757Z"/><path fill="#e0e0e0" d="M691.1776,235.0126c-.0564.3469-5.7139-.2858-12.6347-1.4129-6.9232-1.1273-12.4876-2.3219-12.4312-2.6688s5.7125.2859,12.6357,1.4132C685.6681,233.4712,691.2341,234.666,691.1776,235.0126Z"/><path fill="#e0e0e0" d="M690.2811,253.3494c-.0564.3466-5.7137-.2861-12.6344-1.4129-6.9232-1.1274-12.488-2.3219-12.4315-2.6688s5.7127.2858,12.6359,1.4132C684.7718,251.8077,690.3376,253.0027,690.2811,253.3494Z"/><path fill="#e0e0e0" d="M684.0617,278.729c-.0584.3469-5.7227-.3183-12.6528-1.4669-6.9136-1.1425-12.5485-2.3539-12.4131-2.6146-.0384-.4353,5.71.2175,12.621,1.36C678.549,277.1561,684.12,278.3831,684.0617,278.729Z"/><path fill="#e0e0e0" d="M675.0741,300.2016c-.0584.3469-5.7228-.3183-12.6528-1.4669-6.9136-1.1425-12.5484-2.3539-12.4131-2.6146-.0384-.4353,5.71.2174,12.621,1.3594C669.5614,298.6286,675.1323,299.8557,675.0741,300.2016Z"/><path fill="#e0e0e0" d="M655.7449,320.6115c-.0584.3469-5.7228-.3183-12.6528-1.4669-6.9137-1.1425-12.5485-2.3539-12.4132-2.6145-.0383-.4353,5.71.2174,12.6211,1.36C650.2322,319.0386,655.803,320.2656,655.7449,320.6115Z"/><path fill="#e0e0e0" d="M565.2513,337.7823c-.0493.3481-34.5983-4.2534-77.1577-10.2762-42.5741-6.0247-77.0359-11.189-76.9868-11.5369s34.591,4.2525,77.1651,10.2774C530.8311,332.2691,565.3,337.4347,565.2513,337.7823Z"/><path fill="#e0e0e0" d="M547.411,359.3646a8.6692,8.6692,0,0,1-1.7078-.1381c-1.238-.1634-2.8517-.3764-4.86-.6417-4.3583-.6341-10.415-1.5155-17.8357-2.5955-15.1694-2.3382-35.8823-5.5312-58.7661-9.0587-22.9434-3.618-43.699-6.9744-58.7094-9.4869-7.39-1.2749-13.4215-2.315-17.7617-3.0637-2.0947-.3875-3.7145-.6843-4.8182-.9232a8.5147,8.5147,0,0,1-1.6559-.4292,8.9913,8.9913,0,0,1,1.7065.1779c1.2349.1746,2.8447.4025,4.8478.6859,4.355.651,10.4071,1.5553,17.8235,2.6639l58.7655,9.1188,58.7074,9.4265c7.3949,1.2464,13.43,2.2633,17.773,2.9952l4.8228.8774A8.66,8.66,0,0,1,547.411,359.3646Z"/><path fill="#e0e0e0" d="M515.1675,379.13c.2184.2162-2.2591-.0484-6.3493-.5616-4.1443-.5265-10.13-1.3585-17.52-2.43-14.7793-2.1418-35.1741-5.2393-57.6832-8.7606-22.5169-3.5231-42.885-6.8006-57.6174-9.2385l-17.4356-2.9551-4.73-.8682a8.3387,8.3387,0,0,1-1.6356-.3881,8.3226,8.3226,0,0,1,1.6757.1351c1.218.1614,2.8.3713,4.7674.6319,4.2808.6254,10.2212,1.4928,17.4984,2.5557l57.6741,8.87,57.6223,9.1284Z"/><path fill="#e0e0e0" d="M623.46,349.6466c-.0581.3468-5.7228-.3186-12.6528-1.4669-6.9134-1.1428-12.5482-2.3542-12.4131-2.6146-.0384-.4355,5.71.2172,12.621,1.3594C617.9475,348.0734,623.5183,349.3007,623.46,349.6466Z"/><path fill="#e0e0e0" d="M598.5659,363.4941c-.0581.3469-5.7227-.3183-12.6528-1.4669-6.9134-1.1425-12.5482-2.3539-12.4131-2.6145-.0384-.4356,5.71.2174,12.621,1.3594C593.0532,361.9212,598.6243,363.1482,598.5659,363.4941Z"/><path fill="#e0e0e0" d="M565.0557,386.8374c-.0584.3469-5.7228-.3185-12.6528-1.4669-6.9137-1.1427-12.5483-2.3541-12.4132-2.6145-.0384-.4356,5.71.2171,12.621,1.3594C559.543,385.2643,565.1138,386.4915,565.0557,386.8374Z"/><path fill="#e0e0e0" d="M500.9848,423.677c-.0532.3471-42.7553-5.9346-95.3655-14.0288-52.6285-8.0972-95.2348-14.94-95.1813-15.2879s42.7463,5.9334,95.3748,14.0306C458.4229,416.4851,501.0383,423.33,500.9848,423.677Z"/><path fill="#e0e0e0" d="M475.409,469.9009c-.0562.3469-14.0535-1.6291-31.26-4.4129-17.2126-2.7846-31.1163-5.3224-31.06-5.6693s14.0505,1.6289,31.2633,4.4134C461.5585,467.016,475.4652,469.5543,475.409,469.9009Z"/></g><g><path fill="#0fa54a" d="M486.4894,701.3956,242.0969,735.9033a16.5865,16.5865,0,0,1-18.7427-14.1048l-32.489-230.0962A16.5866,16.5866,0,0,1,204.97,472.96l244.3925-34.5075a16.5865,16.5865,0,0,1,18.7427,14.1046l32.489,230.0964A16.5863,16.5863,0,0,1,486.4894,701.3956Z"/><path fill="#eaeaea" d="M397.7591,620.187a11.2254,11.2254,0,0,1-1.8478.3867l-5.35.8823-19.8391,3.0469-66.66,9.7869-.5442.08-.1534-.53c-1.0006-3.4556-2.061-7.1174-3.1346-10.8256-9.0741-31.7143-17.1728-60.019-22.4649-78.5159l.4441.2867c-7.5261,1.0023-13.5347,1.8026-17.7881,2.3688l-4.74.5746a9.1437,9.1437,0,0,1-1.6452.1231,9.1208,9.1208,0,0,1,1.6132-.3449l4.71-.7837,17.7353-2.7357.3452-.0532.1.3405c5.3976,18.4662,13.6575,46.7242,22.9123,78.3862,1.0715,3.7089,2.1294,7.3715,3.1278,10.8275l-.6972-.45c26.3453-3.7036,49.756-6.9945,66.7184-9.3792,8.3466-1.1171,15.1-2.0209,19.8943-2.6627l5.382-.66A11.1883,11.1883,0,0,1,397.7591,620.187Z"/><path fill="#eaeaea" d="M298.4668,614.6266a1.6293,1.6293,0,0,1,.4619-.12c.3711-.0677.823-.15,1.3768-.2506q1.9563-.3184,5.35-.87l20.0467-3.0606,69.1783-10.1689-.5228.5841c.3767-11.9447.7842-24.86,1.2058-38.2284.224-6.8757.4438-13.6321.6537-20.0728l.7179.6427c-32.399,4.5708-60.9978,8.6053-81.6041,11.5123-10.1975,1.3841-18.412,2.499-24.179,3.2816q-4.1526.5262-6.5235.8267c-.6886.0752-1.2454.136-1.6936.1851a2.2092,2.2092,0,0,1-.5817.024,2.1836,2.1836,0,0,1,.5648-.141l1.6775-.2992q2.3542-.3786,6.492-1.0438c5.7541-.8726,13.95-2.1157,24.1248-3.6591l81.544-11.9319.7424-.1085-.024.7517c-.2054,6.4409-.4206,13.1973-.64,20.0733-.44,13.3676-.8648,26.2825-1.2576,38.2266l-.0171.5132-.5064.0714c-27.903,3.9173-52.008,7.3018-69.2425,9.7214l-20.0973,2.7081-5.3783.6718c-.56.0591-1.0167.1075-1.3919.147A1.6172,1.6172,0,0,1,298.4668,614.6266Z"/><path fill="#eaeaea" d="M331.0771,655.7512c-.115.0207-.2391-.8176-.8515-2.1541a9.4631,9.4631,0,0,0-4.143-4.3758,8.93,8.93,0,1,0,2.0412,14.2013,9.4615,9.4615,0,0,0,2.7427-5.3654c.2113-1.4545.0944-2.2938.2106-2.306a4.7868,4.7868,0,0,1,.2819,2.3573,9.43,9.43,0,0,1-2.5935,5.9443A9.8866,9.8866,0,0,1,319.65,666.94a10.0225,10.0225,0,0,1-2.6881-18.7078,9.8859,9.8859,0,0,1,9.5587.2033,9.4329,9.4329,0,0,1,4.1633,4.9738A4.7886,4.7886,0,0,1,331.0771,655.7512Z"/><path fill="#eaeaea" d="M391.4361,647.0777c-.1153.0208-.2394-.8176-.8516-2.1538a9.4617,9.4617,0,0,0-4.1432-4.3758,8.93,8.93,0,1,0,2.0412,14.201,9.46,9.46,0,0,0,2.7428-5.3651c.2113-1.4545.0943-2.2938.2108-2.3063a4.7942,4.7942,0,0,1,.2819,2.3573,9.4334,9.4334,0,0,1-2.5937,5.9446,9.8862,9.8862,0,0,1-9.1154,2.8872,10.0224,10.0224,0,0,1-2.6883-18.7078,9.8863,9.8863,0,0,1,9.5589.2032,9.4329,9.4329,0,0,1,4.1631,4.9738A4.7954,4.7954,0,0,1,391.4361,647.0777Z"/><circle cx="390.354" cy="533.708" r="27.038" fill="#f9fbfc" transform="rotate(-56.52 390.353 533.708)"/><path fill="#0fa54a" d="M403.4484,521.63c.1434.1014-.9556,1.934-2.8488,4.815s-4.5795,6.81-7.6113,11.1046l-3.257,4.5644-.342.48-.4839-.319c-6.5109-4.2911-11.1166-7.5464-10.9617-7.7865s5.022,2.6089,11.62,6.7649l-.8252.16c1.0148-1.4532,2.0928-2.9966,3.2106-4.5971,3.0315-4.2945,5.8347-8.1414,7.9157-10.89S403.305,521.5283,403.4484,521.63Z"/></g><g><path fill="#ffc829" d="M439.5414,1015.4007,251.75,968.0619a16.5868,16.5868,0,0,1-12.0292-20.138L284.2,771.4745a16.5868,16.5868,0,0,1,20.1379-12.0291l187.792,47.339a16.5867,16.5867,0,0,1,12.0291,20.1379l-44.48,176.4493A16.5862,16.5862,0,0,1,439.5414,1015.4007Z"/><path fill="#f9fbfc" d="M321.5545,857.7315l1.7088,46.6634L408.81,925.96l24.0057-38.3035s-8.2735-5.13-14.307-5.3461l10.06-46.6524a6.5655,6.5655,0,0,0-7.49-7.8614l-9.216,1.5257L363.6156,817.16l-4.8551-4.178a6.4769,6.4769,0,0,0-10.5168,3.3721L337.04,862.208A37.68,37.68,0,0,0,321.5545,857.7315Z"/><path fill="#e0e0e0" d="M345.3422,887.827A34.06,34.06,0,0,0,360.84,902.4291a52.4134,52.4134,0,0,0,20.952,4.8551c3.9366.1547,8.2995-.1851,11.0774-2.9787,2.8647-2.8811,3.0973-7.3827,3.1542-11.4453.0733-5.2086.1363-10.5-1.247-15.5224s-4.435-9.8292-9.1174-12.1117c-6.3488-3.0951-14.042-.9134-20.1932,2.5574a53.1572,53.1572,0,0,0-19.6007,19.2625"/><rect width="4.656" height="40.801" x="318.097" y="904.318" fill="#282727" transform="rotate(14.151 320.426 924.72)"/><rect width="4.656" height="20.83" x="336.412" y="908.622" fill="#282727" transform="rotate(14.148 338.74 919.035)"/><rect width="4.656" height="20.83" x="381.76" y="920.054" fill="#282727" transform="rotate(14.148 384.088 930.468)"/><rect width="4.656" height="40.801" x="399.318" y="924.792" fill="#282727" transform="rotate(14.148 401.647 945.193)"/><path fill="#282727" d="M347.6274,883.78c-.3405-.0858,3.1183-14.972,7.7244-33.2448,4.6079-18.2793,8.6183-33.0231,8.959-32.9372s-3.1174,14.9689-7.7254,33.2482C351.9793,869.1189,347.968,883.866,347.6274,883.78Z"/><path fill="#282727" d="M395.9538,895.9623c-.3407-.086,3.1183-14.972,7.7245-33.245,4.6078-18.2791,8.6182-33.0229,8.959-32.9369s-3.1175,14.9688-7.7254,33.2479C400.3057,881.3012,396.2944,896.048,395.9538,895.9623Z"/><path fill="#282727" d="M418.5086,882.31a11.81,11.81,0,0,1-2.382.1055c-.4006,0-.8281,0-1.2847,0q-.719.0858-1.5277.1822-.8365.1-1.7657.21-.9255.2392-1.9423.5018a18.0757,18.0757,0,0,0-8.4765,5.1528,22.251,22.251,0,0,0-5.3879,11.4993l-.1053.6447-.609-.1517c-6.9288-1.7283-14.6974-3.6659-22.8884-5.7088l-25.6151-6.5351-.5328-.136.1241-.5367a24.0214,24.0214,0,0,0-.2394-11.7565,25.5481,25.5481,0,0,0-3.9126-8.32c-3.0392-4.1923-5.7736-5.6864-5.63-5.851a8.4871,8.4871,0,0,1,1.8372,1.142,22.8252,22.8252,0,0,1,4.3243,4.315,25.3138,25.3138,0,0,1,4.27,8.4656,24.6021,24.6021,0,0,1,.4407,12.2624l-.4082-.672c7.583,1.8883,16.3439,4.07,25.652,6.3884,8.1807,2.084,15.9393,4.06,22.8593,5.8235l-.7138.4922a22.919,22.919,0,0,1,5.8332-12.0218,18.4426,18.4426,0,0,1,8.9986-5.1659l2.02-.44q.9567-.0717,1.8175-.1365l1.5636-.1011q.6948.0455,1.3028.0852A11.5828,11.5828,0,0,1,418.5086,882.31Z"/><path fill="#282727" d="M345.6571,887.7119c-.0135.2077-1.72.1-4.3639.5887a20.5415,20.5415,0,0,0-15.5268,12.5307c-1.0357,2.4812-1.291,4.1716-1.4969,4.1408-.1407-.0076-.2077-1.77.6539-4.4545A19.1974,19.1974,0,0,1,341.1647,887.41C343.97,887.1349,345.68,887.5727,345.6571,887.7119Z"/><path fill="#282727" d="M407.735,926.6514c-.2042-.0467.22-1.8869.2121-4.8686a24.5217,24.5217,0,0,0-10.0046-19.9138c-2.3871-1.7864-4.1168-2.5442-4.0321-2.7359.0447-.1327,1.9262.3339,4.5454,1.997a22.7739,22.7739,0,0,1,10.39,20.682C408.6171,924.9062,407.8682,926.6946,407.735,926.6514Z"/></g><g><path fill="#282727" d="M796.6058,1170.701,489.2246,1169.28a66.9559,66.9559,0,0,1-66.648-67.239l3.2575-770.6122A66.9581,66.9581,0,0,1,493.1,264.7532l307.3827,1.42a66.9582,66.9582,0,0,1,66.647,67.24l-3.2577,770.614A66.9569,66.9569,0,0,1,796.6058,1170.701Z"/><path fill="#f9fbfc" d="M797.5006,287.8136l-59.5956-.2748c-7.9914-.0357-14.501,6.7082-14.534,15.0614l-.0484,10.81c-.0327,8.3551-6.5426,15.099-14.5335,15.0616l-116.166-.5369c-7.991-.0359-14.4422-6.84-14.4075-15.1948l.0464-10.81c.0347-8.3545-6.4163-15.1587-14.4089-15.1951l-20.96-.0974-52.1607-.24a46.8942,46.8942,0,0,0-47.1089,46.6956l-3.18,752.1729a46.894,46.894,0,0,0,46.6763,47.0943l306.7678,1.4153a46.8945,46.8945,0,0,0,47.109-46.6944l3.18-752.1758A46.8944,46.8944,0,0,0,797.5006,287.8136Z"/><path fill="#282727" d="M483.3611,367.7649a1.2224,1.2224,0,0,1-.8828-.3769l-4.6734-4.88a1.2215,1.2215,0,0,1,.0384-1.727l4.6733-4.4694a1.2216,1.2216,0,0,1,1.689,1.7654l-3.7907,3.6249,3.8288,3.9969a1.2214,1.2214,0,0,1-.8826,2.0659Z"/><path fill="#0fa54a" d="M519.4334,1003.42H773.0344a39.386,39.386,0,0,1,39.386,39.386v7.0456a39.3862,39.3862,0,0,1-39.3862,39.3862H519.4334a39.3862,39.3862,0,0,1-39.3862-39.3862v-7.0453A39.3862,39.3862,0,0,1,519.4334,1003.42Z"/><path fill="#f9fbfc" d="M606.7029,1036.3789h7.7232c6.07,0,10.1612,3.9029,10.1612,9.4852s-4.0913,9.485-10.1612,9.485h-7.7232Zm7.6145,17.2358c5.0408,0,8.2924-3.1967,8.2924-7.7506,0-4.5517-3.2516-7.7508-8.2924-7.7508H608.708v15.5014Z"/><path fill="#f9fbfc" d="M627.3963,1045.8641c0-5.5273,4.2273-9.6474,9.9718-9.6474,5.6895,0,9.9454,4.0937,9.9454,9.6474,0,5.556-4.2559,9.6472-9.9454,9.6472C631.6236,1055.5113,627.3963,1051.3937,627.3963,1045.8641Zm17.9109,0a7.9673,7.9673,0,1,0-7.9391,7.8581A7.6836,7.6836,0,0,0,645.3072,1045.8641Z"/><path fill="#f9fbfc" d="M667.6526,1036.3789v18.97H666l-12.1926-15.3917v15.3917h-2.0063v-18.97h1.6531l12.2214,15.3942v-15.3942Z"/><path fill="#f9fbfc" d="M687.2381,1053.6147v1.7344h-13.414v-18.97H686.83v1.7344h-11v6.7488H685.64v1.708H675.83v7.0446Z"/><path fill="#282727" d="M519.9376,745.3787c0,3.4615-2.5073,5.5513-6.6415,5.5513h-4.3656v5.1314h-1.7187V739.8062h6.0843C517.43,739.8062,519.9376,741.896,519.9376,745.3787Zm-1.7175,0c0-2.6-1.7188-4.0863-4.97-4.0863h-4.3192V749.42H513.25C516.5013,749.42,518.22,747.9337,518.22,745.3787Z"/><path fill="#282727" d="M534.5481,743.8473v12.2141h-1.5793v-2.2281a4.8643,4.8643,0,0,1-4.3895,2.3449c-3.1119,0-5.1553-1.7415-5.1553-5.2482v-7.0827h1.6487v6.92c0,2.6,1.3477,3.9242,3.6688,3.9242,2.555,0,4.157-1.6484,4.157-4.4372v-6.4075Z"/><path fill="#282727" d="M545.3272,743.7543v1.6007c-.14,0-.2792-.0215-.395-.0215-2.5549,0-4.11,1.6245-4.11,4.5039v6.224h-1.65V743.8473h1.5793v2.39C541.5187,744.6132,543.074,743.7543,545.3272,743.7543Z"/><path fill="#282727" d="M546.9542,749.9544a6.0124,6.0124,0,0,1,6.2929-6.2,5.3322,5.3322,0,0,1,4.783,2.4142l-1.2309.8374a4.1531,4.1531,0,0,0-3.5521-1.8131,4.7624,4.7624,0,0,0,0,9.5207,4.1292,4.1292,0,0,0,3.5521-1.7867l1.2309.8349a5.3853,5.3853,0,0,1-4.783,2.4165A6.0315,6.0315,0,0,1,546.9542,749.9544Z"/><path fill="#282727" d="M572.315,748.9787v7.0827h-1.6484v-6.9205c0-2.5764-1.3468-3.9-3.6692-3.9-2.624,0-4.2724,1.6244-4.2724,4.411v6.41h-1.65V738.8305h1.65v7.1519a5.1585,5.1585,0,0,1,4.5744-2.2281C570.2718,743.7543,572.315,745.4718,572.315,748.9787Z"/><path fill="#282727" d="M586.0189,748.4921v7.5693h-1.5781v-1.9037a4.59,4.59,0,0,1-4.2033,2.02c-2.7638,0-4.4586-1.4408-4.4586-3.5543,0-1.88,1.207-3.4593,4.7139-3.4593h3.8777v-.7441c0-2.09-1.1845-3.2277-3.46-3.2277a6.2263,6.2263,0,0,0-4.0638,1.4408l-.7431-1.2309a7.759,7.759,0,0,1,4.97-1.6484C584.2308,743.7543,586.0189,745.3335,586.0189,748.4921Zm-1.6484,3.9v-1.9965h-3.8313c-2.3688,0-3.1346.9278-3.1346,2.1826,0,1.4171,1.1378,2.3,3.0882,2.3A3.9075,3.9075,0,0,0,584.3705,752.3923Z"/><path fill="#282727" d="M588.8088,754.6683l.7431-1.3a7.3827,7.3827,0,0,0,4.3429,1.3694c2.3224,0,3.2741-.7895,3.2741-1.9968,0-3.1822-7.9189-.6727-7.9189-5.5034,0-1.9967,1.7188-3.4829,4.8309-3.4829a8.2819,8.2819,0,0,1,4.3189,1.1378l-.72,1.324a6.2486,6.2486,0,0,0-3.5985-1.0448c-2.2068,0-3.1825.8587-3.1825,2.0183,0,3.299,7.9189.8134,7.9189,5.5059,0,2.111-1.857,3.4827-5.0383,3.4827A8.1658,8.1658,0,0,1,588.8088,754.6683Z"/><path fill="#282727" d="M612.4973,750.4649H602.28a4.52,4.52,0,0,0,4.807,4.2486,4.809,4.809,0,0,0,3.7382-1.6006l.929,1.0688a6.4577,6.4577,0,0,1-11.1226-4.2273,5.8819,5.8819,0,0,1,5.9675-6.2c3.4363,0,5.9221,2.531,5.9221,6.2C612.5212,750.0926,612.4973,750.2788,612.4973,750.4649ZM602.28,749.234h8.662a4.34,4.34,0,0,0-8.662,0Z"/><path fill="#282727" d="M639.904,743.8473l-4.6233,12.2141h-1.5554l-3.8552-10.01-3.8538,10.01H624.461l-4.5981-12.2141h1.579l3.8313,10.38,3.9244-10.38h1.4168l3.9,10.38,3.8789-10.38Z"/><path fill="#282727" d="M651.24,748.4921v7.5693h-1.5793v-1.9037a4.5885,4.5885,0,0,1-4.2034,2.02c-2.7625,0-4.4586-1.4408-4.4586-3.5543,0-1.88,1.21-3.4593,4.7139-3.4593h3.879v-.7441c0-2.09-1.1833-3.2277-3.4591-3.2277a6.2272,6.2272,0,0,0-4.065,1.4408l-.7419-1.2309a7.7553,7.7553,0,0,1,4.9691-1.6484C649.4532,743.7543,651.24,745.3335,651.24,748.4921Zm-1.6484,3.9v-1.9965H645.76c-2.3688,0-3.1347.9278-3.1347,2.1826,0,1.4171,1.1379,2.3,3.087,2.3A3.9071,3.9071,0,0,0,649.5917,752.3923Z"/><path fill="#282727" d="M654.0288,754.6683l.7443-1.3a7.3756,7.3756,0,0,0,4.3416,1.3694c2.3212,0,3.2732-.7895,3.2732-1.9968,0-3.1822-7.9177-.6727-7.9177-5.5034,0-1.9967,1.7176-3.4829,4.8307-3.4829a8.2723,8.2723,0,0,1,4.3179,1.1378l-.7182,1.324a6.2571,6.2571,0,0,0-3.6-1.0448c-2.2066,0-3.1823.8587-3.1823,2.0183,0,3.299,7.92.8134,7.92,5.5059,0,2.111-1.8583,3.4827-5.04,3.4827A8.1648,8.1648,0,0,1,654.0288,754.6683Z"/><path fill="#282727" d="M671.4744,754.6683l.7443-1.3a7.3758,7.3758,0,0,0,4.3416,1.3694c2.3212,0,3.2732-.7895,3.2732-1.9968,0-3.1822-7.9177-.6727-7.9177-5.5034,0-1.9967,1.7176-3.4829,4.8307-3.4829a8.2723,8.2723,0,0,1,4.3179,1.1378l-.7182,1.324a6.2571,6.2571,0,0,0-3.6-1.0448c-2.2066,0-3.1823.8587-3.1823,2.0183,0,3.299,7.92.8134,7.92,5.5059,0,2.111-1.8583,3.4827-5.0405,3.4827A8.1648,8.1648,0,0,1,671.4744,754.6683Z"/><path fill="#282727" d="M695.5351,743.8473v12.2141h-1.5792v-2.2281a4.8626,4.8626,0,0,1-4.3895,2.3449c-3.1107,0-5.1551-1.7415-5.1551-5.2482v-7.0827H686.06v6.92c0,2.6,1.3479,3.9242,3.6689,3.9242,2.5549,0,4.1581-1.6484,4.1581-4.4372v-6.4075Z"/><path fill="#282727" d="M698.9275,749.9544a6.0131,6.0131,0,0,1,6.2929-6.2,5.3331,5.3331,0,0,1,4.7833,2.4142l-1.2312.8374a4.15,4.15,0,0,0-3.5521-1.8131,4.7625,4.7625,0,0,0,0,9.5207,4.1266,4.1266,0,0,0,3.5521-1.7867l1.2312.8349a5.3861,5.3861,0,0,1-4.7833,2.4165A6.0321,6.0321,0,0,1,698.9275,749.9544Z"/><path fill="#282727" d="M711.7952,749.9544a6.013,6.013,0,0,1,6.293-6.2,5.3324,5.3324,0,0,1,4.783,2.4142l-1.2309.8374a4.15,4.15,0,0,0-3.5521-1.8131,4.7625,4.7625,0,0,0,0,9.5207,4.1266,4.1266,0,0,0,3.5521-1.7867l1.2309.8349a5.3854,5.3854,0,0,1-4.783,2.4165A6.0321,6.0321,0,0,1,711.7952,749.9544Z"/><path fill="#282727" d="M736.5287,750.4649H726.3112a4.52,4.52,0,0,0,4.8069,4.2486,4.8094,4.8094,0,0,0,3.7383-1.6006l.93,1.0688a6.4585,6.4585,0,0,1-11.1238-4.2273,5.8823,5.8823,0,0,1,5.9687-6.2c3.4351,0,5.9209,2.531,5.9209,6.2C736.5524,750.0926,736.5287,750.2788,736.5287,750.4649Zm-10.2175-1.2309h8.662a4.34,4.34,0,0,0-8.662,0Z"/><path fill="#282727" d="M738.2272,754.6683l.7443-1.3a7.3758,7.3758,0,0,0,4.3416,1.3694c2.3212,0,3.2729-.7895,3.2729-1.9968,0-3.1822-7.9176-.6727-7.9176-5.5034,0-1.9967,1.7178-3.4829,4.8309-3.4829a8.2711,8.2711,0,0,1,4.3177,1.1378l-.718,1.324a6.2571,6.2571,0,0,0-3.6-1.0448c-2.2068,0-3.1825.8587-3.1825,2.0183,0,3.299,7.92.8134,7.92,5.5059,0,2.111-1.8582,3.4827-5.0408,3.4827A8.1641,8.1641,0,0,1,738.2272,754.6683Z"/><path fill="#282727" d="M749.5848,754.6683l.7444-1.3a7.3754,7.3754,0,0,0,4.3416,1.3694c2.3211,0,3.2731-.7895,3.2731-1.9968,0-3.1822-7.9179-.6727-7.9179-5.5034,0-1.9967,1.7178-3.4829,4.8309-3.4829a8.2723,8.2723,0,0,1,4.3179,1.1378l-.7182,1.324a6.2571,6.2571,0,0,0-3.6-1.0448c-2.2066,0-3.1825.8587-3.1825,2.0183,0,3.299,7.92.8134,7.92,5.5059,0,2.111-1.8582,3.4827-5.0405,3.4827A8.1648,8.1648,0,0,1,749.5848,754.6683Z"/><path fill="#282727" d="M764.5185,742.4063v1.441H768.28v1.3932h-3.7143v10.8209h-1.6484V745.2405h-2.1851v-1.3932h2.1851v-1.51a3.3637,3.3637,0,0,1,3.69-3.6237,3.8711,3.8711,0,0,1,2.4381.7683l-.5559,1.2309a2.7894,2.7894,0,0,0-1.8131-.606C765.2626,740.1067,764.5185,740.8964,764.5185,742.4063Z"/><path fill="#282727" d="M781.52,743.8473v12.2141h-1.5793v-2.2281a4.8622,4.8622,0,0,1-4.3892,2.3449c-3.1109,0-5.1553-1.7415-5.1553-5.2482v-7.0827h1.6484v6.92c0,2.6,1.3479,3.9242,3.6691,3.9242,2.5549,0,4.1579-1.6484,4.1579-4.4372v-6.4075Z"/><path fill="#282727" d="M786.1459,738.8305h1.6484v17.2309h-1.6484Z"/><g><path fill="#0fa54a" d="M529.8855,679.0031H519.569v-4.89h26.4141v4.89H535.6669v26.2363h-5.7814Z"/><path fill="#0fa54a" d="M573.1917,691.6322v13.6072h-5.5584V692.343c0-4.2248-2.09-6.2692-5.6478-6.2692-3.9576,0-6.6259,2.4-6.6259,7.1592v12.0064h-5.5583V672.2448H555.36v12.0064a10.5789,10.5789,0,0,1,7.9152-3.0249C568.9669,681.2263,573.1917,684.473,573.1917,691.6322Z"/><path fill="#0fa54a" d="M600.1342,691.32v13.92h-5.2471v-2.8913c-1.3346,2.0468-3.9134,3.2015-7.4716,3.2015-5.4248,0-8.8491-2.9773-8.8491-7.1139,0-3.9576,2.6683-7.0708,9.8726-7.0708h6.1368V691.01c0-3.2467-1.9574-5.1575-5.915-5.1575a11.7546,11.7546,0,0,0-7.2031,2.3568l-2.1792-4.0482a16.6965,16.6965,0,0,1,10.0492-2.9343C596.1766,681.2263,600.1342,684.473,600.1342,691.32Zm-5.5584,6.4934v-2.7577h-5.7372c-3.78,0-4.8023,1.4242-4.8023,3.1584,0,2.0016,1.69,3.29,4.5363,3.29C591.2849,701.5036,593.642,700.2583,594.5758,697.8132Z"/><path fill="#0fa54a" d="M630.6335,691.6322v13.6072h-5.5582V692.343c0-4.2248-2.09-6.2692-5.648-6.2692-3.9576,0-6.6259,2.4-6.6259,7.1592v12.0064H607.243V681.4935h5.2924v3.068c1.8226-2.178,4.7127-3.3352,8.1815-3.3352C626.4086,681.2263,630.6335,684.473,630.6335,691.6322Z"/><path fill="#0fa54a" d="M647.3922,695.0555l-4.1343,3.9147v6.2692H637.7V672.2448h5.5583v19.9216l11.5177-10.6729h6.67l-9.9166,9.96,10.8495,13.7863H655.62Z"/><path fill="#0fa54a" d="M700.4779,681.4935l-11.1165,25.6591c-2.18,5.38-5.2029,7.0255-9.16,7.0255a9.8294,9.8294,0,0,1-6.36-2.18l2.2235-4.0912a6.0231,6.0231,0,0,0,4.0912,1.6459c1.9562,0,3.1132-.9326,4.1794-3.29l.4009-.9351-10.3605-23.8341h5.78l7.4716,17.5648,7.5146-17.5648Z"/><path fill="#0fa54a" d="M701.3153,693.3663c0-7.1159,5.3366-12.14,12.6291-12.14,7.3834,0,12.6746,5.0241,12.6746,12.14,0,7.114-5.2912,12.1833-12.6746,12.1833C706.6519,705.55,701.3153,700.48,701.3153,693.3663Zm19.7,0c0-4.5348-3.0225-7.4261-7.071-7.4261-4.0006,0-7.0253,2.8913-7.0253,7.4261s3.0247,7.4264,7.0253,7.4264C717.9929,700.7927,721.0154,697.9014,721.0154,693.3663Z"/><path fill="#0fa54a" d="M754.9405,681.4935v23.7459h-5.2914v-3.0249a9.6985,9.6985,0,0,1-7.65,3.3351c-6.0905,0-10.2269-3.3351-10.2269-10.4941v-13.562H737.33v12.8058c0,4.3154,2.0468,6.36,5.5584,6.36,3.8694,0,6.4935-2.4022,6.4935-7.1591V681.4935Z"/><path fill="#0fa54a" d="M761.2048,702.0833a3.4425,3.4425,0,0,1,3.6022-3.4256,3.3916,3.3916,0,0,1,3.5115,3.4256,3.4261,3.4261,0,0,1-3.5115,3.4663A3.4764,3.4764,0,0,1,761.2048,702.0833Zm.31-27.9707h6.5817l-1.1117,20.8093h-4.4012Z"/></g><g><circle cx="648.435" cy="563.561" r="63.955" fill="#0fa54a"/><path fill="#fff" d="M679.9309,536.5787c.8184.6645-11.1289,16.7323-26.6814,35.8842L643.83,583.89l-1.2879,1.5625L641.16,584.028c-12.1442-12.5143-20.4373-21.8075-19.85-22.3953s9.88,7.7059,22.3948,19.85l-2.6693.1383c2.872-3.59,5.9939-7.4928,9.2507-11.5638C665.8393,550.9051,679.1133,535.9145,679.9309,536.5787Z"/><path fill="#0fa54a" d="M739.2818,537.7955c-1.8966-6.7187-10.628-6.0665-10.628-6.0665l.24,4.6724c5.0473-.8706,8.1844,5.0446,8.1844,5.0446Z"/><path fill="#e0e0e0" d="M554.04,551.8837c-1.8966-6.7185-10.628-6.0662-10.628-6.0662l.24,4.6723c5.0474-.8706,8.1842,5.0444,8.1842,5.0444Z"/><path fill="#e0e0e0" d="M656.0715,458.953c10.1279,3.0681,16.4294-8.6129,16.4294-8.6129l-6.1618-3.5113c-3.0125,7.1557-13.1279,6.3276-13.1279,6.3276Z"/><path fill="#0fa54a" d="M599.8645,471.5264c-4.7134.5-5.2767,6.418-5.2767,6.418l3.1544.3745c-.0049-3.4776,4.313-4.9,4.313-4.9Z"/><path fill="#e0e0e0" d="M794.1554,514.7976c.685-4.69-4.9083-6.7038-4.9083-6.7038l-1.1452,2.9629c3.37.8582,3.6764,5.3937,3.6764,5.3937Z"/><path fill="#0fa54a" d="M627.364,409.7855c.685-4.69-4.9081-6.7041-4.9081-6.7041l-1.1454,2.9629c3.37.8582,3.6764,5.3937,3.6764,5.3937Z"/><path fill="#0fa54a" d="M510.8963,485.4426c-.8467,7.3538,8.895,9.1346,8.895,9.1346l1.7578-4.8121c-5.8446-.5281-6.6886-7.4129-6.6886-7.4129Z"/><path fill="#0fa54a" d="M727.7212,458.7947c4.7324.27,6.2467-5.4785,6.2467-5.4785l-3.052-.8807c-.5587,3.4324-5.05,4.1364-5.05,4.1364Z"/><path fill="#e0e0e0" d="M753.5754,478.09c0,.2108-1.7495.3818-3.907.3818s-3.9076-.171-3.9076-.3818,1.7491-.3816,3.9076-.3816S753.5754,477.8794,753.5754,478.09Z"/><path fill="#e0e0e0" d="M757.725,467.461c.2108,0,.3818,1.7752.3818,3.9645s-.171,3.9647-.3818,3.9647-.3816-1.7747-.3816-3.9647S757.5142,467.461,757.725,467.461Z"/><path fill="#e0e0e0" d="M762.1446,477.8357c0-.2109,1.75-.3818,3.907-.3818s3.9075.1709,3.9075.3818-1.749.3815-3.9075.3815S762.1446,478.0462,762.1446,477.8357Z"/><path fill="#e0e0e0" d="M757.9949,488.4646c-.2107,0-.3817-1.7752-.3817-3.9645s.171-3.9646.3817-3.9646.3816,1.7747.3816,3.9646S758.2055,488.4646,757.9949,488.4646Z"/><path fill="#e0e0e0" d="M764.3106,483.9056c-.162.1351-.9151-.5-1.6819-1.4188s-1.258-1.773-1.0961-1.9081.9146.5,1.6819,1.419S764.4723,483.7707,764.3106,483.9056Z"/><path fill="#e0e0e0" d="M763.9454,471.8517c.15.1483-.3747.92-1.1711,1.7235s-1.5639,1.3347-1.7134,1.1862.3745-.92,1.1711-1.7237S763.7957,471.7032,763.9454,471.8517Z"/><path fill="#e0e0e0" d="M754.9888,474.9226c-.1348.162-.8589-.2181-1.6174-.8491s-1.2639-1.2742-1.129-1.4361.8589.2181,1.6174.8493S755.1237,474.7606,754.9888,474.9226Z"/><path fill="#e0e0e0" d="M754.6373,480.235c.1559.1422-.3041.9-1.027,1.6938s-1.4356,1.3218-1.5915,1.18.3042-.9,1.0272-1.6939S754.4815,480.0931,754.6373,480.235Z"/><path fill="#0fa54a" d="M540.7687,456.315c0,.2108-1.75.3818-3.907.3818s-3.9075-.171-3.9075-.3818,1.749-.3816,3.9075-.3816S540.7687,456.1044,540.7687,456.315Z"/><path fill="#0fa54a" d="M544.9183,445.686c.2108,0,.3816,1.7752.3816,3.9645s-.1708,3.9647-.3816,3.9647-.3815-1.7747-.3815-3.9647S544.7078,445.686,544.9183,445.686Z"/><path fill="#0fa54a" d="M549.3379,456.0607c0-.2109,1.75-.3818,3.907-.3818s3.9075.1709,3.9075.3818-1.749.3815-3.9075.3815S549.3379,456.2712,549.3379,456.0607Z"/><path fill="#0fa54a" d="M545.1883,466.69c-.2109,0-.3819-1.775-.3819-3.9645s.171-3.9646.3819-3.9646.3815,1.7747.3815,3.9646S545.3988,466.69,545.1883,466.69Z"/><path fill="#0fa54a" d="M551.5039,462.1306c-.1619.1353-.9151-.5-1.6819-1.4186s-1.258-1.7732-1.0961-1.9083.9146.5,1.6819,1.419S551.6656,461.9957,551.5039,462.1306Z"/><path fill="#0fa54a" d="M551.1387,450.0767c.15.1486-.3747.92-1.1711,1.7235s-1.5639,1.3347-1.7136,1.1864.3747-.92,1.1716-1.7236S550.989,449.9285,551.1387,450.0767Z"/><path fill="#0fa54a" d="M542.1821,453.1476c-.1348.162-.8589-.2181-1.6174-.8491s-1.2639-1.2742-1.129-1.4361.8589.2181,1.6174.8493S542.317,452.9857,542.1821,453.1476Z"/><path fill="#0fa54a" d="M541.8306,458.46c.1559.1422-.3041.9-1.0272,1.6938s-1.4354,1.3219-1.5912,1.18.3038-.9,1.0272-1.6936S541.6748,458.3181,541.8306,458.46Z"/></g><g><path fill="#282727" d="M811.1249,354.68c0,.3513-7.7249.6361-17.2519.6361-9.53,0-17.2533-.2848-17.2533-.6361s7.7232-.6361,17.2533-.6361C803.4,354.0441,811.1249,354.329,811.1249,354.68Z"/><path fill="#282727" d="M811.1249,361.8687c0,.3515-7.7249.6361-17.2519.6361-9.53,0-17.2533-.2846-17.2533-.6361s7.7232-.6359,17.2533-.6359C803.4,361.2328,811.1249,361.5177,811.1249,361.8687Z"/><path fill="#282727" d="M811.1249,369.0574c0,.3513-7.7249.6361-17.2519.6361-9.53,0-17.2533-.2848-17.2533-.6361s7.7232-.6361,17.2533-.6361C803.4,368.4213,811.1249,368.7061,811.1249,369.0574Z"/></g><g><rect width="80.443" height="101.538" x="609.607" y="858.418" fill="#eaeaea" transform="rotate(-179.553 649.829 909.187)"/><polygon fill="#f9fbfc" points="658.992 861.703 657.562 960.018 644.853 959.919 647.576 861.614 658.992 861.703"/><polygon fill="#e0e0e0" points="563.828 860.96 609.98 861.32 690.42 861.948 609.892 872.544 609.212 959.641 563.08 959.28 563.828 860.96"/><polygon fill="#f9fbfc" points="588.952 861.156 587.119 959.468 573.424 959.361 575.662 861.052 588.952 861.156"/><path fill="#e0e0e0" d="M625.473,831.2341c.0191.619-1.3262,1.26-3.7983,1.8663a59.6846,59.6846,0,0,1-10.6631,1.4225,61.6971,61.6971,0,0,1-7.5793-.0831c-1.3749-.1072-2.8024-.25-4.273-.4856a35.1261,35.1261,0,0,1-4.7093-.9991,13.6066,13.6066,0,0,1-2.8908-1.2485,9,9,0,0,1-3.0525-2.8669,8.48,8.48,0,0,1-1.3228-4.4249,14.0777,14.0777,0,0,1,.3847-3.4166,59.1554,59.1554,0,0,1,3.088-10.1858,27.4254,27.4254,0,0,1,2.9412-5.1873,24.76,24.76,0,0,1,1.9872-2.3475,14.7324,14.7324,0,0,1,2.6807-2.168,11.003,11.003,0,0,1,3.6418-1.462,9.6576,9.6576,0,0,1,4.1667.1047,13.93,13.93,0,0,1,5.5056,3.0458,44.42,44.42,0,0,1,10.5678,12.9774,31.7858,31.7858,0,0,1,3.56,10.5671c.309,2.6275-.0041,4.1237-.5867,4.2578-1.3016.3135-3.1908-4.8673-8.3173-11.3813A52.2412,52.2412,0,0,0,606.48,809.326a6.1464,6.1464,0,0,0-2.339-1.208.9807.9807,0,0,0-.4416.0506,2.91,2.91,0,0,0-.7.3684,6.6491,6.6491,0,0,0-1.0174.9092c-.3584.3974-.7766.9251-1.1383,1.4219a20.7357,20.7357,0,0,0-1.9431,3.53,66.0856,66.0856,0,0,0-2.7618,8.63,7.521,7.521,0,0,0-.2487,1.2646l-.009.0953-.0059.0132a2.4276,2.4276,0,0,0-.2477.0572c-.2826.073-.3583.1463-.1683.032a3.0485,3.0485,0,0,0,.2936-.2194.0564.0564,0,0,0,.0181.0406.951.951,0,0,0,.2294.2115,5.3794,5.3794,0,0,0,1.1427.5973,34.0175,34.0175,0,0,0,3.5844,1.0851c1.2453.3317,2.4821.5963,3.6864.8437,2.4125.4854,4.72.8323,6.8536,1.121,4.2712.5677,7.8378.9522,10.3138,1.4315C624.0613,830.0713,625.454,830.6124,625.473,831.2341Z"/><path fill="#eaeaea" d="M623.8119,831.97c-.2223-1.2747,5.7927-3.1615,15.1836-5.9158a131.4112,131.4112,0,0,0,15.8328-5.6776,15.3306,15.3306,0,0,0,3.4271-1.9107c.3725-.299.54-.5717.4907-.5472-.0564.0171-.0972.361-.1106.1861a8.2938,8.2938,0,0,0-.5768-1.4092q-.5727-1.188-1.154-2.3945a40.2968,40.2968,0,0,0-2.446-4.3753,18.069,18.069,0,0,0-2.8651-3.4214,15.0385,15.0385,0,0,0-1.62-1.2935,7.5131,7.5131,0,0,0-1.4679-.7917,3.6808,3.6808,0,0,0-2.3717-.2218,8.06,8.06,0,0,0-2.8407,1.65A62.3337,62.3337,0,0,0,632.3,817.7938c-5.3918,7.6694-6.8145,13.6621-8.1556,13.4665-.587-.078-1.0279-1.7173-.8215-4.6729a34.2279,34.2279,0,0,1,3.4734-11.9752,52.53,52.53,0,0,1,11.0325-14.99,15.9023,15.9023,0,0,1,5.6974-3.6049,12.205,12.205,0,0,1,7.9613.1141,15.82,15.82,0,0,1,3.3526,1.6433,22.8338,22.8338,0,0,1,2.7254,2.071,25.6252,25.6252,0,0,1,4.3917,5.1194,43.8207,43.8207,0,0,1,3,5.4426q.5948,1.3023,1.1806,2.5852a14.4853,14.4853,0,0,1,1.19,3.6882,8.3552,8.3552,0,0,1-.9,5.34,10.1251,10.1251,0,0,1-2.9822,3.2861,22.0008,22.0008,0,0,1-5.499,2.745,82.3362,82.3362,0,0,1-17.6225,4.22C630.2263,833.5067,624.0139,833.139,623.8119,831.97Z"/><rect width="118.243" height="33.608" x="549.315" y="827.7" fill="#e0e0e0" transform="rotate(-179.553 608.436 844.504)"/><rect width="106.881" height="33.608" x="592.793" y="827.995" fill="#eaeaea" transform="rotate(-179.553 646.234 844.8)"/><polygon fill="#f9fbfc" points="667.013 828.157 666.26 861.92 653.796 861.663 654.665 828.06 667.013 828.157"/><polygon fill="#f9fbfc" points="578.449 827.632 577.244 861.092 563.539 860.983 564.274 827.354 578.449 827.632"/><rect width="45.583" height="57.537" x="696.575" y="900.434" fill="#eaeaea" transform="rotate(-179.553 719.367 929.202)"/><polygon fill="#f9fbfc" points="724.559 902.295 723.749 958.006 716.547 957.95 718.09 902.245 724.559 902.295"/><polygon fill="#e0e0e0" points="670.634 901.874 696.786 902.078 742.368 902.434 696.736 908.439 696.351 957.792 670.21 957.588 670.634 901.874"/><polygon fill="#f9fbfc" points="684.871 901.985 683.832 957.694 676.071 957.634 677.34 901.926 684.871 901.985"/><path fill="#e0e0e0" d="M705.5653,885.03c.0108.84-2.99,1.8809-8.2127,2.3109a29.6914,29.6914,0,0,1-9.5563-.7839,6.4837,6.4837,0,0,1-3.6909-2.563,5.4249,5.4249,0,0,1-.85-2.8195,8.6228,8.6228,0,0,1,.2276-2.0877,33.2158,33.2158,0,0,1,1.7728-5.8813,16.0528,16.0528,0,0,1,1.7368-3.0562,10.4329,10.4329,0,0,1,2.8219-2.7125,6.3588,6.3588,0,0,1,4.8945-.8352,8.3543,8.3543,0,0,1,3.3427,1.8551,24.9114,24.9114,0,0,1,6.0054,7.5712c2.4639,4.9827,2.1023,8.5181,1.3086,8.6432-.9065.2108-2.1355-2.6585-5.0891-6.2069a30.6113,30.6113,0,0,0-5.8332-5.3889,2.62,2.62,0,0,0-1.1022-.555l-.0158.01.0092-.126.0186.1561a1.8863,1.8863,0,0,1-.1891.1316,5.288,5.288,0,0,0-1.0448,1.1672,11.3282,11.3282,0,0,0-1.0308,1.8837,38.2331,38.2331,0,0,0-1.5419,4.7811l-.1312.565c.095.0014-.3117.0151-.4072.0356a2.5343,2.5343,0,0,0-.355.0667c-.16.0416-.203.0831-.0952.0181a2.44,2.44,0,0,0,.4482-.3945l.1285-.1454.0015.01a.21.21,0,0,0,.041.0425,2.1777,2.1777,0,0,0,.5245.2927,44.07,44.07,0,0,0,7.8321,1.8326C702.3486,883.56,705.5553,884.1166,705.5653,885.03Z"/><path fill="#e0e0e0" d="M704.6239,885.4472c-.1691-.9717,3.2191-2.271,8.4685-3.9869a84.07,84.07,0,0,0,8.7892-3.3662,7.4871,7.4871,0,0,0,1.73-.9974c.148-.1248.1463-.2081.0239-.0305a1.33,1.33,0,0,0-.1661.6693q-.4507-.9376-.9153-1.9034a22.536,22.536,0,0,0-1.3294-2.37,9.5135,9.5135,0,0,0-1.4677-1.7654,5.3756,5.3756,0,0,0-1.4446-1.0152,1.32,1.32,0,0,0-.7734-.1366,3.46,3.46,0,0,0-1.3184.7355,37.1188,37.1188,0,0,0-6.2258,6.4586c-3.1329,4.1379-4.1735,7.4384-5.1831,7.306-.8753-.03-1.6059-4.051.9412-9.7586a29.2505,29.2505,0,0,1,6.2555-8.8046,9.71,9.71,0,0,1,3.52-2.2423,7.8026,7.8026,0,0,1,5.082.0535,9.862,9.862,0,0,1,2.092,1.0184,13.7094,13.7094,0,0,1,1.6572,1.2529,15.2962,15.2962,0,0,1,2.6444,3.0741,25.1969,25.1969,0,0,1,1.7566,3.1932l.6718,1.4843a9.1469,9.1469,0,0,1,.7367,2.3226,5.6438,5.6438,0,0,1-.6133,3.59,6.5593,6.5593,0,0,1-1.9443,2.1418,12.9177,12.9177,0,0,1-3.3276,1.6406,44.0044,44.0044,0,0,1-10.1684,2.242C708.3223,886.7971,704.7819,886.3586,704.6239,885.4472Z"/><rect width="67.003" height="19.044" x="662.41" y="883.027" fill="#e0e0e0" transform="rotate(-179.553 695.91 892.55)"/><rect width="60.565" height="19.044" x="687.047" y="883.194" fill="#eaeaea" transform="rotate(-179.553 717.33 892.716)"/><polygon fill="#f9fbfc" points="729.104 883.286 728.678 902.418 721.615 902.272 722.107 883.231 729.104 883.286"/><polygon fill="#f9fbfc" points="678.919 882.989 678.236 901.949 670.47 901.887 670.887 882.831 678.919 882.989"/></g></g><g><path fill="#0fa54a" d="M286.4674,1011.7327c7.46,3.2377,12.9476,10.1335,15.7014,17.7859s3.0017,16.0116,2.0859,24.0927c-1.772,15.635-10.6565,31.4178-20.2221,43.9111-13.1658-11.49-16.1949-31.5348-17.0928-41.8-1.4191-16.2244,5.8681-46.4083,19.5276-43.99"/><path fill="#0fa54a" d="M299.3368,1123.3275c-2.1074-8.8371,1.57-18.5307,8.3528-24.5742s16.26-8.6007,25.3183-7.9081c4.1886.32,8.7147,1.5414,11.1128,4.99,2.242,3.224,1.9909,7.7232.1712,11.2034s-4.9677,6.0819-8.294,8.169c-11.408,7.1585-23.7618,11.9913-36.6611,8.12"/><path fill="#282727" d="M282.4526,1171.2677a18.2441,18.2441,0,0,1,.4693-3.2091c.414-2.2586.9492-5.1766,1.5919-8.6822,1.455-7.2552,3.3235-17.6494,8.9613-27.7382,5.5623-10.0639,13.3492-17.4756,19.9057-21.1535a37.6882,37.6882,0,0,1,8.1168-3.59,22.8762,22.8762,0,0,1,2.3372-.5939,2.3652,2.3652,0,0,1,.8352-.116c.0931.2548-4.5609,1.0926-10.8734,4.9911-6.3293,3.7869-13.8539,11.1236-19.3256,21.0173-5.5281,9.88-7.5131,20.1285-9.1674,27.3456-.7968,3.6378-1.4444,6.5868-1.9476,8.6119A17.1514,17.1514,0,0,1,282.4526,1171.2677Z"/><path fill="#282727" d="M282.9485,1035.2086a6.5771,6.5771,0,0,1,.1607,1.4022c.0618,1.0411.1412,2.3769.2392,4.03.1873,3.5008.393,8.5684.5946,14.8325.4055,12.5278.7233,29.8441.6436,48.97-.0859,19.1326-.554,36.4473-1.0682,48.9711-.2555,6.2622-.5051,11.3274-.7228,14.826-.1126,1.6515-.2033,2.9868-.2739,4.0269-.0752.92.0394.0017,0,0,.1732-1.4-.2306.9134-.23-.01.0154-1.0424.0354-2.38.06-4.0353.0882-3.6454.2109-8.6774.36-14.8338.3078-12.5252.6478-29.83.7338-48.95.0791-19.1129-.11-36.4185-.31-48.946-.0962-6.1573-.1748-11.19-.232-14.8369-.01-1.6557-.0186-2.9939-.025-4.0367A6.5909,6.5909,0,0,1,282.9485,1035.2086Z"/><path fill="#0fa54a" d="M276.5578,1132.8457a60.4707,60.4707,0,0,0-33.0187-44.2948c-4.3988-2.1067-10.1445-3.4842-13.7609-.2118-3.6224,3.2782-2.8109,9.161-1.0387,13.7139,7.3739,18.9433,27.18,32.317,47.5066,32.0779"/><path fill="#282727" d="M245.6726,1103.3807a15.5647,15.5647,0,0,1,2.7939,1.2182,29.3474,29.3474,0,0,1,3.1568,1.6827c1.1826.7389,2.6124,1.46,4.0187,2.5205a53.1,53.1,0,0,1,4.5981,3.4607,59.5618,59.5618,0,0,1,4.8934,4.4464,67.2122,67.2122,0,0,1,9.2982,11.9463,65.8616,65.8616,0,0,1,6.1255,13.85,57.4821,57.4821,0,0,1,1.5473,6.4317,48.9468,48.9468,0,0,1,.79,5.7032,44.8515,44.8515,0,0,1,.2191,4.74,27.2243,27.2243,0,0,1-.1063,3.5762,15.5034,15.5034,0,0,1-.3383,3.0289c-.2575-.01.1906-4.3487-.5765-11.2626a52.3171,52.3171,0,0,0-.9153-5.6028,60.37,60.37,0,0,0-1.623-6.3037,68.4847,68.4847,0,0,0-6.1-13.5745,69.9579,69.9579,0,0,0-9.0724-11.7993,62.7261,62.7261,0,0,0-4.75-4.4559c-1.51-1.38-3.0642-2.48-4.4539-3.5252C249.5215,1105.4073,245.5573,1103.6018,245.6726,1103.3807Z"/></g><g><path fill="#282727" d="M1036.4718,209.4969s-8.44,3.7406-5.622,11.0048c0,0-11.933,16.029-.1434,19.264l12.8823-27.1445Z"/><polygon fill="#fbbf9e" points="919.692 1154.602 896.394 1147.042 910.876 1092.108 934.174 1099.668 919.692 1154.602"/><path fill="#ffc829" d="M896.0482,1143.9481l26.1738,8.4936a1.7528,1.7528,0,0,1,1.2112,2.1519l-5.4517,21.12a4.34,4.34,0,0,1-5.4225,2.8194c-9.0611-3.1139-13.24-5.0625-24.7506-8.7979-7.0814-2.2978-37.4258-11.332-47.2048-14.5055-9.5641-3.1037-6.3618-12.7521-1.9333-12.2832,19.857,2.1039,44.6459,4.1626,52.9006,1.1315A6.9011,6.9011,0,0,1,896.0482,1143.9481Z"/><polygon fill="#010101" points="934.176 1099.685 910.868 1092.121 903.415 1120.441 926.722 1128.005 934.176 1099.685" opacity=".2"/><path fill="#282727" d="M990.96,543.5323s-33.0886,199.3821-42.8915,268.9334c-10.7353,76.1642-52.9065,298.9133-52.9065,298.9133l43.2421,11.9455s61.767-215.856,79.27-289.8961c18.9974-80.358,60.82-289.8961,60.82-289.8961Z"/><path fill="#010101" d="M1044.0556,625.3039c-16.9161,42.2568-18.8323,114.0844-11.96,143.5222,10.3746-48.3353,22.2682-106.1532,31.42-151.12C1060.2448,606.176,1054.3307,599.6007,1044.0556,625.3039Z" opacity=".5"/><polygon fill="#282727" points="939.498 1124.178 893.181 1111.418 894.078 1092.554 946.224 1110.584 939.498 1124.178"/><path fill="#ffc829" d="M882.4994,1142.677a3.1342,3.1342,0,0,1,.2761-3.1664,2.1419,2.1419,0,0,1,1.7634-1.1274c3.2075-.1939,8.34,6.4545,8.9159,7.2131a.5729.5729,0,0,1,.0445.62.5667.5667,0,0,1-.5476.2921,30.5981,30.5981,0,0,1-6.4788-1.1816C884.6684,1144.7412,883.1268,1143.8952,882.4994,1142.677Zm2.106-3.1546a1.0091,1.0091,0,0,0-.8478.5678,2.0521,2.0521,0,0,0-.2444,2.0646c.7371,1.4347,3.7639,2.56,8.2011,3.0822C889.57,1142.64,886.3312,1139.4193,884.6054,1139.5224Z"/><path fill="#ffc829" d="M892.5715,1146.317c-1.8717-2.1353-3.7677-8.1253-2.4061-10.492a2.1877,2.1877,0,0,1,2.5022-1.0044,2.8516,2.8516,0,0,1,2.0558,1.5047c1.6155,3.0279-1.082,9.5589-1.1973,9.8353a.57.57,0,0,1-.4334.3426.5841.5841,0,0,1-.2681-.0205A.5694.5694,0,0,1,892.5715,1146.317Zm-.1247-10.3775c-.8212-.1615-1.1231.1578-1.2919.4537-.8941,1.5521.2193,5.9976,1.69,8.3658.7823-2.192,1.8375-6.091.8718-7.8972a1.6952,1.6952,0,0,0-1.0118-.8558A2.1973,2.1973,0,0,0,892.4468,1135.94Z"/><path fill="#fbbf9e" d="M982.3931,342.1661c-6.4649,13.915-13.5659,28.3641-20.9488,41.95-3.6608,6.8495-7.5344,13.5135-11.5274,19.8454A123.9434,123.9434,0,0,1,937.4722,420.9a32.2407,32.2407,0,0,1-5.1771,4.76c-.2482.19-.3714.2455-.2754.2462.1929.0606-.2712.1281-.4456.2653a20.3728,20.3728,0,0,1-3.3252.4916c-5.7254.4188-13.3531-.54-20.7632-1.6875-15.0058-2.5116-30.7737-6.257-46.1864-9.9517l-6.9624,16.7142a251.9567,251.9567,0,0,0,46.224,21.0135c8.3578,2.6839,16.7626,5.0789,27.3141,5.8452a48.0031,48.0031,0,0,0,8.8305-.2371,36.16,36.16,0,0,0,5.4706-1.166,30.6594,30.6594,0,0,0,5.3431-2.09A58.8528,58.8528,0,0,0,961.54,444.9853a146.7365,146.7365,0,0,0,17.81-21.2179c5.0736-7.1622,9.5707-14.449,13.8861-21.762,4.2186-7.3645,8.28-14.737,11.9824-22.2683,3.7448-7.5762,7.3234-14.9208,10.6925-22.98Z"/><path fill="#ffc829" d="M942.6228,401.7432,981.33,430.632s1.4891-1.6315,3.9436-4.4637c1.7857-2.091,4.095-4.8439,6.7705-8.08,15.0371-18.3219,37.0276-51.768,37.2065-68.149.2667-24.4164-25.0852-28.0152-53.538-3.0359-12.2738,10.7747-18.6816,28.6611-24.9285,39.7466-2.066,3.6535-3.8026,6.8506-5.1419,9.3365C943.7167,399.59,942.6228,401.7432,942.6228,401.7432Z"/><polygon fill="#fbbf9e" points="1153.638 1165.32 1129.144 1165.32 1121 1108.598 1145.494 1108.598 1153.638 1165.32"/><path fill="#ffc829" d="M1127.6118,1162.4842H1155.13a1.95,1.95,0,0,1,1.9626,1.6729l3.2388,21.7717a3.9134,3.9134,0,0,1-3.9062,4.3555c-9.5948-.1651-14.22-.7284-26.3219-.7284-7.4445,0-39.0283.7736-49.3093.7736-10.055,0-10.8767-10.1661-6.6-11.0869,19.1756-4.1281,42.8911-9.8211,49.332-15.2527A6.3665,6.3665,0,0,1,1127.6118,1162.4842Z"/><polygon fill="#010101" points="1145.501 1108.614 1120.998 1108.614 1125.208 1137.851 1149.712 1137.851 1145.501 1108.614" opacity=".2"/><path fill="#282727" d="M1034.8215,542.2807s14.0445,187.1852,24.1525,257.3114c11.0688,76.794,55.111,331.201,55.111,331.201h44.862s-23.054-248.2068-27.0035-324.2394c-4.2864-82.5211-12.5871-264.273-12.5871-264.273Z"/><polygon fill="#282727" points="1160.755 1130.793 1112.277 1130.793 1108.098 1113.769 1161.835 1116.43 1160.755 1130.793"/><path fill="#ffc829" d="M1114.5926,1165.4574a3.3394,3.3394,0,0,1-.986-3.0975,1.9072,1.9072,0,0,1,1.1883-1.6161c2.8879-1.1747,10.2364,3.565,11.0664,4.1085a.6258.6258,0,0,1,.2841.5762.5056.5056,0,0,1-.3913.4467,29.5431,29.5431,0,0,1-6.4506.8759A7.07,7.07,0,0,1,1114.5926,1165.4574Zm.71-3.6507a.9015.9015,0,0,0-.5605.8018,2.1731,2.1731,0,0,0,.5835,2.0391c1.2433,1.1371,4.4818,1.2729,8.7867.4C1121.1128,1163.2393,1116.8573,1161.1758,1115.3021,1161.8067Z"/><path fill="#ffc829" d="M1125.3272,1165.81c-2.5666-1.4532-6.6661-6.5654-6.335-9.2372a1.9592,1.9592,0,0,1,1.9183-1.7279,3.0642,3.0642,0,0,1,2.49.7973c2.68,2.381,2.7462,9.4259,2.748,9.7246a.5123.5123,0,0,1-.2664.46.5417.5417,0,0,1-.2559.063A.604.604,0,0,1,1125.3272,1165.81Zm-4.182-9.8322c-.822.1-.9759.4965-1.0159.8307-.218,1.7519,2.553,5.6366,4.84,7.4352-.1358-2.326-.689-6.3608-2.2894-7.78a1.8457,1.8457,0,0,0-1.27-.5017A2.1836,2.1836,0,0,0,1121.1452,1155.9782Z"/><path fill="#010101" d="M1029.508,352.7576c-8.7477-5.7831-15.1356,9.184-32.4176,21.8262-7.7092,5.6393-24.5957,42.4-23.2076,50.492l7.4578,5.5614S1029.7009,377.0932,1029.508,352.7576Z" opacity=".3"/><path fill="#fbbf9e" d="M865.3539,415.8964,843.4251,398.127l-9.3424,25.4594s23.2347,13.3788,28.777,7.0807Z"/><polygon fill="#fbbf9e" points="818.52 402.298 816.622 421.684 834.083 423.586 843.425 398.127 818.52 402.298"/><path fill="#ffc829" d="M990.96,543.5323H1121.96c.9251-11.6959-1.7843-49.7567.2309-98.2246,1.3553-32.5433,4.857-69.7784,13.0174-106.847.595-2.6442,1.19-5.2543,1.817-7.8968,0,0-6.64-1.355-16.1553-2.7424-7.8965-1.1569-17.8084-2.3455-27.5219-2.8089-16.7177-.7921-40.9349-1.3209-55.67,0-8.5572.7941-16.9161,2.2149-23.59,3.5024-8.5238,1.7181-13.547,3.188-13.547,3.188S968.2629,405.7936,990.96,543.5323Z"/><path fill="#010101" d="M1122.19,445.3185c1.3553-32.5437,4.8571-69.7784,13.0178-106.847-8.7554-.76-23.7222.0985-26.2,14.24C1106.3313,367.9079,1109.7014,403.657,1122.19,445.3185Z" opacity=".3"/><path fill="#fbbf9e" d="M1112.0835,363.2472l19.9227,49.6655,9.6125,24.72c2.9691,8.1214,6.0266,16.5332,7.9762,23.7344,1.7885,6.8109,2.7873,15.7355,3.7375,24.3506.8484,8.7191,1.7731,17.5765,2.4461,26.4885,1.49,17.8057,2.9871,35.8191,4.7175,53.7477l18.1022.368c2.3528-18.1879,3.9293-36.302,4.8025-54.6128.3756-9.1467.7172-18.3439.6245-27.6608-.135-9.39-.09-18.5859-2.0015-29.4713a252.7021,252.7021,0,0,0-7.3175-28.2147c-2.749-8.8828-5.7135-17.5985-8.7916-26.24-6.1894-17.2824-12.82-34.1595-20.1232-51.024Z"/><path fill="#ffc829" d="M1104.5149,375.1666c5.5176,16.3872,14.57,36.0119,21.244,49.7229,1.7512,3.6344,3.37,6.8722,4.6914,9.4823,2.3128,4.5929,3.7667,7.3677,3.7667,7.3677l49.6244-27.4878s-.6277-2.0813-1.7512-5.5834c-.8589-2.6438-1.9824-6.1125-3.37-10.11-8.26-23.5564-25.1433-65.5824-41.6956-67.9944C1112.2788,326.9629,1094.4711,345.4638,1104.5149,375.1666Z"/><path fill="#fbbf9e" d="M1060.2169,340.1419c31.1646-.5563,35.2784-14.9963,35.2784-14.9963-12.1258-11.9588-7.4668-44.6347-3.337-62.5758l-14.9007,12.3574-20.2858,16.8485a65.9137,65.9137,0,0,1,1.2888,8.1952c1.09,11.001-1.7512,21.0125-17.94,24.8436,0,0-19.2035,12.7191,9.2988,15.0207Z"/><path fill="#010101" d="M1056.9718,291.7754a65.9079,65.9079,0,0,1,1.2888,8.1952c7.5658-1.5211,17.6754-9.5823,18.7331-17.313a35.2457,35.2457,0,0,0,.2643-7.7308Z" opacity=".2"/><path fill="#fbbf9e" d="M1098.3018,236.7674c-5.18,23.8186-6.9986,37.98-21.0668,48.8485-21.1611,16.3489-49.2066,1.8246-51.2618-22.81-1.85-22.1735,6.9317-57.3994,31.988-64.1442C1082.6474,192.0168,1103.4816,212.9492,1098.3018,236.7674Z"/><path fill="#fbbf9e" d="M1103.79,261.6232a26.16,26.16,0,0,1-15.1155,8.99c-7.5114,1.2819-9.202-5.677-5.3852-12.3988,3.4356-6.05,11.4839-14.008,18.1914-12.2327C1108.0891,247.7305,1108.659,255.7714,1103.79,261.6232Z"/><path fill="#fbbf9e" d="M1177.8232,559.8238l10.916,22.2188-30.6037-4.1s-6.1174-21.4038,5.1816-23.6414Z"/><polygon fill="#fbbf9e" points="1180.224 603.484 1155.119 598.883 1158.135 577.943 1188.739 582.043 1180.224 603.484"/><path fill="#282727" d="M1086.8634,172.8507s10.7132-12.9378,20.1436,11.4148c0,0,20.7831-14.7558,20.7618,5.7846,0,0,17.892,4.6419,4.4411,18.2781,0,0,15.4817,9.453,0,20.6834,0,0,6.7037,17.0951-8.809,18.5566,0,0-.0348,22.1384-13.3461,9.7779,0,0-3.1912,25.59-17.6977,11.3512l-1.7408-13.9139s-11.292-7.8422-3.1915-33.3995c0,0-35.4191,6.717-29.0246-4.04,0,0-31.3,2.6282-27.5393-9.8667,0,0-15.4848-7.853-8.4733-14.2357,0,0-9.2411-35.426,11.9409-23.9509,0,0,8.4167-22.7236,18.2809-2.2877,0,0,8.0164-9.1231,9.8077,3.3527,0,0,8.0535-11.8779,18.9013-5.8621Z"/></g></svg>