<svg xmlns="http://www.w3.org/2000/svg" enable-background="new 0 0 600 500" viewBox="18.177 58.675 563.646 382.649"><path fill="#f5f5f5" d="m391.149 87.771-7.862-5.893c-2.373-1.779-5.482-3.754-9.513-3.583-2.714.114-4.938 1.213-6.583 2.39-1.646 1.178-2.982 2.511-5.06 3.465-2.08.955-5.25 1.435-7.524.623-2.756-.985-2.7-3.135-3.817-4.821-1.744-2.632-7.305-4.333-12.353-3.779-3.633.4-6.632 1.772-9.174 3.237s-4.84 3.09-7.874 4.245c-3.034 1.156-7.085 1.781-10.483.977-3.231-.765-5.107-2.596-7.873-3.783-3.448-1.479-8.383-1.859-12.452-.958-3.31.732-8.4 4.176-7.108 7.88H391.15zM549.328 371.855H43.798c20.536-8.58 25.118-18.68 38.3-36.321 21.119-28.27 53.998 28.692 94.46-13.445 11.829-12.327 64.94-42.005 95.686-9.494 12.994 13.744 22.719-14.623 50.968 3.96 45.083 26.132 47.703-11.205 93.245-5.324 8.566 1.107 47.718 22.595 73.958 22.109 12.79-.237 24.962.522 31.168 3.557 16.894 8.254 16.617 20.431 27.745 34.958zM553.971 135.436H440.134s10.957-19.971 20.249-11.304c9.292 8.66 16.746 8.412 23.054 2.132 6.308-6.28 15.32-11.645 23.845-4.313 8.525 7.325 18.867 5.947 24.153.796 5.294-5.15 20.089 3.012 22.536 12.689zM178.033 110.372H80.041S90.507 91.5 98.057 99.69c7.55 8.185 13.98 7.95 19.735 2.014 5.755-5.935 13.79-11.004 20.749-4.075 6.96 6.922 15.933 5.62 20.75.752 4.823-4.868 17.137 2.847 18.742 11.991z"/><path fill="#f5f5f5" d="M164.555 300.247c0 9.447 2.955 13.694 6.596 13.694 3.644 0 6.597-4.247 6.597-13.694 0-9.45-2.953-20.52-6.597-20.52-3.641 0-6.596 11.07-6.596 20.52z"/><path fill="#f5f5f5" d="M170.771 312.308v17.234a.381.381 0 0 0 .76 0v-17.234h-.76zM176.685 292.257c0 9.447 2.955 13.694 6.596 13.694 3.644 0 6.597-4.247 6.597-13.694 0-9.45-2.953-20.52-6.597-20.52-3.641 0-6.596 11.07-6.596 20.52z"/><path fill="#f5f5f5" d="M182.901 304.318v17.234a.381.381 0 0 0 .76 0v-17.234h-.76zM436.543 303.409c0 9.447 2.955 13.694 6.597 13.694 3.643 0 6.597-4.247 6.597-13.694 0-9.45-2.954-20.521-6.597-20.521-3.642 0-6.597 11.07-6.597 20.52z"/><path fill="#f5f5f5" d="M442.76 315.469v17.234a.381.381 0 0 0 .76 0v-17.234h-.76z"/><ellipse cx="301.6" cy="409.159" fill="#f5f5f5" rx="106.388" ry="6.439"/><path fill="#34b75c" d="m197.077 121.167 17.01 268.212c.727 11.47 10.118 20.263 21.62 20.263h10.082c-11.504 0-20.894-8.794-21.62-20.263l-17-268.212c-.827-12.948 9.648-24.09 22.653-24.09H219.73c-13.005 0-23.47 11.142-22.653 24.09z"/><path fill="#46c671" d="m201.321 121.167 17 268.212c.726 11.47 10.117 20.263 21.62 20.263h5.848c-11.504 0-20.894-8.794-21.62-20.263l-17-268.212c-.827-12.948 9.648-24.09 22.653-24.09h-5.847c-13.005 0-23.481 11.142-22.654 24.09z"/><path fill="#fff" d="m207.167 121.176 17.002 268.207c.733 11.461 10.117 20.255 21.627 20.255h116.23c13.011 0 23.477-11.128 22.66-24.089l-17.01-268.207c-.724-11.461-10.118-20.256-21.618-20.256h-116.24c-13.001 0-23.476 11.128-22.65 24.09z"/><path fill="#fff" d="M375.126 399.246c-3.438 3.65-8.035 5.65-12.99 5.65H245.9c-9.107 0-16.408-6.828-16.987-15.916l-15.983-251.983h151.235l15.79 248.97c.31 4.925-1.4 9.638-4.828 13.279z"/><path fill="#fff" d="M327.193 205.673c-3.772 16.608-15.502 28.703-32.988 37.54-18.8-8.837-32.307-20.932-38.537-37.54-1.945-5.134-2.873-10.555-3.268-15.936l-1.669-22.581c13.409-2.064 25.306-6.606 36.997-11.542 12.43 4.936 25 9.478 38.714 11.542l1.669 22.581c.395 5.381.276 10.802-.918 15.936z"/><path fill="#46c671" d="M294.12 237.69c-17.488-8.663-28.567-19.722-33.83-33.75-1.585-4.187-2.554-8.945-2.966-14.564l-1.34-18.13c11.919-2.346 22.542-6.431 31.8-10.301 10.02 3.943 21.493 8.117 34.02 10.437l1.383 18.72c.414 5.625.151 10.353-.803 14.452-3.124 13.757-12.378 24.608-28.264 33.136z"/><path fill="#f5f5f5" d="m212.923 136.996-1.03-16.232c-.3-4.824 1.338-9.461 4.638-13.08 3.481-3.823 8.51-5.862 13.627-5.862h32.705c1.088 0 2.022.735 2.272 1.784l1.93 8.089a2.332 2.332 0 0 0 2.282 1.794h35.991c1.255 0 2.317-.97 2.444-2.226l.698-7.225a2.466 2.466 0 0 1 2.444-2.216h35.023c9.109 0 16.41 6.853 17.002 15.932l1.22 19.242H212.923z"/><path fill="#fff" d="m204.485 137.124 1.354 21.337a2.08 2.08 0 0 1-2.138 2.198 1.967 1.967 0 0 1-1.904-1.848l-1.354-21.337a2.08 2.08 0 0 1 2.139-2.198 1.967 1.967 0 0 1 1.903 1.848zM206.718 169.794l.31 5.053a2.08 2.08 0 0 1-2.138 2.198 1.967 1.967 0 0 1-1.904-1.848l-.31-5.053a2.08 2.08 0 0 1 2.138-2.198 1.967 1.967 0 0 1 1.904 1.848z"/><path fill="#e1e5e2" d="M232.68 111.504c.264 2.536-1.581 4.596-4.122 4.596-2.54 0-4.815-2.06-5.079-4.596-.264-2.54 1.581-4.6 4.122-4.6 2.54 0 4.815 2.06 5.08 4.6z"/><path fill="#fff" d="M304.131 105.013c.124 1.188-.739 2.15-1.926 2.15h-18.316c-1.188 0-2.25-.962-2.375-2.15-.123-1.188.74-2.15 1.927-2.15h18.316c1.188 0 2.25.962 2.374 2.15zM277.22 105.013c.124 1.188-.739 2.15-1.927 2.15h-1.856c-1.188 0-2.251-.962-2.375-2.15-.124-1.188.74-2.15 1.927-2.15h1.856c1.188 0 2.251.962 2.375 2.15zM337.507 385.412c.124 2.594-1.945 4.701-4.62 4.701-2.676 0-4.946-2.107-5.07-4.7-.124-2.6 1.945-4.707 4.62-4.707 2.676 0 4.946 2.107 5.07 4.706z"/><path fill="#e1e5e2" d="M313.458 385.412c.124 2.594-1.944 4.701-4.62 4.701-2.675 0-4.945-2.107-5.069-4.7-.124-2.6 1.944-4.707 4.62-4.707 2.675 0 4.945 2.107 5.07 4.706z"/><path fill="#fff" d="M289.41 385.412c.124 2.594-1.945 4.701-4.62 4.701-2.676 0-4.946-2.107-5.07-4.7-.124-2.6 1.945-4.707 4.62-4.707 2.676 0 4.946 2.107 5.07 4.706zM358.965 266.608l.869 13.503c.097 1.416-.975 2.55-2.38 2.55H236.82c-1.416 0-2.625-1.134-2.721-2.55l-.87-13.503c-.084-1.406.986-2.55 2.392-2.55h120.633c1.406 0 2.626 1.144 2.711 2.55z"/><path fill="#67db8a" d="M238.254 256.36a.494.494 0 0 1-.157-.34l-.415-6.452a.454.454 0 0 1 .113-.345.416.416 0 0 1 .327-.143h4.2a.46.46 0 0 1 .327.133.474.474 0 0 1 .152.324.402.402 0 0 1-.11.318.415.415 0 0 1-.312.128h-3.718l.152 2.349h3.34c.126 0 .235.045.329.133.093.088.143.196.151.324s-.028.234-.11.32-.186.126-.311.126h-3.341l.152 2.36h3.718c.125 0 .234.044.327.133s.144.197.152.324c.009.127-.028.234-.11.319s-.186.128-.311.128h-4.2a.482.482 0 0 1-.345-.139zM244.678 256.414a.497.497 0 0 1-.158-.341l-.293-4.56a.455.455 0 0 1 .113-.344.414.414 0 0 1 .327-.145c.132 0 .25.048.35.145.1.094.154.21.163.344l.028.436c.177-.282.398-.517.662-.701s.615-.277 1.055-.277c.391 0 .733.107 1.027.32.293.212.508.47.646.775.386-.73 1.005-1.095 1.857-1.095.39 0 .724.1.999.298.274.199.484.453.63.766.146.311.23.637.251.977l.197 3.061a.44.44 0 0 1-.451.479c-.132 0-.247-.046-.344-.138s-.15-.206-.158-.341l-.185-2.87c-.03-.46-.131-.798-.306-1.015-.174-.216-.457-.323-.848-.323-.356 0-.645.093-.867.281a2.455 2.455 0 0 0-.575.739l.205 3.188a.442.442 0 0 1-.451.479c-.133 0-.248-.046-.344-.138s-.15-.206-.158-.341l-.185-2.87c-.03-.46-.132-.798-.306-1.015-.175-.216-.457-.323-.848-.323-.356 0-.645.093-.867.281a2.456 2.456 0 0 0-.576.739l.205 3.188a.445.445 0 0 1-.45.479.485.485 0 0 1-.345-.138zM254.665 256.414a1.639 1.639 0 0 1-.944-1.404c-.034-.524.143-.942.532-1.253.388-.313.977-.468 1.766-.468h1.267l-.005-.085c-.03-.468-.165-.805-.405-1.01-.241-.206-.602-.309-1.083-.309-.266 0-.5.022-.704.064a5.532 5.532 0 0 0-.673.192.58.58 0 0 1-.135.02.39.39 0 0 1-.28-.116.419.419 0 0 1-.133-.287.38.38 0 0 1 .246-.404 4.376 4.376 0 0 1 1.787-.383c.482 0 .895.1 1.24.298s.605.455.782.77.278.658.302 1.026l.194 3.008a.443.443 0 0 1-.45.479.485.485 0 0 1-.346-.138.497.497 0 0 1-.158-.341l-.018-.276c-.482.539-1.12.808-1.916.808a2.01 2.01 0 0 1-.866-.191zm2.042-.888c.277-.152.505-.342.687-.568l-.058-.894h-1.142c-1.054 0-1.563.28-1.526.84.016.256.114.461.295.616.181.157.471.235.87.235.306 0 .598-.077.874-.229zM259.691 249.813a.564.564 0 0 1-.182-.383l-.002-.043a.49.49 0 0 1 .132-.381.478.478 0 0 1 .367-.16h.063c.146 0 .275.053.387.16a.562.562 0 0 1 .182.381l.002.043a.496.496 0 0 1-.132.383.478.478 0 0 1-.366.16h-.063a.543.543 0 0 1-.388-.16zm.487 6.6a.497.497 0 0 1-.157-.34l-.294-4.56a.455.455 0 0 1 .114-.344.414.414 0 0 1 .326-.145c.14 0 .258.047.355.139a.513.513 0 0 1 .158.35l.294 4.56a.44.44 0 0 1-.45.479.484.484 0 0 1-.346-.138zM262.786 256.414a.497.497 0 0 1-.158-.341l-.443-6.897a.457.457 0 0 1 .113-.346.416.416 0 0 1 .327-.144c.14 0 .257.046.355.139a.513.513 0 0 1 .158.35l.444 6.898a.443.443 0 0 1-.45.479.485.485 0 0 1-.346-.138z"/><path fill="#fff" d="m361.987 313.541.95 14.7c.087 1.417-.985 2.551-2.39 2.551H239.913c-1.406 0-2.625-1.134-2.721-2.55l-.94-14.7c-.097-1.417.975-2.551 2.38-2.551h120.645c1.405 0 2.624 1.134 2.71 2.55z"/><path fill="#67db8a" d="M241.226 303.69a.48.48 0 0 1-.152-.328l-.403-6.26a.44.44 0 0 1 .11-.332.4.4 0 0 1 .314-.137h2.297c.639 0 1.167.109 1.584.327.417.218.723.498.92.839s.308.709.334 1.104c.025.396-.039.764-.192 1.105s-.423.62-.812.838-.903.328-1.541.328h-1.834l.14 2.188a.415.415 0 0 1-.115.327.42.42 0 0 1-.318.133.464.464 0 0 1-.332-.133zm2.311-3.396c.686 0 1.159-.133 1.42-.399s.381-.596.356-.992c-.026-.395-.187-.726-.483-.992s-.786-.399-1.472-.399h-1.743l.179 2.782h1.743zM247.913 303.69a1.581 1.581 0 0 1-.908-1.35c-.033-.505.138-.908.512-1.207.374-.3.94-.45 1.699-.45h1.22l-.006-.082c-.029-.45-.159-.774-.39-.971-.231-.199-.578-.297-1.042-.297-.255 0-.48.02-.676.061s-.412.102-.648.184a.548.548 0 0 1-.13.02c-.101 0-.19-.037-.27-.112s-.121-.167-.128-.276a.366.366 0 0 1 .237-.389 4.212 4.212 0 0 1 1.72-.368c.463 0 .86.096 1.192.287.332.19.583.437.753.74.171.304.268.633.29.988l.187 2.894a.422.422 0 0 1-.434.46.463.463 0 0 1-.331-.133.48.48 0 0 1-.153-.327l-.017-.266c-.463.518-1.078.778-1.844.778-.296 0-.574-.062-.833-.185zm1.965-.854c.266-.147.486-.33.66-.547l-.055-.86h-1.098c-1.015 0-1.505.27-1.47.808.016.245.111.443.285.593.175.15.453.225.836.225.296 0 .576-.073.842-.22zM252.899 303.413a.42.42 0 0 1-.194-.337.39.39 0 0 1 .093-.287.34.34 0 0 1 .274-.122c.06 0 .121.013.184.04.22.095.44.17.66.225s.461.082.73.082c.746 0 1.103-.242 1.072-.725-.01-.157-.104-.277-.28-.359s-.463-.173-.86-.276a7.741 7.741 0 0 1-1-.297 1.873 1.873 0 0 1-.696-.465c-.198-.208-.308-.482-.33-.823-.03-.477.114-.866.434-1.166.32-.3.795-.45 1.427-.45.517 0 1.01.085 1.478.256a.443.443 0 0 1 .317.389.38.38 0 0 1-.377.409.573.573 0 0 1-.132-.02 3.914 3.914 0 0 0-1.16-.185c-.364 0-.643.066-.84.199-.196.134-.287.305-.274.516a.51.51 0 0 0 .312.45c.194.096.492.188.894.277.403.102.732.203.987.302.255.098.478.254.67.465.191.211.298.495.321.85.028.435-.118.797-.439 1.083-.32.286-.79.43-1.408.43a3.862 3.862 0 0 1-1.863-.461zM257.736 303.413a.42.42 0 0 1-.193-.337.39.39 0 0 1 .092-.287.34.34 0 0 1 .274-.122c.06 0 .122.013.184.04.221.095.44.17.66.225s.461.082.73.082c.746 0 1.103-.242 1.073-.725-.01-.157-.104-.277-.28-.359s-.464-.173-.86-.276a7.718 7.718 0 0 1-1.001-.297 1.87 1.87 0 0 1-.695-.465c-.199-.208-.309-.482-.33-.823-.032-.477.113-.866.434-1.166.32-.3.795-.45 1.427-.45.517 0 1.01.085 1.477.256a.435.435 0 0 1 .317.389.38.38 0 0 1-.376.409.573.573 0 0 1-.133-.02 3.914 3.914 0 0 0-1.16-.185c-.363 0-.643.066-.84.199-.196.134-.286.305-.273.516a.51.51 0 0 0 .311.45c.194.096.492.188.894.277.404.102.732.203.988.302.254.098.477.254.67.465.19.211.298.495.32.85.029.435-.118.797-.438 1.083-.32.286-.791.43-1.409.43a3.862 3.862 0 0 1-1.863-.461zM263.89 303.7a.687.687 0 0 1-.24-.308l-1.705-4.254a.582.582 0 0 1-.041-.173.42.42 0 0 1 .424-.46c.093 0 .18.024.261.076a.41.41 0 0 1 .17.199l1.431 3.938.923-3.845a.47.47 0 0 1 .47-.368c.114 0 .219.033.314.101a.565.565 0 0 1 .203.267l1.416 3.845.926-3.938a.346.346 0 0 1 .144-.2.427.427 0 0 1 .251-.075c.128 0 .238.044.332.132a.48.48 0 0 1 .152.328.549.549 0 0 1-.02.173l-1.157 4.254a.57.57 0 0 1-.557.43.623.623 0 0 1-.37-.122.758.758 0 0 1-.253-.317l-1.285-3.386-.85 3.386a.628.628 0 0 1-.213.317.553.553 0 0 1-.354.122.623.623 0 0 1-.371-.122zM271.53 303.536a2.493 2.493 0 0 1-.964-.956 3.204 3.204 0 0 1-.409-1.417c-.034-.531.041-1.003.227-1.416.184-.412.465-.732.84-.956.375-.226.821-.338 1.339-.338.51 0 .967.112 1.372.338.403.224.727.544.968.956.242.413.38.885.414 1.416.034.532-.043 1.004-.231 1.417s-.471.731-.846.956c-.375.224-.818.338-1.329.338-.517 0-.977-.114-1.382-.338zm2.105-.706c.244-.13.439-.333.586-.613.146-.28.206-.634.178-1.064-.027-.423-.132-.773-.314-1.054a1.666 1.666 0 0 0-.665-.608 1.822 1.822 0 0 0-.803-.19c-.282 0-.545.064-.789.19s-.437.33-.58.608c-.143.28-.202.631-.174 1.054.028.43.13.784.31 1.064.179.28.399.484.659.613.26.13.532.194.814.194.275 0 .535-.064.778-.194zM276.89 303.69a.48.48 0 0 1-.152-.328l-.282-4.388a.439.439 0 0 1 .11-.332c.08-.092.186-.137.313-.137s.24.045.336.137c.097.092.15.203.158.332l.028.44c.43-.64.936-.961 1.52-.961h.05a.45.45 0 0 1 .327.133.49.49 0 0 1 .147.327.393.393 0 0 1-.11.317.44.44 0 0 1-.325.123h-.051c-.322 0-.613.08-.871.24s-.47.38-.633.66l.2 3.11c.009.128-.03.237-.115.326s-.191.133-.319.133-.238-.044-.33-.133zM281.4 303.552a2.664 2.664 0 0 1-.967-.942c-.258-.412-.405-.894-.44-1.447-.036-.552.049-1.034.254-1.447a2.208 2.208 0 0 1 2.01-1.263c.658 0 1.25.26 1.773.777l-.161-2.506a.424.424 0 0 1 .433-.47c.128 0 .238.047.331.138s.144.203.153.332l.426 6.638c.009.129-.028.238-.11.327s-.185.133-.313.133-.24-.044-.336-.133-.15-.198-.158-.327l-.017-.266c-.457.518-1.015.778-1.673.778-.416 0-.818-.108-1.205-.322zm2.139-.757c.263-.14.49-.326.684-.558l-.138-2.147c-.223-.232-.475-.418-.756-.558s-.576-.21-.886-.21c-.497 0-.886.16-1.168.48-.282.322-.403.775-.366 1.36.038.588.218 1.04.54 1.361.324.32.734.482 1.231.482.31 0 .595-.07.859-.21z"/><path fill="#34b75c" d="M331.175 363.699a2.78 2.78 0 0 1-2.805 2.941h-50.98c-1.622 0-3-1.3-3.107-2.902v-.04l-.631-12.375a2.778 2.778 0 0 1 2.796-2.942h50.99c1.63 0 3.019 1.32 3.106 2.942l.63 12.376z"/><path fill="#46c671" d="M327.797 360.787a2.77 2.77 0 0 1-2.796 2.95h-50.718v-.038l-.631-12.376a2.778 2.778 0 0 1 2.796-2.942h50.718v.04l.631 12.366z"/><path fill="#fff" d="M292.852 360.607a.504.504 0 0 1-.162-.34l-.499-6.488a.448.448 0 0 1 .11-.344.408.408 0 0 1 .324-.143h2.385c.662 0 1.212.113 1.648.34.435.225.758.515.966.869.209.352.328.734.36 1.144.031.41-.03.792-.184 1.146-.154.353-.432.642-.833.868-.401.226-.933.34-1.595.34h-1.905l.175 2.268a.426.426 0 0 1-.115.34.44.44 0 0 1-.33.138.49.49 0 0 1-.345-.138zm2.356-3.52c.711 0 1.2-.138 1.469-.413s.387-.619.355-1.029a1.48 1.48 0 0 0-.513-1.028c-.31-.275-.822-.414-1.533-.414h-1.81l.222 2.884h1.81zM298.925 360.607a.516.516 0 0 1-.157-.34.558.558 0 0 1 .036-.212l2.178-6.381a.732.732 0 0 1 .21-.314.544.544 0 0 1 .363-.121h.105a.62.62 0 0 1 .38.121.919.919 0 0 1 .26.314l3.158 6.381a.616.616 0 0 1 .068.212.447.447 0 0 1-.104.34.42.42 0 0 1-.33.138c-.097 0-.188-.027-.272-.08s-.151-.125-.2-.217l-.807-1.654h-3.558l-.552 1.654a.453.453 0 0 1-.428.297.486.486 0 0 1-.35-.138zm1.63-2.693h2.824l-1.677-3.445-1.148 3.445zM308.456 360.607a.497.497 0 0 1-.167-.34l-.208-2.703-2.773-3.552a.574.574 0 0 1-.106-.286.463.463 0 0 1 .104-.344.396.396 0 0 1 .319-.143c.174 0 .32.081.437.244l2.434 3.222 1.94-3.222a.435.435 0 0 1 .399-.244c.132 0 .248.048.346.143.097.095.148.21.152.344a.511.511 0 0 1-.062.286l-2.238 3.552.207 2.703a.424.424 0 0 1-.434.478.51.51 0 0 1-.35-.138zM309.6 193.113l-18.958 14.914c-.825.66-1.869.924-2.913.836-1.187-.1-2.385-.682-3.264-1.693l-7.353-8.44c-1.692-1.924-1.604-4.705.176-6.2 1.792-1.483 4.594-1.131 6.276.803l4.396 5.023 15.738-12.376c1.825-1.45 4.627-1.01 6.254.957 1.649 1.967 1.484 4.736-.352 6.176zM441.658 245.051s-3.566-1.873-4.325-2.624c-.932-1.862-6.192-12.109-7.999-11.394-.552.212-1.14 1.93-.58 3.34.036.093.094.223.153.361-3.628-3.038-7.51-5.886-10.498-7.052-1.068-.083-.944 1.834.029 2.832l.087.087 4.607 3.886.986 1.012s-2.564.052-1.89 2.21c0 0-2.103.71-.844 2.446-3 2.356 5.093 8.057 11.092 8.67l7.673 5.555 1.51-9.329zM428.906 234.738l1.664 2.778"/><path fill="#fff" d="M421.387 240.15s1.165.278 3.286 2.588M422.196 237.643s1.164.277 3.285 2.587M424.011 235.407s1.164.277 3.286 2.588"/><path fill="#f5f5f5" d="M545.4 409.477c0 2.629-23.322 4.757-52.081 4.757s-52.082-2.128-52.082-4.757c0-2.623 23.322-4.752 52.082-4.752s52.082 2.129 52.082 4.752zM492.404 422.305c0 .899-7.976 1.627-17.81 1.627s-17.809-.728-17.809-1.627c0-.897 7.975-1.625 17.81-1.625 9.833 0 17.809.728 17.809 1.625zM415.881 419.667c0 .899-7.975 1.627-17.81 1.627-9.833 0-17.808-.728-17.808-1.627 0-.897 7.975-1.625 17.809-1.625 9.834 0 17.81.728 17.81 1.625z"/><path fill="#f5f5f5" d="M451.51 343.736v64.182a3.73 3.73 0 0 0 3.736 3.727h74.316a3.73 3.73 0 0 0 3.736-3.727v-64.182a3.737 3.737 0 0 0-3.736-3.736h-74.316a3.737 3.737 0 0 0-3.735 3.736z"/><path fill="#e1e5e2" d="M533.298 399.909v8.006a3.733 3.733 0 0 1-3.733 3.733h-74.323a3.733 3.733 0 0 1-3.733-3.733v-8.006h81.79z"/><path fill="#c2c6c3" d="M451.51 406.67v1.245a3.733 3.733 0 0 0 3.732 3.733h74.323a3.733 3.733 0 0 0 3.733-3.733v-1.245H451.51z"/><path fill="#fff" d="m475.097 400.3 4.042 9.19-9.061 3.273-3.247-9.223z"/><path fill="#fff" d="M462.119 422.217c4.514-1.65 19.355-7.222 20.385-9.68.601-1.437.03-3.028-.931-4.261-.98-1.265-2.37-2.159-3.34-2.141-.465.008-1.122.343-1.795.798-1.47.983-3.038 2.52-3.038 2.52s-3.36-2.102-4.492-1.705c-1.58.559-2.355 4.465-3.392 5.777-.545.688-1.682 1.426-2.8 2.196-1.29.885-2.561 1.802-2.9 2.707-.177.476-.054 1.256.164 2.02.09.318.197.634.302.925a1.428 1.428 0 0 0 1.837.844z"/><path fill="#fff" d="M468.61 410.585c.237.22.61.207.83-.03s.207-.61-.03-.83a.589.589 0 0 0-.829.03.589.589 0 0 0 .03.83zM467.727 412.46c.236.22.61.207.83-.03s.206-.609-.03-.829a.589.589 0 0 0-.83.03.589.589 0 0 0 .03.829zM466.826 414.437c.236.22.61.207.83-.03a.589.589 0 0 0-.03-.829.589.589 0 0 0-.83.03.589.589 0 0 0 .03.83zM414.26 402.372l-3.973 9.22-8.57-4.402 4.538-8.66z"/><path fill="#fff" d="M389.374 407.807c4.284 2.179 18.474 9.245 20.975 8.325 1.462-.54 2.238-2.042 2.485-3.586.258-1.578-.034-3.205-.71-3.903-.322-.335-1.014-.588-1.807-.77-1.72-.406-3.915-.506-3.915-.506s-.75-3.892-1.812-4.45c-1.485-.775-4.872 1.319-6.54 1.453-.874.07-2.189-.259-3.515-.553-1.526-.34-3.064-.647-3.956-.277-.47.193-.957.815-1.368 1.496-.17.282-.33.575-.47.85a1.428 1.428 0 0 0 .633 1.92z"/><path fill="#fff" d="M402.311 404.632c0 .323.264.587.587.587a.589.589 0 0 0 .587-.587.589.589 0 0 0-.586-.587.589.589 0 0 0-.588.587zM400.337 405.263c0 .323.264.587.586.587s.587-.264.588-.587a.589.589 0 0 0-.587-.587.589.589 0 0 0-.587.587zM398.276 405.95c0 .323.264.588.586.588a.589.589 0 0 0 .588-.587.589.589 0 0 0-.587-.587.589.589 0 0 0-.587.587z"/><path fill="#67db8a" d="m476.96 402.594-10.39 3.926a2.554 2.554 0 0 1-3.324-1.616l-1.93-6.177-17.126-55.34 17.15-9.679 4.873-2.75 12.347 68.819a2.539 2.539 0 0 1-1.6 2.817z"/><path fill="#34b75c" d="m476.96 402.594-10.39 3.926a2.554 2.554 0 0 1-3.324-1.616l-1.93-6.177c.5-.753 1.067-1.472 1.684-2.149 2.065-2.25 4.848-4.29 5.187-7.327.389-3.41-3.353-9.61-3.2-13.044.059-1.388.634-2.708.846-4.087.846-5.635-4.45-10.533-4.654-16.227-.144-3.994 2.26-7.878 1.557-11.812-.305-1.751-1.21-3.342-1.65-5.06-.44-1.75-.313-3.604.254-5.313l4.873-2.75 12.347 68.819a2.539 2.539 0 0 1-1.6 2.817z"/><path fill="#67db8a" d="M535.482 326.741c.02 7.065-5.67 12.812-12.736 12.869l-58.593-.049-45.788 63.612a2.547 2.547 0 0 1-2.978.787l-10.83-4.485a2.54 2.54 0 0 1-1.384-3.32s.322-.796.92-2.228c4.552-10.924 30.212-68.703 45.689-77.95 14.955-8.932 62.22-5.613 79.356-4.058 3.935.351 6.287.616 6.287.616l.02 3.84.037 10.366z"/><path fill="#34b75c" d="M535.482 326.741c.02 7.065-5.67 12.812-12.736 12.869l-58.593-.049-45.788 63.612a2.547 2.547 0 0 1-2.978.787l-10.83-4.485a2.54 2.54 0 0 1-1.384-3.32s.322-.796.92-2.228c7.35-3.395 18.737-18.868 24.864-24.245 2.37-2.087 4.789-4.211 6.391-6.933 1.736-2.911 2.466-6.41 4.59-9.056 2.41-3.025 6.307-4.562 8.734-7.568 2.172-2.684 3.215-6.553 6.354-8.023 2.352-1.09 5.16-.446 7.644-1.175 1.688-.503 3.139-1.604 4.75-2.305 6.08-2.608 13.695.853 19.46-2.39 1.129-.635 2.125-1.498 3.32-1.982 1.488-.607 3.157-.55 4.76-.493 7.217.246 14.832.284 21.167-3.196.863-.484 1.726-1.033 2.693-1.223 1.774-.342 3.594.56 5.387.35 2.74-.322 4.23-2.986 4.817-5.424.597-2.466.047-5.519.114-8.345 3.935.351 6.287.616 6.287.616l.02 3.84.037 10.366z"/><path fill="#fff" d="M473.291 279.517c1.618.038 3.871-.906 6.192-2.215-2.571 14.974-2.927 30.671-2.927 30.671l33.704 2.62-.49 2.359-.088.394s13.569.087 25.703-.808h.038c8.802-.646 16.621-2.003 18.374-3.949 4.237-4.709 1.444-27.127-5.566-44.432-1.406-3.448-3.11-6.298-4.989-8.648-8.252-10.4-19.539-11.074-20.27-11.113-2.793-.577-5.942-.818-9.495-.674 0 0-13.386-.77-21.215 6.038-.25.222-16.294 14.57-16.294 14.57l-37.672-22.765c.674 4.632-1.916 8.022-6.664 8.821 0 0 30.017 28.813 41.66 29.13z"/><path fill="#f5f5f5" d="M553.799 308.586c-1.751 1.948-9.576 3.304-18.379 3.953h-.033c-12.131.896-25.701.806-25.701.806l.082-.395c1.989-1.093 4.118-1.931 6.23-2.761l7.102-2.787c1.117-.435 2.243-.871 3.419-1.126 1.455-.312 2.959-.32 4.447-.395 3.14-.164 6.353-.682 9.049-2.293 1.841-1.093 3.353-2.646 4.841-4.183.912-.937 1.841-1.907 2.318-3.115 1.282-3.239-1.036-6.773-1.027-10.267.008-2.383 1.117-4.71.863-7.093-.33-3.098-2.935-5.761-2.688-8.868.115-1.356.772-2.663.583-4.011-.28-2.03-2.317-3.337-3.115-5.22-.608-1.446-.386-3.213.56-4.47.287-.379.583-.65.895-.856 1.874 2.351 3.584 5.203 4.981 8.655 7.011 17.302 9.806 39.716 5.573 44.426z"/><path fill="#fff" d="m509.187 299.604 33.796-6.767M500.016 305.7s-.866 14.27 12.067 4.536l-2.277-10.365s-9.633-4.383-11.357-2.453c-1.353 1.493 3.53 4 3.53 4s-12.133 2.4-13.19 5.618c-1.055 3.216 11.227-1.337 11.227-1.337zM522.018 231.781c-.11.576-.254 1.134-.423 1.667l-.288 10.728-9.532 21.42-.934-21.42-.025-2.284a20.418 20.418 0 0 1-.694-.06c-5.846-.693-9.916-6.768-9.104-13.562.11-.914.305-1.794.567-2.623 1.413-.338 6.481-1.971 8.292-8.122 0 .38.084 10.28 7.961 10.568a3.386 3.386 0 0 1 3.156-3.021c1.87-.127 2.615 1.337 2.75 3.223.11 1.667-.305 3.105-1.726 3.486z"/><path fill="#fff" d="M510.175 227.834c.12-.121 1.645-.445 2.799.193M538.437 293.592l-.548-4.989M487.34 163.565l3.044 47.242a2.072 2.072 0 0 1-2.087 2.23h-11.981l.827 12.832c.05.774-.849 1.175-1.448.646l-15.292-13.478h-67.921c-1.232 0-2.305-1.007-2.384-2.24l-3.044-47.232H487.34z"/><path fill="#f5f5f5" d="m487.342 163.566-.372-5.775c-.08-1.236-1.147-2.239-2.383-2.239h-95.81a2.073 2.073 0 0 0-2.094 2.239l.372 5.775h100.287z"/><path fill="#fff" d="M393.984 159.563a1.41 1.41 0 0 1-1.428 1.519 1.64 1.64 0 0 1-1.617-1.52 1.41 1.41 0 0 1 1.42-1.525c.842 0 1.57.685 1.625 1.526zM401.798 159.563a1.41 1.41 0 0 1-1.428 1.519 1.64 1.64 0 0 1-1.617-1.52 1.41 1.41 0 0 1 1.421-1.525c.841 0 1.57.685 1.624 1.526zM409.612 159.563a1.41 1.41 0 0 1-1.428 1.519 1.64 1.64 0 0 1-1.617-1.52c-.054-.84.58-1.525 1.421-1.525s1.57.685 1.624 1.526zM482.942 159.556a1.31 1.31 0 0 1-.339.977 1.314 1.314 0 0 1-.951.402H451.29a1.492 1.492 0 0 1-1.467-1.379c-.025-.377.11-.719.339-.97.236-.246.567-.402.951-.402h30.362a1.49 1.49 0 0 1 1.467 1.372zM432.742 197.075l-.521-8.523h50.985l.52 8.523zM423.68 170.058l2.275 35.852h-28.856l-2.275-35.852z"/><path fill="#26a851" d="m421.16 172.9 1.916 30.167h-23.458l-1.915-30.167z"/><path fill="#46c671" d="m418.741 172.9 1.744 27.48h-21.038l-1.744-27.48z"/><path fill="#fff" d="M406.74 182.924c.133 1.76 1.668 3.186 3.427 3.186 1.759 0 3.076-1.427 2.943-3.186-.134-1.759-1.667-3.185-3.426-3.185s-3.077 1.426-2.944 3.185zM417.22 193.675l.162 2.554h-12.939l-.162-2.554c-.135-3.464 2.504-6.237 5.996-6.237 3.5 0 6.547 2.773 6.943 6.237z"/><path fill="#67db8a" d="M434.033 181.22a.483.483 0 0 1-.16-.314l-.664-5.996a.405.405 0 0 1 .09-.318.365.365 0 0 1 .294-.132h2.201c.611 0 1.122.105 1.531.314.409.208.716.476.92.803.202.327.325.68.367 1.058.042.378-.003.731-.134 1.058-.13.326-.378.594-.741.803-.363.21-.85.314-1.462.314h-1.756l.232 2.096a.381.381 0 0 1-.096.313c-.077.085-.177.128-.3.128s-.23-.043-.322-.128zm2.063-3.253c.656 0 1.103-.127 1.342-.382s.337-.572.296-.95a1.422 1.422 0 0 0-.506-.95c-.296-.255-.77-.383-1.427-.383h-1.67l.295 2.665h1.67zM440.438 181.22c-.255-.118-.466-.29-.632-.515s-.266-.485-.299-.778c-.053-.484.093-.87.437-1.157.345-.287.88-.43 1.608-.43h1.168l-.009-.079c-.047-.431-.187-.741-.417-.93-.23-.19-.566-.284-1.01-.284-.245 0-.46.019-.646.058-.185.039-.39.098-.613.176a.379.379 0 0 1-.386-.088.408.408 0 0 1-.135-.265c-.02-.176.05-.3.21-.372a3.928 3.928 0 0 1 1.63-.352c.445 0 .83.091 1.156.274.325.183.577.42.753.71.178.29.285.606.322.946l.307 2.772a.389.389 0 0 1-.395.44.466.466 0 0 1-.323-.127.485.485 0 0 1-.16-.313l-.028-.255c-.421.497-.999.745-1.732.745-.283 0-.552-.059-.806-.177zm1.844-.818c.248-.141.451-.315.608-.525l-.091-.823h-1.052c-.972 0-1.43.258-1.372.774a.83.83 0 0 0 .3.569c.173.143.443.215.81.215.283 0 .549-.07.797-.21zM445.2 180.955a.428.428 0 0 1-.199-.323.359.359 0 0 1 .076-.275.31.31 0 0 1 .257-.117c.058 0 .117.013.178.04.216.09.43.162.642.214.21.053.446.079.703.079.714 0 1.046-.232.995-.696-.017-.15-.112-.264-.285-.343-.172-.078-.45-.166-.835-.264a7.916 7.916 0 0 1-.973-.284 1.928 1.928 0 0 1-.686-.446c-.199-.199-.316-.462-.352-.788-.051-.458.07-.83.364-1.117.293-.288.742-.431 1.347-.431a4.2 4.2 0 0 1 1.426.244.444.444 0 0 1 .321.372.353.353 0 0 1-.08.275.324.324 0 0 1-.262.118.529.529 0 0 1-.128-.02 3.837 3.837 0 0 0-1.12-.176c-.348 0-.612.063-.795.191-.182.127-.261.292-.239.494a.52.52 0 0 0 .318.432c.19.091.48.18.869.264.39.098.71.195.959.29.248.094.469.242.662.445.193.202.308.474.346.813.046.418-.079.764-.373 1.038-.294.275-.738.412-1.33.412a3.834 3.834 0 0 1-1.805-.44zM449.834 180.955a.428.428 0 0 1-.2-.323.36.36 0 0 1 .076-.275.311.311 0 0 1 .257-.117c.058 0 .118.013.178.04.216.09.43.162.642.214.212.053.446.079.703.079.715 0 1.046-.232.995-.696-.017-.15-.111-.264-.284-.343-.173-.078-.451-.166-.835-.264a7.88 7.88 0 0 1-.973-.284c-.259-.098-.487-.246-.686-.446s-.317-.462-.353-.788c-.05-.458.07-.83.364-1.117.292-.288.742-.431 1.347-.431a4.2 4.2 0 0 1 1.426.244.444.444 0 0 1 .321.372.355.355 0 0 1-.08.275.324.324 0 0 1-.262.118.529.529 0 0 1-.128-.02 3.84 3.84 0 0 0-1.12-.176c-.347 0-.612.063-.794.191-.183.127-.262.292-.24.494a.52.52 0 0 0 .318.432c.19.091.48.18.87.264.39.098.709.195.958.29.248.094.47.242.662.445.193.202.308.474.346.813.046.418-.078.764-.372 1.038-.295.275-.738.412-1.33.412a3.834 3.834 0 0 1-1.806-.44zM455.743 181.23a.702.702 0 0 1-.245-.295l-1.822-4.075a.557.557 0 0 1-.047-.166.388.388 0 0 1 .09-.314.372.372 0 0 1 .295-.127.474.474 0 0 1 .426.264l1.546 3.772.712-3.684a.428.428 0 0 1 .434-.352c.11 0 .21.032.305.097.094.066.163.15.207.255l1.527 3.684.712-3.772a.308.308 0 0 1 .13-.19.395.395 0 0 1 .237-.074c.122 0 .23.042.323.127a.484.484 0 0 1 .15.48l-.92 4.075a.52.52 0 0 1-.514.412.617.617 0 0 1-.36-.118.765.765 0 0 1-.257-.303l-1.382-3.243-.664 3.243a.561.561 0 0 1-.188.303.507.507 0 0 1-.334.118.618.618 0 0 1-.361-.118zM463.052 181.073a2.56 2.56 0 0 1-.966-.917 3.187 3.187 0 0 1-.454-1.356c-.056-.51-.005-.962.154-1.357s.413-.7.762-.916c.35-.215.772-.323 1.268-.323.489 0 .932.108 1.33.323.396.215.72.521.97.916.249.395.402.847.458 1.357.057.509.004.961-.158 1.356-.163.396-.418.701-.768.917-.35.215-.769.323-1.257.323-.496 0-.942-.108-1.34-.323zm1.986-.676c.227-.125.405-.32.533-.588s.17-.608.124-1.019c-.045-.405-.161-.741-.349-1.009a1.704 1.704 0 0 0-.662-.583 1.802 1.802 0 0 0-.778-.181c-.27 0-.52.06-.748.181-.227.121-.404.315-.529.583s-.165.604-.12 1.01c.046.41.16.75.345 1.018a1.715 1.715 0 0 0 1.446.773c.264 0 .51-.061.738-.185zM468.193 181.22a.483.483 0 0 1-.16-.314l-.465-4.203a.405.405 0 0 1 .09-.318.364.364 0 0 1 .294-.132c.123 0 .232.044.329.132s.152.194.165.318l.047.422c.383-.615.854-.921 1.413-.921h.049c.122 0 .228.042.318.127.09.085.142.19.155.314s-.017.225-.092.303a.405.405 0 0 1-.305.118h-.049c-.309 0-.583.076-.823.23a1.68 1.68 0 0 0-.577.632l.33 2.978a.389.389 0 0 1-.396.44.466.466 0 0 1-.323-.127zM472.508 181.087a2.733 2.733 0 0 1-.968-.901 3.037 3.037 0 0 1-.487-1.386c-.058-.53.001-.991.18-1.386.178-.395.434-.696.769-.902s.7-.308 1.1-.308c.63 0 1.208.248 1.733.744l-.266-2.4a.391.391 0 0 1 .094-.323.389.389 0 0 1 .3-.128c.122 0 .23.045.323.133a.5.5 0 0 1 .16.318l.705 6.358a.388.388 0 0 1-.09.313.373.373 0 0 1-.295.128.484.484 0 0 1-.328-.128.476.476 0 0 1-.165-.313l-.029-.255c-.414.497-.937.745-1.568.745a2.43 2.43 0 0 1-1.168-.309zm2.014-.725c.246-.133.457-.311.63-.534l-.227-2.057a2.795 2.795 0 0 0-.749-.534 1.945 1.945 0 0 0-.857-.2c-.476 0-.842.153-1.098.46-.255.307-.352.742-.29 1.303.063.562.255.996.579 1.302.324.308.723.461 1.2.461.295 0 .566-.067.812-.2z"/><path fill="#f5f5f5" d="M199.238 420.106c.397-4.512-37.135-2.908-42.634-2.93-5.499-.023-49.39-1.487-49.833 3.456-.441 4.943 41.325 2.855 46.798 2.895 5.473.04 45.272 1.09 45.67-3.421"/><path fill="#fff" d="M172.596 403.827c.803 3.67 1.582 7.346 2.37 11.02-3.528-.269-7.056-.538-10.584-.805-.981-3.214-1.96-6.429-2.942-9.643 3.73-.495 7.534.665 11.156-.572z"/><path fill="#fff" d="M172.21 410.4c.073-.172 0 0 0 0 .052-1.273.932-1.488 1.49-1.677.42-.142.09-.022.095-.022.795.015 1.256.363 1.571 1.013.014.008 0 0 0 0 1.033 2.13 2.363 3.523 4.655 4.329s5.124 1.523 7.345 2.314c1.733.617 2.264 1.674 2.517 3.291.031.005 0 0 0 0 .04.258-.123.436-.443.442-9.884.209-19.925.458-29.82.613-.32.005-.443-.032-.45-.426-.026-1.654-.108-2.104-.065-4.224.044-2.12 1.479-5.23 4.131-5.937 1.332 2.32 3.477 3.746 6.188 3.639 1.69-.067 2.735-2.083 2.786-3.355z"/><path fill="#fff" d="M182.929 417.861c-7.936.17-15.871.335-23.806.503M186.109 415.96l1.04 4.183M116.748 404.675c.018 3.222.025 6.444.036 9.666l10.23.808c-.01-3.678-.023-7.356-.034-11.034-3.41.185-6.821.373-10.232.56z"/><path fill="#fff" d="M125.98 410.693c.048-.184 0 0 0 0 .116-1.243.733-1.557 1.584-1.686.07-.09 0 0 0 0 .85-.129 1.233.376 1.56 1.013.028-.033 0 0 0 0 1.065 2.077 2.353 3.524 4.656 4.315 2.302.79 5.125 1.528 7.35 2.313 1.737.612 2.263 1.676 2.518 3.29.031.005 0 0 0 0 .04.258-.123.436-.444.443-9.884.208-19.925.458-29.82.612-.32.006-.444-.031-.45-.426-.028-1.654-.109-2.104-.068-4.224.042-2.121 1.473-5.231 4.125-5.94 1.35 2.329 3.458 3.738 6.198 3.644 1.71-.059 2.676-2.111 2.791-3.354z"/><path fill="#67db8a" d="M174.378 402.897c.035.87-.306 1.286-1.156 1.2-4.17-.425-8.506 1.065-12.815-.35-.754-.248-.542 3.427-1.2-1.293-1.066-7.646 1.426 12.588-1.046-7.224-2.473-19.813-9.252-73.88-12.942-99.34-3.984 24.79-10.232 75.403-13.277 95.62-3.046 20.218-.553 1.39-2.395 12.52-.432 2.616-.38.59-1.076.755-4.293 1.016-8.74.35-12.92.73-.867.078-1.25-.306-1.214-1.19 1.93-47.878 2.475-95.98 4.266-143.917 1.883.03 4.89.104 6.406.137 1.516.032-1.286-.03.523.01 1.809.04-1.292-.028 3.716.085 5.007.113 26.924.582 32.535.703 5.612.121 3.163.06 6.985.155 1.258 47.118 3.701 94.359 5.61 141.399z"/><path fill="#34b75c" d="M131.34 395.355c-.534 3.652-1.181 6.11-1.834 9.104-.153.704-.424.895-1.1.923-4.17.174-8.748.402-12.88.462-.859.012-1.25-.303-1.214-1.187 1.92-47.895 2.492-95.982 4.253-143.926 2.212.04 4.409.096 6.615.142.061.125.12.251.175.379a68.291 68.291 0 0 0-.13-.378c.935.022 1.854.04 2.797.064 1.193 2.177 1.985 4.404 1.95 6.912-.062 4.423-1.825 8.17-3.736 12.022-1.372 2.764-3.447 5.11-3.952 8.21-1.879 11.538 5.363 21.857 2.905 33.4-.594 2.79-2.625 4.613-3.325 7.534-.7 2.922-1.061 4.554-.704 8.028.917 8.926 2.11 9.994 6.093 21.43 1.543 4.43 2.386 29.217 4.088 36.881zM174.361 403.233c.037.87-.332 1.177-1.165 1.194-4.087.084-8.645.16-12.75.064-.719-.017-1.066-.01-1.154-.987-.144-1.583-.672-1.25-.543-3.809.13-2.558.916-2.943 2.272-7.935 1.356-4.991 2-32.208 2.51-35.725 2.033-14.048-3.764-18.49-1.5-29.766.375-1.867 1.474-2.717 1.905-4.328 2.336-8.734-1.353-16.982-.442-25.735.38-3.66 2.334-6.856 1.905-10.614-.354-3.097-2.143-5.434-3.172-8.392-1.826-5.252-1.413-10.283.479-15.507 1.993.032 3.966.077 5.96.126 1.442 47.134 3.716 94.345 5.695 141.414z"/><path fill="#fff" d="M169.294 260.28c-13.422 1.783-26.55 2.214-39.842-.671M226.06 226.033c-11.514-4.256-24.458-10.079-35.832-14.354-8.225-7.267-11.21-13.882-20.441-20.932-11.02-8.432-40.884-11.818-49.536-.612-1.23 1.593-3.232 7.376-3.232 7.376l.01.513c1.588-.621 3.713.955 3.203 2.878.011.1.022.22.031.381.046.311.057.624.035.939.017.794-.003 1.586.044 2.38.11 1.879.403 3.74.518 5.62.073 1.19-.604 1.908-1.466 2.17.089 1.426.257 2.828.442 4.229 1.028.778 1.17 2.407.429 3.426.017.15.038.296.053.445.004.03-.001.056 0 .086 1.403.195 2.81.352 4.215.394 2.395.07 4.674-.12 7.018.498 1.208.318 1.704 1.27 1.678 2.23h.94v.25h32.688v.029h2.038a361.248 361.248 0 0 1 0-5.756c3.302 4.058 6.321 7.953 14.508 11.485 13.228 5.709 26.219 4.968 40.259 6.774-1.718-4.097.334-6.589 2.397-10.45z"/><path fill="#fff" d="M134.671 168.67c.425 5.647 1.136 4.788 3.328 8.757a589.995 589.995 0 0 0-.287 5.688l8.842 18.987 5.732-17.634c-.247-1.245-.583-2.755.03-3.93.02-.03.01 0 .049-.01 10.219-6.764 5.717-22.601 3.209-32.79.02-.11.049-.336.089-.376-20.41-1.037-22.285 4.068-20.992 21.308z"/><path fill="#fff" d="M160.005 149.18c-.064.155-.102.234-.181.433.829 10.035 3.51 28.358-8.881 31.417-4.047 1-7 .078-9.715-1.68"/><path fill="#fff" d="M153.194 169.096c.156.172.349.32.578.357.229.036.204.057.492-.006.289-.063.634-.466.59-.813-.043-.346-.368-.643-.514-.79-.146-.148-.15-.132-.206-.201-.48-.593-.564-1.16-.21-1.82M152.475 172.674c1.009.843 1.916.7 3.028.105M138.177 168.7c-.033-.015-.067-.022-.09-.053-.427-.56-.673-1.068-.656-1.81.008-.35.108-.759.408-1.046.3-.288.769-.381 1.146-.146"/><path fill="#f5f5f5" d="M160.822 267.55c-8.174.976-41.208 7.761-43.805-1.627-1.97-7.116 1.11-22.097-.316-29.248.424-.019.568-.058.832-.006 1.51.292 2.8.95 3.79 2.118 1.481 1.75 2.11 3.812 3.03 5.867s1.946 3.968 3.94 5.14c1.396.821 2.92.822 4.48.85.603.012 1.177-.083 1.77.065.904.226 1.567.806 2.29 1.364 1.58 1.22 3.028 10.24 5.021 10.723 2.584.624 4.997-.11 7.554-.643 2.556-.534 5.069-.881 7.458.37 1.198.629 1.923 1.678 2.71 2.703.546.71 1.035 1.499 1.246 2.324z"/><path fill="#67db8a" d="M145.186 294.57c1.017-4.509 2.048-9.015 3.073-13.521"/><path fill="#fff" d="m168.891 218.18.03-2.519M183.009 292.669l-98.592-.02a4.832 4.832 0 0 1-4.836-4.83v-59.16a4.837 4.837 0 0 1 4.836-4.835l98.592-.021a4.836 4.836 0 0 1 4.836 4.719v59.428a4.836 4.836 0 0 1-4.836 4.719z"/><path fill="#fff" d="M105.714 235.981v12.03a2.772 2.772 0 0 1-2.775 2.77l-12.03-.002a2.773 2.773 0 0 1-2.77-2.77v-12.03a2.772 2.772 0 0 1 2.77-2.775l12.03.002a2.775 2.775 0 0 1 2.775 2.775z"/><path fill="#46c671" d="M101.199 239.592v4.805a1.87 1.87 0 0 1-1.87 1.87h-4.806a1.871 1.871 0 0 1-1.87-1.872v-4.805a1.87 1.87 0 0 1 1.87-1.87h4.805c1.033.001 1.87.839 1.87 1.872z"/><path fill="#fff" d="M96.924 246.267v4.515M92.652 241.994l-4.515-.001M105.714 241.997l-4.515-.001M96.924 233.218v4.488"/><path fill="#46c671" d="M116.688 273.381c0 .464-.17.887-.45 1.195a1.467 1.467 0 0 1-1.087.496l-26.656-.005c-.848 0-1.538-.76-1.538-1.691 0-.468.173-.89.45-1.196a1.455 1.455 0 0 1 1.088-.495l26.656.005c.85 0 1.537.755 1.537 1.691z"/><path fill="#e1e5e2" d="M133.86 282.067c0 .464-.17.887-.451 1.195a1.467 1.467 0 0 1-1.087.496l-43.827-.008c-.848 0-1.538-.76-1.538-1.691 0-.468.173-.89.45-1.196a1.455 1.455 0 0 1 1.088-.495l43.827.008c.85 0 1.537.755 1.537 1.691z"/><path fill="#46c671" d="M180.47 273.392c0 .465-.173.887-.45 1.196a1.467 1.467 0 0 1-1.088.495l-27.92-.005c-.85 0-1.537-.76-1.537-1.691 0-.468.174-.89.45-1.196a1.455 1.455 0 0 1 1.088-.495l27.92.005c.85 0 1.537.756 1.537 1.691zM145.422 273.386c0 .464-.173.887-.45 1.195a1.467 1.467 0 0 1-1.087.496l-21.589-.004c-.85 0-1.538-.76-1.538-1.691 0-.468.17-.89.451-1.196a1.455 1.455 0 0 1 1.087-.495l21.589.004c.847 0 1.537.756 1.537 1.691z"/><path fill="#fff" d="m178.951 240.078-20.533.001a.576.576 0 0 1-.376-1.01l10.262-8.921c.219-.19.538-.19.757 0l10.267 8.92c.4.352.153 1.01-.377 1.01z"/><path fill="#46c671" d="M175.434 238.354h-13.5a.378.378 0 0 1-.248-.664l6.749-5.867a.378.378 0 0 1 .496 0l6.751 5.867a.378.378 0 0 1-.248.664z"/><path fill="#fff" d="M179.81 252.127v.806a.415.415 0 0 1-.415.414l-21.42-.003a.416.416 0 0 1-.42-.415v-.806c0-.233.186-.42.42-.419l21.42.004c.229 0 .414.186.414.42z"/><path fill="#fff" d="M164.193 250.313v1.149c0 .133-.11.243-.248.243h-4.228a.248.248 0 0 1-.248-.244v-1.149a.25.25 0 0 1 .248-.247h4.228c.138 0 .248.11.248.248zM164.193 240.323v1.149c0 .138-.11.248-.248.248l-4.228-.001a.25.25 0 0 1-.248-.248v-1.149c0-.133.115-.243.248-.243l4.228.001c.138 0 .248.11.248.243zM171.047 240.324v1.149c0 .138-.11.248-.248.248h-4.228a.245.245 0 0 1-.243-.249v-1.148c0-.134.11-.244.243-.244l4.228.001c.138 0 .248.11.248.243zM171.047 250.315v1.148c0 .134-.11.243-.248.243h-4.228a.244.244 0 0 1-.243-.244v-1.148c0-.139.11-.248.243-.248h4.228c.138 0 .248.11.248.249zM177.9 240.326v1.148c0 .138-.11.248-.243.248h-4.227a.246.246 0 0 1-.248-.249v-1.148c0-.134.11-.243.248-.243h4.227c.134 0 .244.11.244.244zM177.898 250.316v1.148c0 .134-.11.243-.243.243h-4.228a.245.245 0 0 1-.247-.243v-1.15c0-.137.11-.247.247-.247h4.228c.134 0 .243.11.243.249z"/><path fill="#fff" d="M167.136 241.72h3.093v8.346h-3.093zM173.995 241.722h3.093v8.346h-3.093zM160.282 241.719h3.093v8.346h-3.093zM168.684 235.294a.527.527 0 0 1-.006-1.053l.006.001h.006c.287.002.52.237.52.525a.128.128 0 0 0 .256 0 .782.782 0 0 0-.654-.77v-.196a.128.128 0 0 0-.256 0v.196a.782.782 0 0 0 .128 1.552.527.527 0 0 1 .006 1.052h-.012a.527.527 0 0 1-.52-.526.128.128 0 0 0-.256 0c0 .388.284.71.654.77v.197a.128.128 0 0 0 .256 0v-.196a.782.782 0 0 0-.128-1.552zM129.176 292.551l-2.737-.022c1.846 4.393.12 8.745-1.805 4.766-.434 2.064-1.254 3.14-2.695.968-.84 1.886-1.728 1.856-2.538-.089-3.82 3.89-3.82-8.857-3.564-10.555-.198-2.537-.405-5.075-.602-7.613 3.14-.207 6.22-1.955 9.014-.03 2.173 2.746 6.042 9.05 4.927 12.575zM124.636 297.296l-.39-2.442M121.912 298.096l-.39-2.442M119.404 298.169l-.246-2.077"/><path fill="#fff" d="M125.996 243.655c-1.691 12.754.904 22.961.207 34.857-.118 2.014-.211 2.659-1.137 3.994-1.388 2-2.877 2.76-5.27 3.004-1.059.108-2.66.426-3.856.176s-2.078.124-2.401-2.01c-2.097-13.831-5.419-28.45-4.877-43.028.471-12.663 4.81-27.242 7.304-39.099.65-3.087.472-1.7.986-4.087 6.482 1.587 13.207 2.705 19.59 4.262-2.687 13.296-8.855 29.178-10.546 41.931z"/><path fill="#f5f5f5" d="M125.078 282.582c-1.438 1.681-2.868 2.826-5.28 2.934-1.068.048-2.659.451-3.857.173-1.199-.278-2.081.142-2.402-2.009-2.08-13.944-5.445-28.296-4.87-43.07.498-12.835 4.714-26.656 7.351-39.394.479.341.93.626 1.393.962 1.844 1.337 3.37 2.588 3.575 5.06.279 3.375-1.685 6.05-3.65 8.658-1.966 2.607-4.262 5.01-4.476 8.397-.3 4.749 3.362 8.222 4.285 12.696 1.262 6.115-1.677 12.268-.63 18.405.603 3.528 3.009 6.53 3.289 10.1.353 4.512-1.902 8.988.294 13.214 1.039 1.999 3.191 2.715 4.978 3.874z"/><path fill="#fff" d="M237.914 237.886a12.98 12.98 0 0 1-2.386-.27c-2.046-.443-6.46-1.47-8.237-2.483a34.495 34.495 0 0 0-1.32-.116c-.188-.02-.377-.03-.559-.044a31.332 31.332 0 0 0-3.003-.084.242.242 0 0 1-.028-.083c-.236-.999-.02-1.99-.02-1.99.214-2.105.834-3.93 1.777-5.553 0 0 .06-.092.15-.223.045-.06.09-.13.154-.205a36.083 36.083 0 0 0 1.67-.235c.168-.026.331-.06.494-.092 1.541-.273 3.205-.715 4.145-1.368 2.07-1.435 6.376-4.917 7.117-3.414.729 1.503-.975 4.687-3.124 5.979 0 0 6.03 1.138 9.207-.456 0 0 1.926-1 1.939.663.004.51-3.15 2.693-4.364 2.825.661-.022 3.337-.073 4.016-.248.806-.189 1.611 1.154-.837 2.307h.012c.11.055.965.41.907 1.065-.082.813-2 1.291-2.17 1.33.096.024.801.166.747 1.062-.108 1.505-4.133 1.655-6.287 1.633z"/><path fill="#fff" d="M234.74 227.701s-2.112 1.355-3.64 1.378M244.713 232.796s-2.214.215-4.186-.105M243.441 235.192s-2.6-.042-4.093-.353"/><path fill="#f5f5f5" d="M90.821 392.92c.066-.308.113-.623.113-.95a4.552 4.552 0 0 0-2.58-4.1 3.22 3.22 0 0 0-3.173-2.66c-.068 0-.136.004-.204.007a4.888 4.888 0 0 0-8.465-.459 3.305 3.305 0 0 0-5.237 2.262 3.317 3.317 0 0 0-3.132-.143 4.238 4.238 0 0 0-7.473.735 2.248 2.248 0 0 0-2.093 2.788 2.542 2.542 0 0 0-1.821 2.437c0 .028.007.055.008.083H90.82z"/><path fill="#67db8a" d="M78.816 155.617c-.22 7.584 5.797 13.734 13.439 13.734 7.648 0 14.023-6.15 14.243-13.734.22-7.592-5.797-13.742-13.446-13.742-7.641 0-14.015 6.15-14.236 13.742z"/><path fill="#34b75c" d="M78.82 155.615c-.228 7.591 5.797 13.73 13.438 13.73 5.129 0 9.676-2.766 12.19-6.871-2.527 2.197-5.823 3.549-9.398 3.549-7.642 0-13.667-6.151-13.44-13.73a13.787 13.787 0 0 1 2.034-6.846c-2.855 2.513-4.711 6.139-4.825 10.168z"/><path fill="#fff" d="M91.405 158.16a.498.498 0 0 1-.383-.178l-2.19-2.607a.5.5 0 1 1 .766-.643l1.871 2.228 4.607-3.78a.501.501 0 0 1 .635.773l-4.99 4.094a.5.5 0 0 1-.316.113z"/><path fill="#3c4150" d="M368.021 117.316c-.74-11.73-10.18-20.58-21.96-20.58h-126.33c-13.296 0-23.833 11.41-23 24.46l6.03 95.09c-4.19-1.72-8.4-3.42-12.35-4.91-3.61-3.19-6.23-6.3-8.77-9.31-3.19-3.76-6.48-7.65-11.64-11.6-4-3.06-10.46-5.48-17.51-6.78-.18-.96-.3-1.98.04-2.79 7.87-2.99 8.8-12.73 8.4-21.66 3.44-.68 5.26-2.08 6.2-3.22 1.5-1.82 1.83-4.28.86-6.41-.84-1.87-2.48-3.07-4.27-3.13-1.28-.03-3.08-.57-5.16-1.2-6.32-1.9-15.84-4.76-21.44 4.41-2.06.18-3.62 1.36-4.65 3.5-3.26 6.82-.04 21.07 1.83 23.73 1 1.57 2.123 1.923 3.28 1.66-.07 1.37-.13 2.63-.2 4.17-7.42.54-13.98 2.73-17.41 7.17-1.13 1.47-2.82 6.17-3.2 7.26-.11.04-.21.14-.24.27-1.821 8.92-4.05 16.784-5.93 26.12l-26.18.01a5.09 5.09 0 0 0-5.09 5.08v59.16c0 2.8 2.28 5.08 5.09 5.08l31.09.01c.18 2.35.6 4.8 1.51 5.83-.27 10.05-.52 20.05-.77 29.9-.63 24.93-1.27 50.71-2.29 76-.034.97.4 1.56 1.36 1.56.194 0 .267-.022 1.08-.08.01 1.37.02 2.74.02 4.11-1.63.63-2.74 2.11-3.34 3.61l-.01.01c-.05.04-.1.1-.12.17-.11.37-.2.71-.26 1.04-.04.15-.07.3-.09.44-.03.15-.05.3-.06.44-.02.13-.03.26-.03.38-.01.01-.01.02 0 .03-.01.06-.01.12-.01.18s0 .11.01.16c-.01.05 0 .1 0 .15-.01.79 0 1.33.02 1.83 0 .17 0 .33.01.5.02.4.03.83.04 1.41.01.67.39.77.77.77h.04c6.9-.11 13.98-.27 20.83-.42 2.23-.04 4.46-.09 6.68-.14h.03c.76-.02 1.52-.03 2.28-.05.34-.01.53-.16.64-.28.11-.13.16-.3.15-.48v-.03c0-.04 0-.08-.02-.12-.26-1.62-.84-2.84-2.74-3.51-1.16-.41-2.51-.81-3.81-1.2-1.2-.36-2.44-.73-3.54-1.11-1.99-.69-3.27-1.87-4.42-4.07a.414.414 0 0 0-.07-.15c-.24-.45-.71-1.24-1.77-1.14-.06-.01-.12 0-.18.02-.04.01-.07.01-.11.02l-.01-3.01c2.999-.462 2.074-.314 2.256-.344.252-.043.327-.12.392-.63.283-2.219.889-3.33 2.283-12.856 1.65-11.34 4.4-31.75 7.05-51.49 2.03-15.09 4.13-30.66 5.77-42.43 1.5 11.42 2.96 23.01 4.5 35.23 2.94 23.31 5.98 47.42 9.36 70.4.251 1.743 1.76 1.22 2.27 1.32l1.54 5.03c-1.68.61-2.82 2.12-3.43 3.64l-.01.01c-.05.04-.1.09-.12.17-.244.778-.516 2.069-.44 2.82-.01.79 0 1.32.02 1.82v.01c0 .17 0 .33.01.5.01.4.03.83.04 1.41 0 .19.03.43.2.59.24.24-1.447.26 21.68-.24l6.4-.15h.01c.01.01.03.01.04.01.03 0 .05-.01.08-.01.74-.02 1.48-.03 2.22-.05.34 0 .53-.15.63-.27.11-.13.17-.3.16-.48v-.03c0-.04-.01-.08-.02-.12-.26-1.62-.84-2.83-2.74-3.51-6.681-2.364-9.558-1.87-11.79-6.44-.01-.02-.01-.03-.02-.04-.34-.69-.83-1.07-1.53-1.17a.286.286 0 0 0-.22-.06c-.25-1.18-.5-2.36-.76-3.54h.04c.979-.027 1.52-.44 1.52-1.4v-.16c-1.53-33.88-3.06-70.2-4.64-110.3h12.93c2.74 0 5.02-2.22 5.08-4.97v-56.1c5.27 1.71 10.51 2.57 15.85 3.14l9.79 154.42c.75 11.73 10.2 20.58 21.97 20.58h126.33c6.3 0 12.42-2.66 16.78-7.31 4.35-4.63 6.62-10.88 6.22-17.15l-17.01-268.21zm-170.59 3.84c-.82-12.792 9.546-23.72 22.3-23.72h4.51c-2.667.593-5.355 1.984-7.63 3.5 0 .103-10.67 6.78-9.79 20.26l6.3 99.36c-1.448-.59-5.939-2.461-9.64-3.98l-6.05-95.42zm-59.13 57.19c.41-.17.81-.39 1.2-.63.16-.1.21-.3.12-.46-2.371-4.426-5.86-12.28-1-13.59 1.577-.417 2.425 2.327 2.77 3.9.34 1.48.93 1.75 1.38 1.71.89-.08 1.62-1.57 1.67-2.85.086-2.48-.255-5.85.73-8.28 5.38 1.26 9.5 1.62 12.66 1.45a20.361 20.361 0 0 0 2.39-.24c.73 16.275-4.706 18.488-5.02 19.18-.955.807-2.184 1.461-3.14 1.78 0 0-.01.01-.02.01-.37.14-.77.26-1.18.36-3.47.86-6.38.36-9.44-1.63-.397-.257-.772.335-.38.59 2.23 1.45 4.39 2.15 6.72 2.15 1.406 0 3.037-.309 3.96-.63-.267 1.229.094 2.559.2 3.28l-1.21 3.71c-3.41 1.08-6.86 1.08-10.27-.01l-2.17-4.65-.21-.45c.01-.11.01-.23.02-.34.07-1.61.14-2.91.22-4.36zm-53.88 114.05c-2.53 0-4.59-2.05-4.59-4.58v-59.16c0-2.52 2.06-4.58 4.59-4.58l26.09-.01c-1.07 5.46-1.9 11.04-2.18 16.76-.47 9.78 1.11 20.25 2.82 30.51h-22.66c-.996 0-1.88.867-1.88 2.04 0 1.13.84 2.04 1.88 2.04l23.35.01c.27 1.57.52 3.1.76 4.6l-24.11-.01c-1.06 0-1.88.94-1.88 2.04 0 1.13.84 2.04 1.88 2.04l24.77.01c.35 1.65 1.21 1.75 2.1 1.85l.13 1.61c-.07.5-.15 2.58-.02 4.84l-31.05-.01zm27.3-17.67-23.23-.01c-.65 0-1.18-.6-1.18-1.34 0-.713.502-1.34 1.18-1.34h22.78c.159.95-.004-.03.45 2.69zm1.42 8.68-24.65-.01c-.65 0-1.18-.6-1.18-1.34 0-.794.584-1.34 1.18-1.34l24.23.01c.15.9.29 1.79.42 2.68zm3.07 9.5-.03-.5c-.14-2.1-.1-4.1 0-4.81l-.12-1.55c.488.079 1.114.08 1.33.06.23 0 .46-.02.69-.04 3.012-.251 6.028-1.031 7.46-3.68 1.564 2.456 4.048 6.962 3.37 9.81l-2.47-.02c-.12.01-.23.06-.29.16-.01.02-.03.04-.03.07-.04.08-.04.17-.01.26.03.08.07.16.09.24 1.09 2.76.67 5.29.02 5.58-.24.1-.7-.17-1.24-1.28l-.01-.02-.38-2.39a.35.35 0 0 0-.69.11l.38 2.37v.01c-.35 1.59-.76 1.79-.89 1.82-.1.01-.47-.01-1.13-1V298.036l-.39-2.44a.356.356 0 0 0-.4-.29.35.35 0 0 0-.3.4l.39 2.45c0 .02.01.03.02.05-.47 1.02-.83 1.09-.91 1.1-.1 0-.45-.1-.92-1.21l-.01-.02-.24-2.02c-.02-.2-.19-.34-.38-.31-.2.02-.33.2-.31.39l.23 1.89c-.49.47-.89.63-1.22.47-.03-.02-.06-.03-.09-.06-.26-.17-.48-.5-.67-.94v-.01c-.45-1.09-.71-2.84-.85-4.58zm10-12.18h6.11c.66 0 1.19.6 1.19 1.34 0 .72-.516 1.34-1.19 1.34h-5.35a35.9 35.9 0 0 0-1.08-1.74c.13-.3.23-.61.32-.94zm14.8 136.25c1.61.57 2.06 1.54 2.29 3.02v.02c-.01 0-.04.01-.1.02-.67.01-1.35.03-2.02.04l-.82-3.32c.22.07.44.15.65.22zm-13.4-7.62h.01c.07-.01.14-.02.2-.02.47 0 .71.29.99.84 1.23 2.4 2.68 3.74 4.85 4.49 1.12.38 2.36.76 3.57 1.12.78.24 1.58.48 2.34.72l.89 3.59c-2.08.04-4.17.08-6.26.13-6.84.15-13.92.31-20.82.42h-.09c-.01-.02-.01-.05-.01-.08-.01-.59-.02-1.02-.04-1.43 0-.05 0-.1-.01-.14l1.46-.03 1.4-.03 20.61-.44c.19 0 .35-.16.34-.35 0-.2-.15-.35-.36-.34l-20.1.42c.11-.36.19-.73.19-1.12 0-.34-.06-.69-.21-1.06-.49-1.24-1.41-1.99-2.73-2.22.52-1.17 1.38-2.29 2.59-2.84.13-.07.27-.12.41-.17.09.15.19.29.29.43 1.47 2.12 3.6 3.23 6.08 3.15 1.9-.07 2.99-2.21 3.13-3.66 0-.01 0-.02.01-.04.01-.04.01-.09.01-.14.05-.35.15-.6.3-.77.16-.2.39-.31.69-.38.09-.02.17-.04.27-.05zm-.97-.44c-.51.26-.92.74-1.01 1.74-.1 1.04-.91 2.99-2.45 3.04-2.49.09-4.52-1.11-5.89-3.47a.354.354 0 0 0-.17-.15c0-1.33-.01-2.66-.02-3.99 3.35-.124 6.324.16 9.53-.29l.01 3.12zm18.1-113.64c-1.69 12.02-3.94 28.78-6.12 44.99-2.66 19.73-5.4 40.14-7.06 51.48-1.337 9.255-2.109 10.818-2.39 12.55-.099.745.398.416-2.54.8-3.823.538-7.473.036-11.14.4-.662.041-.85-.146-.83-.83 1.02-25.3 1.66-51.08 2.29-76.01.24-9.71.49-19.56.76-29.46.49.16 1.02.01 1.57-.44.42.83.87 1.24 1.39 1.25h.01c.48 0 .91-.35 1.31-1.07.54.67 1.04.95 1.53.85.52-.1.93-.61 1.23-1.56.75 1.11 1.4 1.06 1.76.9 1.11-.5 1.5-3.32.45-6.22h18.24l-.36 1.59c-.066.3.281.473.41.41-.01.04-.02.07-.02.11-.04-.02-.09-.03-.14-.04-.18 0-.33.13-.35.3zm42.51 121.41c1.61.57 2.05 1.54 2.29 3.02v.02c-.01 0-.05.01-.11.02-.67.01-1.34.03-2.01.04l-.82-3.33c.22.08.44.15.65.23zm-13.16-7.6c.44.07.73.31.96.78 2.168 4.466 4.828 4.445 10.76 6.34l.89 3.6c-11.859.237 1.82 0-27.18.55v-.09c0-.078-.034-1.483-.05-1.56 2.282-.04-.459.016 23.46-.5.2 0 .35-.16.35-.35-.01-.2-.18-.37-.36-.34l-20.1.42c.235-.767.28-1.443-.02-2.18-.49-1.24-1.4-1.99-2.73-2.22.56-1.26 1.52-2.46 2.89-2.96.04-.02.07-.04.11-.05 1.584 2.553 3.883 3.691 6.37 3.58 1.63 0 3.005-1.967 3.12-3.63v-.02c.04-.08.04-.16.02-.24.08-.63.43-.86.82-1.02.1-.04.21-.08.31-.11l.1-.03h.01c.1 0 .19.01.27.03zm-.84-.57c-.24.08-.52.21-.76.42-.33.29-.6.73-.63 1.45-.05 1.19-1.03 2.96-2.45 3.02-4.17.17-5.786-3.434-5.93-3.53l-1.53-5c3.44-.01 7.1.01 10.49-.08.28 1.24.55 2.48.81 3.72zm-2.11-71.97c.98 23.4 1.94 45.52 2.89 66.7.02.611-.148.81-.85.83-.975.012-2.981.122-12.75.1-.53 0-.72-.17-.8-.72-3.38-22.97-6.42-47.08-9.35-70.39-.017-.14-1.181-9.336-2.84-22.47.1-5.9.21-11.8.32-17.69l21.61.01c.6 15.05 1.19 29.57 1.77 43.63zm16.45-48.6c-.05 2.46-2.11 4.47-4.58 4.47h-13.66c-24.224-.007-4.65-.01-39.78-.01.58-2.33-.7-5.58-2.2-8.3h4.95c1.074 0 1.89-.934 1.89-2.04 0-1.12-.85-2.04-1.89-2.04h-5.96c.217-1.153.2-2.831.2-4.6h17.32c1.031 0 1.89-.899 1.89-2.04 0-1.13-.85-2.04-1.89-2.04h-17.37c0-.403-.122-4.237-.17-5.51.128.102.353.068.47-.05.129-.171.14-.358 0-.52l-.51-.62c-.002-.043.01.3-.07-1.78l.6-.71a.378.378 0 0 0-.02-.49.456.456 0 0 0-.28-.1c-.01 0-.02.01-.02.01-.12 0-.2.05-.27.13l-.05.06a358 358 0 0 1-.27-9.2c-.126-9.266.353-11.61 3.19-20.75.013-.013.01-.007.01-.02v-.05c.11-.35.22-.64.35-.99v-.07c.325-1.063 1.368-4.208 2.12-6.62l36.95-.01H183.012c2.47 0 4.53 2 4.58 4.47v59.42zm-61.07-15.91 17.36.01c.66 0 1.19.6 1.19 1.34 0 .682-.483 1.34-1.19 1.34h-17.32c-.01-.87-.02-1.77-.04-2.69zm42.72-52.84c1.2 1.49 2.42 2.95 3.89 4.36h-3.89c-.01-1.47-.01-2.92 0-4.36zm18.85 11.91v-2.59c-.06-2.74-2.34-4.96-5.08-4.96h-8.84c-1.87-1.69-3.28-3.44-4.74-5.23l-.19-.22.03-2.44c0-.19-.15-.35-.35-.35-.18.02-.35.15-.35.34l-.03 2.52v.04c-.01 1.75-.02 3.54 0 5.34l-36.8.01c.89-2.88 1.6-5.56 1.91-7.86.02-.19-.11-.37-.3-.39-.2-.03-.37.11-.4.3-.554 4.27-3.436 12.645-3.5 12.75v.07c-.02.07-.04.11-.06.18l-.01.01v.02c-.08.28-.17.56-.27.84v.01c-3.826 11.901-4.2 14.011-3.79 27.55.004.103.167 5.369.2 5.47.126 3.804.455 11.002.3 15.96-.184 5.062-3.402 6.712-8.41 6.93a8.532 8.532 0 0 1-2.11-.17c-.822-.095-1.186-.22-1.42-1.62-2.055-13.632-5.513-29.008-4.85-42.75.655-13.897 4.707-27.218 7.69-40.92v-.01c.145-.661.286-1.325.424-1.992h.003c-.003-.121.227-.257.224-.378.21-.61 2.04-5.77 3.16-7.22 3.25-4.21 9.69-6.3 16.99-6.8l2.36 5.05 6.36 13.65c.05.13.18.21.31.21.01 0 .02 0 .02-.01.15 0 .27-.1.32-.24l4.44-13.65c0-.01.01-.02.01-.03 1.35-4.188 1.29-3.929 1.29-4.03 6.84 1.27 13.09 3.58 16.94 6.53 5.11 3.9 8.23 7.59 11.53 11.5 2.57 3.03 5.23 6.17 8.89 9.42.04.02.07.05.11.06 10.5 3.957 25.078 10.365 34.7 13.93-.25.2-.46.45-.63.67-.05.06-.09.12-.17.23-.1.14-.16.24-.17.25a13.804 13.804 0 0 0-1.81 5.66c-.211.847-.037 2.097.04 2.21.01.03.02.07.03.09v.01c.1.35.24.67.45.94-12.407-1.473-23.377-1.22-34.45-4.89zm24.15-110.36c-.61-9.97 7.255-18.57 17.92-18.57h32.7c.93 0 1.72.62 1.93 1.51l1.93 8.09a2.69 2.69 0 0 0 2.63 2.06h35.99c1.42 0 2.64-1.11 2.79-2.54l.7-7.23c.1-1.06 1.02-1.89 2.09-1.89h35.03c8.91 0 16.07 6.7 16.65 15.6l1.19 18.87h-150.54l-1.01-15.9zm151.59 16.6 15.77 248.64c.02.38.04.76.04 1.13 0 4.42-1.67 8.61-4.77 11.89-3.37 3.57-7.89 5.54-12.74 5.54h-116.23c-8.92 0-16.07-6.7-16.64-15.59l-9.68-152.58c1.33.13 2.67.27 4.02.45 0 0 .01.01.02 0 .226.087.429.076.64.05.65-.09 1.29-.6 1.89-1.49.33.02.68.05 1.03.09 1.8.99 5.94 1.98 8.27 2.48.8.17 1.62.26 2.45.28h.4c4.05 0 6.16-.66 6.25-1.96.02-.39-.07-.72-.27-.97.7-.24 1.62-.7 1.69-1.42.03-.3-.06-.7-.55-1.07 1.46-.88 1.31-1.76 1.22-2.03-.17-.48-.68-.75-1.19-.64-.32.09-1.19.14-2.03.18 1.35-.76 2.82-1.89 2.82-2.42-.01-.68-.3-.99-.54-1.14-.71-.43-1.79.11-1.91.17-2.34 1.18-6.4.8-8.15.56 1.85-1.53 3.31-4.34 2.54-5.92a.935.935 0 0 0-.66-.53c-1.17-.29-3.37 1.21-5.91 3.05-.39.28-.75.54-1.06.76-.91.63-2.54 1.04-3.82 1.27a1.6 1.6 0 0 0-.43-.34c-.04-.04-.08-.06-.12-.08-.11-.04-.22-.08-.34-.13h-.01c-2.31-.86-4.7-1.78-7.11-2.75l-5.42-85.48h150.53zm-129.19 90.02c-.03.01-.06.02-.09.04-.02.01-2.05 1.3-3.46 1.32-.19.01-.34.16-.34.36 0 .19.16.34.35.34 1.41-.02 3.22-1.05 3.7-1.35h.01c.91.16 6.27 1 9.3-.52.27-.14.93-.37 1.23-.19.13.08.2.26.21.49-.19.44-2.96 2.41-4.06 2.53-.19.02-.33.19-.31.38.01.18.14.33.36.32l.33-.01c1.55-.04 3.2-.1 3.75-.25a.3.3 0 0 1 .35.19c.12.32-.27.91-1.35 1.43-.01.01-.01.01-.02.01-.41.03-2.33.17-4.02-.11a.35.35 0 0 0-.11.69c.86.14 1.77.18 2.52.18.78 0 1.4-.04 1.65-.06h.01c.42.21.64.45.62.67-.04.39-1.1.85-1.85 1.02h-.04c-.43-.02-2.66-.08-3.96-.35a.354.354 0 0 0-.42.27c-.04.19.09.38.27.42 1.41.29 3.73.34 4.11.35.35.08.49.31.47.69-.05.66-1.65 1.34-5.93 1.31-.79-.02-1.57-.11-2.32-.26-2.32-.5-6.46-1.49-8.14-2.45a.325.325 0 0 0-.13-.04c-.26-.03-.52-.05-.77-.08l-.39-.03c-.06 0-.11-.01-.16-.01-.07-.01-.15-.01-.22-.02-.06 0-.11-.01-.17-.01l-.18-.01c-.75-.056-1.99-.121-2.7-.09-.154-1.007-.04-1.56-.04-1.66.104-.206.068-2.544 1.73-5.42 0-.01.06-.09.14-.2 0-.01.05-.07.05-.08 0 0 0-.01.01-.01.14-.02.29-.03.44-.05.27-.04.57-.09.87-.13.07-.02.15-.03.22-.04.1-.02.2-.03.3-.05.07-.01.14-.03.21-.04.05-.01.1-.02.16-.03.12-.02.24-.05.37-.07 1.28-.26 2.81-.68 3.75-1.33.31-.22.68-.48 1.07-.77 1.64-1.18 4.39-3.16 5.34-2.93.09.02.15.07.19.15.64 1.32-.94 4.24-2.91 5.49zm1.06 181.92c-11.4 0-20.54-8.57-21.27-19.93l-9.78-154.29c4.325.436 7.754.662 9.44.82l9.73 153.52c.05.79.14 1.56.27 2.32.05.3.1.6.17.9.07.34.15.69.24 1.03.17.68.38 1.35.62 2 .11.32.23.62.35.93l.06.12c.1.23.2.46.3.68.08.17.16.34.24.5.12.25.24.49.38.73.14.26.28.52.43.77.17.29.35.57.54.85.18.29.38.56.58.84.17.24.36.48.55.72.23.29.47.57.71.85.22.24.44.48.67.71.5.52 1.02 1.01 1.57 1.47.21.19.43.36.65.53a19.693 19.693 0 0 0 1.55 1.11c.3.19.6.37.9.55.25.14.5.28.75.41.15.08.3.16.46.24.21.11.43.21.65.31 1.18.54 2.42.98 3.7 1.31h-4.46zm142.6-7.08c-4.23 4.5-10.16 7.08-16.27 7.08h-116.24c-5.7 0-10.84-2.14-14.64-5.7-.24-.22-.47-.45-.7-.69-3.41-3.51-5.59-8.22-5.93-13.54l-9.72-153.42c1.35.11 2.71.23 4.08.37l9.68 152.7c.59 9.26 8.04 16.24 17.34 16.24h116.23c2.53 0 4.96-.51 7.21-1.49a18.25 18.25 0 0 0 6.04-4.27c3.49-3.71 5.24-8.52 4.92-13.54l-15.79-248.92c.01-.02.01-.03.01-.05l-1.22-19.24c-.61-9.27-8.07-16.26-17.35-16.26h-35.03c-1.43 0-2.66 1.11-2.79 2.53l-.7 7.22c-.11 1.07-1.03 1.91-2.09 1.91h-35.99c-.94 0-1.73-.62-1.95-1.52l-1.93-8.09a2.658 2.658 0 0 0-2.61-2.05h-32.7c-11.081 0-19.25 8.964-18.62 19.31l1.03 16.23c0 .02 0 .04.01.06l5.42 85.46c-1.38-.55-2.77-1.11-4.16-1.69l-6.32-99.69c-.387-5.984 1.77-11.672 5.31-15.83 0-.01.01-.01.01-.01 4.228-4.962 10.506-7.88 16.98-7.88h116.24c11.4 0 20.55 8.57 21.26 19.93l17.02 268.21c.38 6.07-1.82 12.13-6.04 16.63z"/><path fill="#3c4150" d="M255.342 205.796c5.99 15.96 18.65 28.3 38.71 37.73.05.03.1.04.15.04.06 0 .11-.02.16-.04 18.69-9.45 29.55-21.8 33.17-37.78 1.08-4.62 1.38-9.87.93-16.03l-1.67-22.59a.36.36 0 0 0-.3-.32c-14.3-2.15-27.44-7.07-38.63-11.52a.359.359 0 0 0-.27.01c-10.52 4.44-22.92 9.36-36.91 11.51-.18.03-.31.19-.3.38l1.67 22.58c.45 6.13 1.53 11.38 3.29 16.03zm32.39-49.8c11.13 4.41 24.17 9.29 38.38 11.46 1.568 21.94 2.827 29.14.74 38.14-3.57 15.71-14.25 27.89-32.65 37.23-19.8-9.34-32.3-21.54-38.21-37.28-1.74-4.59-2.8-9.77-3.24-15.83l-1.65-22.26c13.88-2.19 26.18-7.05 36.63-11.46z"/><path fill="#3c4150" d="M259.961 204.066c5.3 14.13 16.42 25.23 34 33.94.05.02.11.03.16.03.06 0 .11-.01.16-.04 15.99-8.58 25.29-19.5 28.44-33.36 2.178-9.271.229-18.168-.57-33.28a.352.352 0 0 0-.28-.32c-12.42-2.3-23.66-6.36-33.96-10.42a.335.335 0 0 0-.26.01c-9.48 3.96-19.88 7.94-31.73 10.28a.35.35 0 0 0-.29.37c1.414 14.736.759 23.31 4.33 32.79zm27.83-42.74c10.22 4.02 21.36 8.04 33.68 10.35.802 15.148 2.704 23.683.57 32.8-3.09 13.62-12.23 24.35-27.93 32.82-17.32-8.61-28.27-19.57-33.49-33.48-3.504-9.204-2.869-17.636-4.27-32.29 11.74-2.34 22.04-6.28 31.44-10.2zM224.232 108.006c-.85.95-1.24 2.2-1.1 3.53.455 4.413 6.043 6.533 8.79 3.46a4.49 4.49 0 0 0 1.11-3.53c-.472-4.404-6.018-6.537-8.8-3.46zm7.17 6.52c-2.35 2.614-7.181.765-7.57-3.06-.12-1.13.21-2.19.92-2.99 2.392-2.625 7.177-.743 7.58 3.06.12 1.14-.21 2.2-.93 2.99z"/><path fill="#3c4150" d="m228.572 111.476 1.028-1.147a.35.35 0 1 0-.522-.466l-1.024 1.143-1.292-1.17a.35.35 0 1 0-.47.519l1.295 1.172-1.028 1.147a.35.35 0 1 0 .522.467l1.024-1.144 1.292 1.17a.35.35 0 1 0 .47-.519l-1.295-1.172zM339.465 108.263h12.01a.35.35 0 1 0 0-.7h-12.01a.35.35 0 1 0 0 .7zM339.487 111.493c0 .193.157.35.35.35h12.01a.35.35 0 1 0 0-.7h-12.01a.35.35 0 0 0-.35.35zM352.22 114.722h-12.01a.35.35 0 1 0 0 .7h12.01a.35.35 0 1 0 0-.7zM301.762 102.516h-18.32c-1.409 0-2.434 1.163-2.27 2.53.14 1.36 1.36 2.47 2.72 2.47h18.31c1.428 0 2.429-1.194 2.28-2.54-.14-1.36-1.36-2.46-2.72-2.46zm.44 4.3h-18.31c-1.01 0-1.92-.83-2.03-1.84-.1-.96.582-1.76 1.58-1.76h18.32c1.01 0 1.92.82 2.02 1.83.1.966-.579 1.77-1.58 1.77zM274.841 102.516h-1.85c-1.423 0-2.422 1.17-2.28 2.53.14 1.36 1.37 2.47 2.73 2.47h1.85a2.262 2.262 0 0 0 2.28-2.54c-.15-1.36-1.37-2.46-2.73-2.46zm.45 4.3h-1.85c-1.02 0-1.93-.83-2.03-1.84-.1-.96.583-1.76 1.58-1.76h1.85c1.02 0 1.92.82 2.03 1.83.101.966-.578 1.77-1.58 1.77zM337.616 122.91a.35.35 0 0 0-.467.522l3.809 3.403-3.984 3.582a.35.35 0 1 0 .468.52l4.274-3.843a.35.35 0 0 0 0-.521l-4.1-3.663zM238.651 122.906l-4.27 3.662a.35.35 0 0 0-.011.521l4.094 3.843a.352.352 0 0 0 .496-.015.35.35 0 0 0-.016-.495l-3.81-3.577 3.973-3.408a.35.35 0 0 0-.456-.531zM332.442 380.356c-3 0-5.111 2.394-4.97 5.07.13 2.78 2.56 5.04 5.42 5.04 2.871 0 4.98-2.263 4.98-4.84 0-.08-.01-.15-.01-.23-.14-2.78-2.57-5.04-5.42-5.04zm.45 9.41c-2.49 0-4.61-1.96-4.72-4.37-.123-2.335 1.724-4.34 4.27-4.34 2.48 0 4.6 1.96 4.72 4.37.106 2.436-1.835 4.34-4.27 4.34zM308.391 380.356c-2.998 0-5.11 2.394-4.97 5.07.13 2.78 2.56 5.04 5.42 5.04 2.821 0 4.98-2.192 4.98-4.84 0-.08-.01-.15-.01-.23-.14-2.78-2.57-5.04-5.42-5.04zm.45 9.41c-2.49 0-4.61-1.96-4.72-4.37-.121-2.318 1.722-4.34 4.27-4.34 2.48 0 4.6 1.96 4.72 4.37.107 2.436-1.834 4.34-4.27 4.34zM284.341 380.356c-2.96 0-5.093 2.335-4.97 5.07.13 2.78 2.56 5.04 5.42 5.04 2.711 0 4.98-2.076 4.98-4.84 0-.08-.01-.15-.01-.23-.13-2.78-2.57-5.04-5.42-5.04zm.45 9.41c-2.49 0-4.61-1.96-4.72-4.37-.128-2.437 1.851-4.34 4.27-4.34 2.49 0 4.6 1.96 4.72 4.37.109 2.473-1.863 4.34-4.27 4.34zM232.882 266.626l.87 13.51c.11 1.61 1.46 2.88 3.07 2.88h120.63c1.557 0 2.837-1.252 2.73-2.93l-.87-13.5c-.09-1.59-1.47-2.88-3.06-2.88h-120.63a2.718 2.718 0 0 0-2.74 2.92zm125.73 0 .87 13.51c.081 1.187-.806 2.18-2.03 2.18h-120.63c-1.23 0-2.29-1-2.37-2.23l-.87-13.5a2.018 2.018 0 0 1 2.04-2.18h120.63c1.26 0 2.302 1.047 2.36 2.22zM238.632 310.646c-1.612 0-2.835 1.29-2.73 2.92l.94 14.7c.11 1.59 1.49 2.88 3.07 2.88h120.63c1.565 0 2.834-1.264 2.75-2.93l-.96-14.7c-.09-1.58-1.46-2.87-3.05-2.87h-120.65zm123.01 2.92.95 14.7c.062 1.209-.847 2.18-2.05 2.18h-120.63c-1.22 0-2.29-1-2.37-2.23l-.94-14.7a2.008 2.008 0 0 1 2.03-2.18h120.65c1.21 0 2.279.978 2.36 2.23z"/><path fill="#3c4150" d="m241.831 273.696-1.66 2.16c-.07.1-.11.22-.1.33.01.17.07.3.16.4a.534.534 0 0 0 .82-.09l1.43-1.98 1.78 2c.11.15.25.22.42.22s.3-.06.39-.16a.58.58 0 0 0-.04-.73l-1.96-2.22 1.7-2.2c.07-.1.11-.21.1-.33a.523.523 0 0 0-.18-.36c-.1-.1-.24-.15-.39-.15-.18 0-.31.07-.4.2l-1.48 2.05-1.76-2.05a.542.542 0 0 0-.44-.2c-.14 0-.26.05-.36.15-.09.1-.14.23-.13.38.01.12.06.24.15.35l1.95 2.23zM251.162 273.696l-1.67 2.16c-.07.1-.1.22-.09.33.01.17.06.3.16.4.09.1.22.15.37.15.19 0 .34-.08.44-.24l1.43-1.98 1.79 2c.11.15.25.22.42.22.17 0 .3-.06.38-.16a.556.556 0 0 0-.03-.73l-1.96-2.22 1.7-2.2c.07-.1.1-.21.09-.33a.512.512 0 0 0-.17-.36.561.561 0 0 0-.39-.15c-.18 0-.32.07-.4.2l-1.49 2.05-1.76-2.05a.51.51 0 0 0-.43-.2.46.46 0 0 0-.36.15c-.1.1-.14.23-.13.38.01.12.06.24.15.35l1.95 2.23zM260.482 273.696l-1.66 2.16c-.07.1-.1.22-.1.33.01.17.07.3.16.4.1.1.22.15.38.15.18 0 .33-.08.44-.24l1.43-1.98 1.78 2c.11.15.25.22.42.22.17 0 .3-.06.39-.16a.53.53 0 0 0 .11-.39c0-.13-.05-.24-.15-.34l-1.95-2.22 1.69-2.2c.07-.1.11-.21.1-.33a.523.523 0 0 0-.18-.36c-.1-.1-.24-.15-.39-.15-.18 0-.31.07-.39.2l-1.49 2.05-1.76-2.05c-.1-.13-.25-.2-.43-.2-.15 0-.27.05-.37.15a.5.5 0 0 0-.12.38c0 .12.05.24.15.35l1.94 2.23zM269.812 273.696l-1.67 2.16c-.07.1-.1.22-.09.33.01.17.06.3.16.4.09.1.22.15.37.15.19 0 .34-.08.44-.24l1.44-1.98 1.78 2c.11.15.25.22.42.22s.3-.06.38-.16a.556.556 0 0 0-.03-.73l-1.96-2.22 1.7-2.2c.07-.1.1-.21.09-.33a.512.512 0 0 0-.17-.36.561.561 0 0 0-.39-.15c-.18 0-.31.07-.4.2l-1.49 2.05-1.76-2.05a.51.51 0 0 0-.43-.2c-.15 0-.27.05-.36.15-.1.1-.14.23-.13.38.01.12.06.24.15.35l1.95 2.23zM279.132 273.696l-1.66 2.16c-.07.1-.1.22-.1.33.01.17.07.3.16.4.1.1.22.15.38.15.19 0 .33-.08.44-.24l1.43-1.98 1.78 2c.11.15.25.22.42.22.18 0 .3-.06.39-.16.09-.11.13-.24.12-.39a.517.517 0 0 0-.16-.34l-1.95-2.22 1.69-2.2c.08-.1.11-.21.1-.33a.555.555 0 0 0-.17-.36.568.568 0 0 0-.4-.15c-.18 0-.31.07-.39.2l-1.49 2.05-1.76-2.05c-.1-.13-.25-.2-.43-.2-.15 0-.27.05-.37.15a.5.5 0 0 0-.12.38c0 .12.05.24.15.35l1.94 2.23zM288.461 273.696l-1.67 2.16c-.07.1-.1.22-.09.33.01.17.06.3.16.4.09.1.22.15.37.15.19 0 .34-.08.44-.24l1.44-1.98 1.78 2c.11.15.25.22.42.22.17 0 .3-.06.39-.16a.58.58 0 0 0-.04-.73l-1.96-2.22 1.7-2.2c.07-.1.1-.21.1-.33a.523.523 0 0 0-.18-.36.561.561 0 0 0-.39-.15c-.18 0-.31.07-.4.2l-1.49 2.05-1.76-2.05a.51.51 0 0 0-.43-.2.46.46 0 0 0-.36.15c-.1.1-.14.23-.13.38.01.12.06.24.15.35l1.95 2.23zM246.862 317.436c-1.902 0-3.367 1.526-3.24 3.48.12 1.89 1.77 3.43 3.66 3.43 1.933 0 3.374-1.579 3.25-3.48-.13-1.89-1.77-3.43-3.67-3.43zM257.911 317.436c-1.867 0-3.367 1.51-3.24 3.48.13 1.89 1.77 3.43 3.66 3.43 1.934 0 3.375-1.57 3.25-3.48-.12-1.89-1.77-3.43-3.67-3.43zM268.971 317.436c-1.956 0-3.381 1.6-3.24 3.48.12 1.89 1.76 3.43 3.66 3.43 1.934 0 3.384-1.588 3.24-3.48-.12-1.89-1.76-3.43-3.66-3.43zM280.021 317.436c-1.89 0-3.366 1.517-3.24 3.48.13 1.89 1.77 3.43 3.66 3.43 1.975 0 3.372-1.616 3.25-3.48-.13-1.89-1.77-3.43-3.67-3.43zM291.072 317.436c-1.906 0-3.365 1.553-3.24 3.48.13 1.89 1.77 3.43 3.67 3.43a3.218 3.218 0 0 0 3.24-3.48c-.12-1.89-1.77-3.43-3.67-3.43zM302.132 317.436c-1.955 0-3.382 1.598-3.24 3.48.12 1.89 1.76 3.43 3.66 3.43 1.933 0 3.383-1.588 3.24-3.48-.12-1.89-1.76-3.43-3.66-3.43zM331.521 363.846v-.16l-.63-12.38c-.1-1.81-1.65-3.27-3.45-3.27h-50.99c-1.806 0-3.234 1.446-3.15 3.3l.63 12.43c.12 1.78 1.67 3.22 3.46 3.22h50.98a3.114 3.114 0 0 0 3.15-3.14zm-56.89-.16-.63-12.38c-.062-1.432 1.024-2.57 2.45-2.57h50.99c1.44 0 2.68 1.17 2.75 2.6l.63 12.38c.082 1.403-1 2.57-2.45 2.57h-50.98c-1.43 0-2.66-1.15-2.76-2.6zM284.201 207.396c1.805 2.105 4.8 2.379 6.66.91l18.95-14.92c2.04-1.592 2.136-4.596.41-6.67-1.75-2.12-4.77-2.57-6.74-1.01l-15.48 12.17-4.17-4.77c-1.8-2.07-4.83-2.45-6.77-.84-1.974 1.66-1.985 4.683-.21 6.69l7.35 8.44zm-6.69-14.6c1.683-1.385 4.277-.977 5.79.77l4.4 5.02c.12.14.33.16.47.04l15.74-12.37c1.67-1.33 4.26-.92 5.77.91 1.499 1.767 1.411 4.341-.3 5.67l-18.96 14.92c-1.616 1.28-4.175.947-5.69-.82l-7.36-8.44c-1.491-1.7-1.543-4.27.14-5.7zM548.552 264.026c-3.229-8.07-8.857-14.33-16.92-17.79-1.094-.468-2.062-.782-2.39-.9 2.569-1.578 4.567-3.685 5.95-6.14 1.07-1.9 1.76-4.01 2.03-6.24.42-3.5-.28-6.88-1.8-9.79.03-.17.05-.35.07-.53 1.07-8.89-5.3-16.99-14.18-18.05-.66-.08-1.31-.12-1.95-.12h-.01a10.467 10.467 0 0 0-7.48-4.6c-5.48-.66-10.5 3.04-11.57 8.36-1.36.36-2.64 1-3.78 1.89a10.47 10.47 0 0 0-3.95 7.03c-.33 2.79.44 5.55 2.18 7.76.54.68 1.15 1.29 1.82 1.82a12.054 12.054 0 0 0-2.01 5.37c-.66 5.45 2.44 10.5 7.24 12.58-3.4.89-6.95 2.37-9.77 4.82-.24.21-14.29 12.78-16.1 14.4l-37.42-22.61-.03-.02h-.01c-.31-.22-.75-.21-1.32.03-2.39-4.66-6.15-11.29-7.94-10.59-.35.13-.58.53-.72.83-.23.52-.4 1.33-.27 2.17-4-3.26-7.25-5.4-9.69-6.35a.295.295 0 0 0-.1-.02c-.43-.05-.8.17-.98.57-.36.77-.02 2.07.74 2.86l4.69 3.97.51.52c-.44.11-.99.34-1.32.8-.29.4-.37.88-.26 1.45-.35.18-.91.55-1.11 1.16-.14.45-.07.93.23 1.43-.51.52-.67 1.19-.45 1.94.76 2.62 5.93 5.92 10.49 6.9-.13.74-.02 1.35.42 1.7.01.01.03.03.05.04.89.86 8.32 7.93 16.99 14.9 4.82 3.87 10.03 7.71 14.71 10.43h-21.77a1.59 1.59 0 0 0-1.48 2.16c9.405 24.366 13.66 35.53 13.76 35.63-1.52.56-2.88 1.18-4.05 1.88-17.4 10.39-45.56 77.49-46.75 80.35-.6 1.48.1 3.17 1.57 3.77l.63.26-1.22 2.34c-.44-.01-.92.08-1.44.22l-.05-.13a.258.258 0 0 0-.33-.14c-.13.06-.19.2-.13.33l.03.08c-.48.15-.98.34-1.48.52l-.07-.16a.255.255 0 0 0-.33-.14c-.12.06-.18.2-.13.33l.06.15c-.59.23-1.13.42-1.58.52h-.01l-.07-.18c-.05-.12-.2-.18-.33-.13-.12.05-.18.2-.13.33l.02.04c-.72.01-1.73-.22-2.81-.46l-.44-.1c-1.64-.37-3.19-.66-4.17-.26-.832.346-1.612 1.714-2.01 2.51a1.788 1.788 0 0 0 .78 2.39c2.67 1.36 18.472 9.425 21.26 8.34 3.424-1.263 3.378-7.232 1.66-8.26l1.9-4.42 1.22.51a2.903 2.903 0 0 0 3.4-.91l30.58-42.48c.03.1 2.053 6.62 1.93 6.22v40.8c0 2.25 1.83 4.08 4.08 4.08h10.7c-.17.39-.33.74-.51 1.02l-.16-.06a.248.248 0 0 0-.32.15c-.05.12.02.27.15.32l.03.01c-1.273 1.405-4.98 3.1-5.64 4.87-.18.49-.13 1.24.15 2.24.09.32.2.65.31.95a1.789 1.789 0 0 0 2.29 1.05c7.25-2.65 19.58-7.47 20.59-9.87.09-.22.16-.45.2-.68h46.53c2.25 0 4.09-1.83 4.09-4.08v-64.18c0-2.25-1.84-4.09-4.09-4.09h-4.06c5.91-1.31 10.35-6.62 10.33-12.91l-.06-13.88c3.525-.24 15.449-1.36 18.04-3.8.636-.566 1.086-1.428 1.35-2.22v-.01c3.446-9.48-2.417-32.596-6.61-42.8zm-27.59-19.93-3.51 7.89-5.93-.23-.3-7-.01-.24-.01-.13-.01-.21V244.006l-.01-.64-.02-1.11c.1-.021 4.022.227 7.48-3.23.14-.13.14-.36 0-.49a.338.338 0 0 0-.49 0c-2.991 2.977-7.25 3.913-10.96 2.06-.01 0-.01-.01-.01-.01-3.088-1.426-5.91-5.579-5.91-10.46-.025-.024.005-.05-.01-.08.035-1.013.139-2.855.61-4.11 1.343-.35 2.822-1.056 4.24-2.12 0-.01.01-.01.01-.01a11.767 11.767 0 0 0 3.53-4.61c.722 5.05 2.886 8.885 7.97 9.24.06 0 .13.01.2.01.21-.01.35-.13.37-.32a3.012 3.012 0 0 1 2.83-2.7c1.44-.11 2.23.87 2.37 2.89.08 1.23-.1 2.76-1.46 3.13-.13.03-.23.14-.26.27-.1.54-.24 1.09-.41 1.63-.043.127-.01.03-.09 2.79l-.02.7-.19 7.26zm-99.8-2.25c-.15-.53-.06-.95.3-1.29l.001-.002c.366.16 1.38.708 2.952 2.42a.348.348 0 0 0 .494.022.35.35 0 0 0 .021-.494c-1.797-1.957-2.945-2.503-3.32-2.643l-.008-.013c-.25-.36-.32-.69-.23-.96.13-.44.68-.73.92-.83l.002-.001c.386.173 1.392.737 2.93 2.412a.348.348 0 0 0 .494.021.35.35 0 0 0 .021-.494c-1.661-1.81-2.772-2.416-3.227-2.608-.09-.38-.04-.69.12-.92.35-.48 1.2-.61 1.49-.62a.097.097 0 0 0 .029-.007c.417.196 1.409.782 2.888 2.392a.348.348 0 0 0 .494.022.35.35 0 0 0 .021-.494c-1.783-1.943-2.927-2.496-3.31-2.64l-.002-.003c0-.01-.01-.01-.02-.01l-.86-.89-4.59-3.86-.08-.09c-.6-.61-.82-1.61-.61-2.06.06-.12.13-.17.25-.18 2.54 1.01 6 3.33 10.3 6.94l.006.005 1.631 2.724a.35.35 0 0 0 .6-.36l-1.637-2.735v-.004l-.02-.04-.13-.31c-.33-.84-.21-1.82.05-2.43.15-.33.29-.44.33-.46.87-.32 3.91 4.11 7.07 10.26.05.1.1.2.16.3.05.11.1.21.16.32.05.12.11.23.17.35.02.03.04.06.07.09.18.18.51.41.9.67.01.01.03.02.04.03-.12 2.77-1.62 4.9-4.19 6.01l-1.16-.84a.363.363 0 0 0-.17-.07c-.22-.02-.45-.05-.68-.1-.12-.01-.24-.03-.36-.05-.11-.02-.22-.04-.34-.08-4.55-.95-9.34-4.21-9.97-6.4zm87.8 58.03c.01 0 .02.01.03.02l.01.01h.02c.02.01.05.02.07.03 0 .01.01.01.01.01.14.05.27.11.4.17l2.19 9.97c-.21.16-.42.31-.63.46h-.46c0-.146-.175-.29-.24-.29-.01-.01-.02-.01-.03-.01-.113 0 .194.017-4.46-.34l-4.85-12.55c2.21.3 5.48 1.46 7.94 2.52zm-39.01-7.55c1.48 0 2.95 1.19 3.28 2.67s-.6 2.67-2.07 2.67c-1.47 0-2.94-1.19-3.27-2.67-.33-1.48.59-2.67 2.06-2.67zm-69.03 112.6a.335.335 0 1 1 0 .67c-.18 0-.34-.15-.34-.33a.35.35 0 0 1 .34-.34zm10.95 3.96c.933.964 1.022 4.007-.2 5.76-1.59.59-8.65-2.17-18.87-7.38a.35.35 0 0 0-.47.15c-.09.18-.02.39.16.48 6.77 3.45 15.11 7.35 18.46 7.51-.21.16-.44.3-.72.4-1.56.56-9.49-2.61-20.7-8.31-.53-.27-.75-.92-.48-1.45.08-.15.16-.31.26-.47 1.815 1.376 4.47.701 5.42-1.36l.17.04c1.21.27 2.35.53 3.18.46.02 0 .04 0 .06-.01l.23.57a.82.82 0 0 0-.35.67c0 .47.38.84.84.84s.84-.37.84-.84c0-.46-.38-.83-.84-.83h-.01l-.2-.49c.47-.11 1.02-.31 1.59-.52l.2.47c-.21.15-.35.41-.36.69 0 .46.38.83.84.83s.84-.37.84-.83-.38-.84-.84-.84h-.01l-.21-.5c.49-.18.99-.37 1.48-.52l.23.55a.7.7 0 0 0-.1.08.834.834 0 0 0 .59 1.43c.445 0 .83-.362.83-.83a.78.78 0 0 0-.09-.37c-.1-.23-.31-.4-.56-.45a1.1 1.1 0 0 0-.18-.02h-.01l-.23-.53c.54-.135 1.27-.288 1.77-.04.63.33 1.33 2.66 1.63 4.21.03.16.16.27.32.28.94 0 4.612.387 5.47 1.15.01.01.01.02.02.02zm-13.01-3.27a.335.335 0 1 1 0 .67c-.18 0-.34-.15-.34-.34 0-.18.16-.33.34-.33zm4.04-.65a.334.334 0 0 1-.24-.57c.04-.05.1-.08.17-.09.125-.063.4.07.4.33 0 .18-.15.33-.33.33zm8.61 2.9c-1.237-.495-3.464-.747-4.82-.83-.22-1.05-.9-3.88-1.94-4.43-.06-.03-.13-.06-.19-.09l1.15-2.19 7.67 3.19-1.87 4.35zm66.7-8.03c.202.942-.322 2.035-1.37 2.43l-9.56 3.61c-.464.115-1.388.81-2.57.23-.55-.27-.95-.73-1.13-1.31l-11.99-38.7 13.21-26.18h2.66l10.75 59.92zm-9.62 7.66-.42-1.21 7.87-2.97 1.21 2.74c-.3.14-.64.34-1.01.59-1.19.79-2.42 1.92-2.89 2.37-.91-.55-3.45-1.98-4.56-1.6-.07.02-.13.05-.2.08zm-7.38-7.94h-9.35v-30.18l9.35 30.18zm-5.97 11.74c-1.86 0-3.38-1.52-3.38-3.38v-7.66h9.56l1.49 4.75a2.906 2.906 0 0 0 2.76 2.03c.745 0 1.242-.3 1.84-.5l.5 1.41c-.3.31-.57.73-.82 1.2l-.14-.05a.261.261 0 0 0-.32.15c-.04.13.02.28.15.32l.09.03c-.23.46-.43.95-.63 1.44l-.17-.06a.248.248 0 0 0-.32.15c-.02.06-.02.12 0 .17h-10.61zm26.94 1.11c-.64 1.53-8.38 5.16-20.18 9.48-.27.1-.57.09-.83-.03s-.46-.33-.56-.6c-.06-.17-.12-.34-.17-.52 2.296-.393 3.532-2.825 2.71-4.89.84-.575 2.056-1.37 2.64-2.1.01-.02.02-.03.04-.05l.57.2c-.045.175.02.503.25.72a.835.835 0 1 0 1.14-1.22c-.33-.32-.86-.29-1.18.04l-.01.01-.49-.18c.388-.7.65-1.42.7-1.52l.49.18c-.01.02-.01.05-.01.07v.06c.02.479.38.81.83.81h.03c.23-.01.44-.1.59-.26a.842.842 0 0 0-1.24-1.14l-.46-.17-.04-.01c.2-.48.4-.98.63-1.44l.55.2c-.043.213.04.514.26.72.227.213.554.263.64.22.686-.035 1.052-.941.5-1.44a.83.83 0 0 0-1.18.04v.01l-.54-.2c.209-.418.563-.985.97-1.22.693-.579 3.61 1.092 4.38 1.57.14.09.32.07.43-.04.02-.02 1.57-1.53 2.99-2.48.37-.25.67-.42.9-.53.33-.16.55-.2.67-.21h.04c.85-.06 2.14.83 3.05 2.01.31.39.83 1.16 1.02 2.08v.01c-.09.21-.29.45-.6.71-.24.21-.55.45-.93.7-2.66 1.76-8.55 4.36-16.72 7.34a.36.36 0 0 0-.21.45c.054.152.214.269.45.21 6.76-2.46 14.76-5.68 17.64-8 .17-.13.31-.26.44-.39-.01.13-.03.26-.07.39-.03.13-.07.27-.13.41zm-14.73 1.35c.33.307-.117.795-.46.5-.15-.15.146-.789.46-.5zm.35-1.76c0-.375.606-.426.66 0 0 .242-.168.37-.32.37h-.03c-.145 0-.32-.138-.32-.32 0-.02 0-.03.01-.05zm.93-2.02c0-.02.02-.03.03-.05.323-.324.783.128.5.46-.19.19-.551.13-.59-.22 0-.066.013-.144.06-.19zm64.22-2.06a3.39 3.39 0 0 1-3.39 3.38h-46.46c0-1.05-.43-2.17-1.25-3.23-1.05-1.36-2.55-2.34-3.63-2.28-.1 0-.2.02-.31.04l-1.21-2.76.38-.14c1.13-.43 1.85-1.5 1.86-2.67h54.01v7.66zm-3.39-67.57c1.87 0 3.39 1.52 3.39 3.39v55.82h-54.08l-10.62-59.21h61.31zm-6.81-1.09-58.6-.04c-.266 0 3.111-4.601-46.06 63.74-.61.78-1.66 1.06-2.57.68l-10.14-4.2-.69-.29c-1.12-.45-1.65-1.73-1.2-2.86.3-.69 29.27-69.73 46.47-80.01 1.47-.88 3.27-1.64 5.33-2.29h76.55c.2 0 .35-.16.35-.35v-.36c0-.06 0-.11-.01-.17.456-.03 2.397-.161 2.9-.19l.05 13.83c.02 6.84-5.54 12.46-12.38 12.51zm29.97-30.28c-.17.1-.36.19-.57.29-.01 0-.01.01-.01.01-4.126 1.77-12.3 2.616-16.69 2.9-.073-.004-.18-.01-.29-.02 0 .01.01.03.01.04-1.122.094-2.655.179-3.13.21a2.722 2.722 0 0 0-2.58-1.86h-17.21c.01-.01.03-.02.04-.03.343-.25.104-.106-2.14-10.72 0-.01-.01-.02-.01-.03l32.91-6.59a.34.34 0 0 0 .27-.41.34.34 0 0 0-.41-.27l-4.15.83-.52-4.76c-.03-.19-.2-.35-.39-.31-.19.02-.33.19-.31.39l.53 4.82-28.83 5.77h-.01c-1.71-.74-5.72-2.36-8.49-2.61l-7.27-18.84a2.798 2.798 0 0 0-2.6-1.78h-4.15l.2-1.78a.347.347 0 0 0-.31-.38.343.343 0 0 0-.39.31l-.2 1.85h-21.45c-11.94-6.64-28.28-21.72-31.95-25.17-.1-.09-.18-.17-.26-.24.49-.11.95-.25 1.39-.42.22-.09.43-.17.63-.27 2.68-1.27 4.27-3.65 4.36-6.65.01-.08.01-.17.01-.25 0-.25-.01-.51-.03-.77l.16.1 36.91 22.29c.13.08.29.07.41-.03 0 0 16.04-14.35 16.29-14.57 3-2.61 6.86-4.09 10.45-4.92.24-.06.48-.11.72-.16.3-.06.59-.12.88-.17 3.025-.562 5.174-.62 5.95-.68l.34 8v.01l.59 13.5c0 .08.04.16.09.21.02.03.05.06.09.08.03.02.07.03.11.04.02 0 .04.01.06.01.11 0 .2-.04.26-.12.03-.03.05-.06.06-.09l5.89-13.24 3.57-8c.48.07.94.15 1.4.25 6.654.444 14.499 4.133 20.02 10.98.255.316 1.01 1.32 1.06 1.42v.01c7.82 10.58 15.9 47.82 8.69 51.82z"/><path fill="#3c4150" d="M504.891 228.966c-.4-.04-.77.24-.82.65-.04.39.24.76.65.81.4.04.76-.24.81-.64s-.24-.77-.64-.82zM506.341 227.726c.158.105.37.072.49-.1.084-.125.073-.377-.1-.48-.973-.643-2.162-.752-3.24-.45-.448.118-.273.8.18.68.3-.08.57-.12.84-.13a2.868 2.868 0 0 1 1.83.48zM510.692 229.586a.73.73 0 0 0-.17 1.45c.4.05.77-.24.82-.64.04-.4-.24-.76-.65-.81zM509.932 227.586c-.361.36.127.83.44.54.18-.09 1.46-.33 2.43.21.425.213.735-.387.34-.62-1.26-.69-2.96-.39-3.21-.13zM505.971 232.576c-.02.34.2.67.54.82.22.1.44.11.64.11h.12c.455 0 .456-.7-.01-.7-.142.004-.323.018-.46-.05-.09-.04-.13-.11-.13-.14 0-.265.867-.24 1.4-1.2.01-.01.01-.02.02-.03.2-.39.29-.87.26-1.41-.02-.19-.18-.32-.37-.33-.2.01-.34.18-.33.37.023.659-.139 1.277-.72 1.6-.06.03-.12.05-.18.08-.395.18-.763.444-.78.88zM508.471 235.826c-1.15.83-2.17.19-2.42-.14a.349.349 0 0 0-.49-.07c-.692.553 1.44 2.137 3.32.78a.36.36 0 0 0 .08-.49.362.362 0 0 0-.49-.08zM521.591 229.286c-.186.42.44.725.64.29.8-1.76-.13-2.95-.73-3.33a.365.365 0 0 0-.49.11c-.1.16-.05.38.11.48.05.04 1.22.82.47 2.45zM392.482 213.386h67.79l15.19 13.39c.834.734 2.096.161 2.03-.93l-.8-12.46h11.61a2.414 2.414 0 0 0 2.43-2.6l-3.41-53.02c-.09-1.41-1.32-2.56-2.73-2.56h-95.81c-1.475 0-2.532 1.184-2.45 2.61l3.42 53c.09 1.42 1.31 2.57 2.73 2.57zm-3.7-57.48h95.81c1.05 0 1.96.85 2.03 1.91l.35 5.4h-99.59l-.35-5.45c-.064-1.056.721-1.86 1.75-1.86zm98.23 8.01 3.02 46.91c.08.996-.687 1.86-1.73 1.86h-11.99c-.09 0-.18.04-.25.11s-.1.17-.09.26l.82 12.84c.032.473-.514.668-.87.36l-15.29-13.48a.318.318 0 0 0-.23-.09h-67.92c-1.05 0-1.97-.86-2.03-1.91l-3.02-46.86h99.58z"/><path fill="#3c4150" d="M392.552 161.436c.991 0 1.845-.79 1.78-1.9-.06-1.02-.95-1.85-1.97-1.85-1.015 0-1.835.804-1.77 1.9.06 1.02.95 1.85 1.96 1.85zm-.19-3.05c.66 0 1.23.54 1.27 1.2.04.635-.428 1.15-1.08 1.15-.65 0-1.22-.54-1.26-1.2-.041-.63.415-1.15 1.07-1.15zM400.372 161.436c1.03 0 1.842-.837 1.78-1.9-.07-1.02-.96-1.85-1.98-1.85-1.022 0-1.833.837-1.77 1.9.07 1.02.95 1.85 1.97 1.85zm-.2-3.05c.66 0 1.23.54 1.28 1.2a1.07 1.07 0 0 1-1.08 1.15c-.66 0-1.23-.54-1.27-1.2a1.063 1.063 0 0 1 1.07-1.15zM408.182 161.436c.991 0 1.845-.79 1.78-1.9-.07-1.02-.95-1.85-1.97-1.85a1.75 1.75 0 0 0-1.77 1.9c.06 1.02.94 1.85 1.96 1.85zm-.19-3.05c.66 0 1.23.54 1.27 1.2a1.06 1.06 0 0 1-1.08 1.15c-.65 0-1.22-.54-1.26-1.2-.041-.63.414-1.15 1.07-1.15zM451.292 161.286h30.36c.875 0 1.64-.686 1.64-1.63v-.12c-.06-.94-.88-1.7-1.82-1.7h-30.36a1.62 1.62 0 0 0-1.64 1.74c.06.94.88 1.71 1.82 1.71zm-.18-2.75h30.36c.58 0 1.08.47 1.12 1.04a.92.92 0 0 1-.94 1.01h-30.36c-.58 0-1.08-.47-1.12-1.05-.041-.546.359-1 .94-1zM432.742 197.426h50.98c.199 0 .372-.165.35-.37l-.52-8.52a.344.344 0 0 0-.35-.33h-50.98c-.1 0-.19.04-.26.11-.06.07-.1.16-.09.26l.52 8.52c.01.19.17.33.35.33zm50.14-8.52.47 7.82h-50.28l-.48-7.82h50.29zM466.913 201.92h-33.33a.35.35 0 1 0 0 .7h33.33a.35.35 0 1 0 0-.7z"/><path fill="#3c4150" d="M437.46 194.46c.91 0 1.592-.733 1.511-1.643-.074-.91-.878-1.65-1.788-1.65-.904 0-1.585.74-1.505 1.65.074.91.877 1.643 1.781 1.643zM443.649 194.46c.91 0 1.592-.733 1.512-1.643-.074-.91-.878-1.65-1.789-1.65-.904 0-1.585.74-1.505 1.65.075.91.878 1.643 1.782 1.643zM449.839 194.46c.91 0 1.592-.733 1.512-1.643-.075-.91-.879-1.65-1.789-1.65-.904 0-1.585.74-1.505 1.65.074.91.877 1.643 1.782 1.643zM456.028 194.46c.91 0 1.592-.733 1.512-1.643-.074-.91-.878-1.65-1.788-1.65-.905 0-1.586.74-1.505 1.65.074.91.877 1.643 1.781 1.643zM462.218 194.46c.91 0 1.592-.733 1.512-1.643-.074-.91-.878-1.65-1.789-1.65-.904 0-1.585.74-1.505 1.65.074.91.877 1.643 1.782 1.643zM397.102 206.256h28.85c.1 0 .19-.04.26-.11.06-.07.1-.16.09-.26l-2.27-35.85a.35.35 0 0 0-.35-.33h-28.86a.34.34 0 0 0-.25.11.37.37 0 0 0-.1.26l2.28 35.86c.01.18.16.32.35.32zm26.25-35.85 2.23 35.15h-28.15l-2.23-35.15h28.15zM154.342 169.786c.44-.09.93-.65.86-1.19-.05-.44-.39-.78-.61-1-.08-.08-.12-.12-.19-.17-.4-.5-.45-.92-.17-1.44.222-.42-.411-.725-.62-.33-.41.77-.33 1.49.25 2.21.44.434.62.617.65.81.01.16-.2.4-.32.43-.17.04-.17.04-.26.02-.101-.035-.232.007-.48-.26-.307-.354-.83.126-.52.46.336.379.822.607 1.41.46zM155.672 173.086c.17-.09.23-.3.14-.47-.384-.723-1.485 1.145-3.11-.21-.372-.298-.797.24-.45.54 1.123.933 2.157.807 3.42.14zM158.271 164.556c.04.01.08.01.11-.01a.33.33 0 0 0 .28-.29.342.342 0 0 0-.3-.39h-.03c-.99-.13-1.95-.1-2.94.12-.19.04-.31.22-.27.41.159.673.803-.143 3.15.16zM151.612 164.816c.19.02.36-.13.38-.32a.363.363 0 0 0-.32-.38c-1.25-.1-2.45.01-3.68.33-.19.05-.3.24-.25.43.19.712.952-.305 3.87-.06zM150.942 166.286c-.914-.342-1.493 1.015-.52 1.38.944.354 1.473-1.054.52-1.38zM137.812 168.856c.03.05.16.14.22.16l.14-.32.05-.15.14-.11c-.37-.49-.6-.92-.58-1.59 0-.775.59-1.164 1.02-.9.388.242.758-.357.37-.6-1.412-.864-3.095 1.242-1.36 3.51zM156.512 166.156c-.352.878 1.041 1.465 1.42.52.362-.908-1.08-1.45-1.42-.52zM87.792 242.018v5.988c0 1.72 1.4 3.12 3.12 3.12h5.984c.01 0 .018.006.028.006s.019-.005.028-.006h5.99a3.106 3.106 0 0 0 3.12-3.11v-6.005c0-.005.003-.009.003-.014l-.003-.015v-5.996c0-1.73-1.4-3.13-3.12-3.13h-12.03c-1.72 0-3.12 1.4-3.12 3.12v5.994c-.001.008-.005.015-.005.024s.004.016.005.024zm3.12 8.408c-1.34 0-2.42-1.08-2.42-2.42v-5.662h3.81v2.052c0 1.22 1 2.22 2.22 2.22h2.052v3.81h-5.662zm8.42-12.36c.84.01 1.52.69 1.52 1.53v2.386c0 .005-.003.009-.003.014l.003.014v2.386c0 .84-.68 1.52-1.52 1.52h-4.81c-.84 0-1.52-.68-1.52-1.52v-4.81c0-.83.68-1.52 1.52-1.52h4.81zm3.61 12.37h-5.668v-3.82h2.057c1.22 0 2.22-.99 2.22-2.22v-2.05h3.81v5.67c0 1.346-1.1 2.42-2.42 2.42zm2.42-14.45v5.661h-3.81v-2.051c0-1.23-1-2.22-2.22-2.23h-2.058v-3.81h5.668a2.43 2.43 0 0 1 2.42 2.43zm-14.45-2.43h5.662v3.81h-2.053c-1.22 0-2.22 1-2.22 2.22v2.058h-3.81v-5.668c0-1.33 1.08-2.42 2.42-2.42zM178.932 271.356c-23.69-.01-27.65-.01-27.92-.01-1.071 0-1.89.959-1.89 2.04 0 1.13.85 2.04 1.89 2.04l17.68.01h10.24c1.036 0 1.89-.905 1.89-2.04 0-1.13-.85-2.04-1.89-2.04zm0 3.38h-10.27l-17.65-.01c-.65 0-1.19-.6-1.19-1.34 0-.685.485-1.34 1.19-1.34h27.92c.66 0 1.19.61 1.19 1.35 0 .716-.518 1.34-1.19 1.34zM92.771 261.916c0-.1-.04-.18-.11-.25s-.16-.1-.28-.1-.22.04-.29.14l-1.15 1.44-1.17-1.44a.344.344 0 0 0-.3-.15c-.1 0-.19.04-.26.11-.08.07-.11.16-.11.27 0 .08.03.16.09.24l1.29 1.57-1.29 1.53c-.06.07-.08.15-.08.23 0 .12.03.21.09.28.07.07.15.1.26.1.14 0 .24-.05.33-.16l1.11-1.4 1.18 1.41c.08.1.17.15.3.15.12 0 .21-.03.28-.11.07-.07.1-.16.1-.27a.34.34 0 0 0-.09-.24l-1.3-1.57 1.31-1.54c.06-.08.09-.15.09-.24zM97.391 261.916c0-.1-.04-.18-.11-.25a.386.386 0 0 0-.28-.1.33.33 0 0 0-.29.14l-1.15 1.44-1.17-1.44c-.07-.1-.17-.14-.3-.14-.11 0-.19.03-.27.1-.07.07-.1.16-.1.27 0 .08.03.16.09.24l1.29 1.57-1.29 1.53c-.06.07-.09.15-.09.23 0 .12.04.21.1.28.06.07.15.1.26.1.14 0 .24-.05.33-.16l1.11-1.4 1.18 1.41c.08.1.17.15.3.15.12 0 .21-.03.28-.11.06-.07.1-.16.1-.27 0-.09-.03-.17-.09-.24l-1.3-1.56 1.31-1.55c.06-.08.09-.15.09-.24zM102.002 261.916c0-.09-.03-.18-.1-.25a.402.402 0 0 0-.28-.1c-.13 0-.22.04-.29.14l-1.16 1.44-1.16-1.44c-.07-.1-.17-.14-.3-.14-.11 0-.2.03-.27.1a.37.37 0 0 0-.11.27c0 .08.04.16.1.24l1.29 1.57-1.29 1.53c-.06.07-.09.15-.09.23 0 .12.03.21.1.28.06.07.15.1.26.1.13 0 .24-.05.33-.16l1.11-1.4 1.18 1.41c.07.1.17.15.29.15.13 0 .22-.03.29-.11.06-.07.1-.16.1-.27 0-.09-.03-.17-.1-.24l-1.29-1.56 1.31-1.55a.35.35 0 0 0 .08-.24zM104.792 263.146l-1.16-1.44c-.07-.1-.17-.14-.3-.14-.11 0-.2.03-.27.1a.378.378 0 0 0-.02.51l1.29 1.58-1.29 1.52c-.05.07-.08.15-.08.23 0 .12.03.21.1.28.06.07.15.1.26.1.13 0 .24-.05.32-.16l1.12-1.4 1.18 1.42c.07.1.17.15.29.15.341 0 .51-.373.29-.63l-1.29-1.56c1.309-1.601 1.39-1.533 1.39-1.78 0-.226-.155-.36-.38-.36-.13 0-.22.05-.29.14l-1.16 1.44zM131.532 261.926c0-.1-.03-.18-.11-.25a.37.37 0 0 0-.27-.11c-.13 0-.23.05-.29.14l-.86 1.06-.3.38-.04-.06v-.07l-.36-.37-.76-.94c-.293-.375-.92.042-.59.48l1.29 1.57c-1.197 1.458-1.37 1.504-1.37 1.76 0 .409.467.503.68.21l.76-.95.35-.44.01-.01.35.42.83 1c.07.1.17.15.29.15.12 0 .22-.04.28-.11.07-.08.1-.17.1-.27s-.03-.18-.09-.24l-1.3-1.57 1.32-1.55a.4.4 0 0 0 .08-.23zM142.592 261.926c0-.04-.01-.08-.03-.12a.258.258 0 0 0-.08-.13.834.834 0 0 0-.12-.08h-.01a.4.4 0 0 0-.15-.03c-.04 0-.07 0-.1.02-.08.01-.14.06-.19.12l-.04.05-1.11 1.4-1.17-1.45a.362.362 0 0 0-.3-.14c-.1 0-.19.04-.27.11-.07.07-.1.16-.1.27 0 .08.03.16.09.24l1.29 1.57-1.29 1.53c-.06.07-.09.14-.09.23 0 .11.04.21.1.28s.15.1.26.1c.14 0 .24-.05.33-.17l1.11-1.39 1.18 1.41c.08.1.17.15.3.15.12 0 .21-.04.28-.11.06-.08.1-.17.1-.27s-.03-.18-.09-.24l-1.3-1.57 1.31-1.55c.06-.07.09-.15.09-.23zM147.192 262.026c.01-.03.02-.06.02-.1 0-.09-.03-.17-.09-.23l-.02-.02a.41.41 0 0 0-.28-.11c-.11 0-.2.04-.26.12l-.03.03-.23.28-.93 1.16-.99-1.23-.17-.21c-.03-.04-.06-.07-.1-.08a.288.288 0 0 0-.2-.07c-.07 0-.14.02-.19.06-.03.01-.06.03-.08.05-.05.05-.09.11-.09.19-.02.02-.02.05-.02.08 0 .08.04.16.1.24l1.29 1.57-1.29 1.53c-.06.07-.09.15-.09.23 0 .12.03.21.1.28.06.07.15.1.26.1.13 0 .24-.05.33-.16l1.11-1.4 1.18 1.41c.07.1.17.15.29.15.13 0 .22-.03.29-.11.06-.08.1-.17.1-.27s-.03-.18-.1-.24l-1.29-1.57 1.31-1.55a.24.24 0 0 0 .07-.13zM151.141 265.746c.07.1.17.15.29.15s.22-.03.29-.11c.06-.07.1-.16.1-.27a.35.35 0 0 0-.1-.24l-1.29-1.57 1.31-1.54c.03-.04.05-.08.06-.13.02-.03.02-.07.02-.11 0-.05-.01-.09-.02-.13a.418.418 0 0 0-.08-.12.402.402 0 0 0-.28-.1c-.13 0-.22.04-.29.14l-.05.06-.22.27-.89 1.11-.89-1.11-.25-.31-.02-.02a.344.344 0 0 0-.3-.15c-.11 0-.2.04-.27.11-.01.01-.03.03-.03.05a.33.33 0 0 0-.08.22c0 .03 0 .06.02.09.01.05.04.1.08.15l1.29 1.57-1.29 1.53c-.06.07-.09.15-.09.23 0 .12.03.21.1.28.06.07.15.1.26.1.13 0 .24-.05.32-.16l1.12-1.4 1.18 1.41zM152.862 262.186l1.29 1.57-1.29 1.53a.4.4 0 0 0-.08.23c0 .12.03.21.1.28.06.07.15.1.26.1.13 0 .24-.05.32-.16l1.12-1.4 1.18 1.41c.07.1.17.15.29.15s.22-.03.28-.11c.07-.07.1-.16.1-.27 0-.09-.03-.17-.09-.24l-1.3-1.57 1.32-1.54a.43.43 0 0 0 .08-.24v-.03c0-.01 0-.02-.01-.03a.296.296 0 0 0-.1-.19.362.362 0 0 0-.27-.1c-.13 0-.23.04-.29.14l-.13.17-.02.02-1.01 1.25-.94-1.17-.12-.15-.1-.12c-.07-.1-.17-.14-.3-.14-.11 0-.2.03-.27.1-.04.04-.07.09-.08.14-.02.04-.03.08-.03.13 0 .02 0 .05.01.07.01.06.04.11.08.17zM167.432 262.146c.05-.06.07-.14.07-.21 0-.1-.04-.19-.11-.26s-.16-.1-.28-.1-.22.04-.29.14l-.32.4-.83 1.04-.87-1.07-.3-.37c-.07-.1-.17-.14-.3-.14-.1 0-.19.03-.26.1-.08.07-.11.16-.11.27 0 .04.01.07.02.11.01.05.04.09.07.13l1.29 1.58-1.29 1.52a.34.34 0 0 0-.08.23c0 .12.03.21.09.28.07.07.15.11.26.11.14 0 .24-.06.33-.17l1.11-1.4 1.18 1.42c.08.1.17.15.3.15.21 0 .38-.15.38-.39 0-.09-.03-.17-.09-.24l-1.3-1.56 1.31-1.55.02-.02zM172.122 261.936c0-.1-.04-.19-.11-.26a.386.386 0 0 0-.28-.1c-.12 0-.22.05-.29.14l-1.15 1.44-.04-.05-.72-.89-.41-.5a.361.361 0 0 0-.3-.14c-.02 0-.04 0-.06.01-.08 0-.15.03-.21.09-.07.07-.1.16-.1.27 0 .09.03.17.09.24l.35.43.66.81.28.34-.26.31-.6.7-.43.51c-.06.07-.09.15-.09.23 0 .1.03.18.07.24l-.21.01c.09.04.31.16.52.27h.01c.39.19.72.34.08-.04a.814.814 0 0 1-.12-.08c.15-.03.4-.22.85-.78.17-.21.37-.47.6-.8l.02.03 1.16 1.39c.08.1.17.15.3.15.12 0 .21-.04.28-.12.06-.07.1-.16.1-.27 0-.09-.03-.17-.09-.24l-1.3-1.56 1.31-1.55c.06-.07.09-.15.09-.23zM176.732 261.936c0-.1-.03-.19-.1-.26a.402.402 0 0 0-.28-.1c-.13 0-.22.05-.29.14l-1.16 1.44-1.16-1.44a.361.361 0 0 0-.3-.14c-.11 0-.2.03-.27.1s-.11.16-.11.27c0 .09.04.17.1.25l1.29 1.57-1.29 1.52c-.06.07-.09.15-.09.23 0 .12.03.21.1.28.06.07.15.11.26.11.13 0 .24-.06.33-.17l1.11-1.4 1.18 1.42c.07.1.17.15.29.15.13 0 .22-.04.29-.12.06-.07.1-.16.1-.27 0-.09-.03-.17-.1-.24l-1.29-1.56 1.31-1.55a.34.34 0 0 0 .08-.23zM181.352 261.936c0-.1-.03-.19-.1-.26a.455.455 0 0 0-.28-.1c-.13 0-.22.05-.29.14l-1.16 1.44-1.16-1.44a.361.361 0 0 0-.3-.14c-.11 0-.2.03-.27.1s-.11.16-.11.27c0 .09.03.17.09.25l1.29 1.57-1.29 1.52a.4.4 0 0 0-.08.23c0 .12.03.21.1.28.06.07.15.11.26.11.13 0 .24-.06.32-.17l1.12-1.4 1.18 1.42c.07.1.17.15.29.15s.22-.04.29-.11c.06-.08.1-.17.1-.27s-.04-.18-.1-.25l-1.29-1.56 1.31-1.55a.34.34 0 0 0 .08-.23zM161.932 238.556h13.5c.25 0 .46-.15.54-.38.09-.23.03-.48-.16-.64l-6.46-5.61-.29-.25a.534.534 0 0 0-.41-.13.56.56 0 0 0-.35.13l-6.75 5.86a.59.59 0 0 0-.16.64c.09.23.3.38.54.38zm-.11-.71 6.74-5.87c.03-.03.07-.04.1-.05h.02c.04 0 .08.02.12.05l.57.49 6.18 5.38c.09.07.06.17.05.19-.01.03-.05.12-.17.12h-13.5c-.11 0-.15-.09-.16-.12-.01-.03-.04-.12.05-.19z"/><path fill="#3c4150" d="M157.972 253.546h21.42c.34 0 .62-.27.62-.61v-.81c0-.34-.28-.62-.62-.62h-1.3c.01-.01.01-.03.01-.04v-1.15c0-.25-.2-.45-.45-.45h-.36v-7.94h.37c.24 0 .44-.2.44-.45v-1.15c0-.02 0-.04-.01-.05h.86c.32 0 .61-.19.72-.5.12-.3.03-.64-.21-.86l-10.14-8.81-.13-.11a.821.821 0 0 0-.57-.19c-.16.01-.32.08-.45.19l-10.26 8.92c-.25.22-.33.55-.22.86.12.31.4.5.73.5h.86c-.01.02-.01.03-.01.05v1.15c0 .24.2.44.45.44h.36v7.95h-.36c-.25 0-.45.2-.45.45v1.14c0 .02 0 .03.01.05h-1.31c-.34 0-.62.27-.62.62v.8c0 .34.28.62.62.62zm19.73-3.23v1.15c0 .02-.02.04-.05.04h-4.22c-.03 0-.05-.02-.05-.04v-1.15c0-.03.02-.05.05-.05H177.652c.03 0 .05.02.05.05zm-.81-.45h-2.7v-7.94h2.7v7.94zm.81-8.39c0 .02-.02.05-.04.05h-4.23c-.03 0-.05-.02-.05-.05v-1.15c0-.03.02-.04.05-.04h4.23c.02 0 .04.02.04.04v1.15zm-4.27.45h.36v7.94h-.36c-.25 0-.45.2-.45.45v1.15c0 .01 0 .03.01.04h-1.75c.01-.01.01-.03.01-.04v-1.15c0-.25-.21-.45-.45-.45h-.37v-7.95h.37c.24 0 .45-.2.45-.44v-1.15c0-.02 0-.03-.01-.05h1.75c-.01.01-.01.03-.01.05v1.15c0 .24.2.45.45.45zm-9.49 7.94h-.37v-7.95h.37c.25 0 .45-.2.45-.44v-1.15c0-.02 0-.03-.01-.05h1.76c-.01.02-.01.03-.01.05v1.15c0 .24.2.44.44.44h.36v7.95h-.36c-.24 0-.44.2-.44.45v1.15c0 .01 0 .03.01.04h-1.76c.01-.01.01-.03.01-.04v-1.15c0-.25-.2-.45-.45-.45zm6.09 0h-2.7v-7.95h2.7v7.95zm.2-8.35h-3.66c-.02 0-.04-.02-.04-.04v-1.15c0-.03.02-.04.04-.04h4.23c.03 0 .04.02.04.04v1.15c0 .02-.02.04-.04.04h-.57zm-3.7 9.95v-1.15c0-.03.02-.05.04-.05h4.23c.02 0 .04.02.04.05v1.15c0 .02-.02.04-.04.04h-4.23c-.02 0-.04-.02-.04-.04zm-8.11-11.59c-.19 0-.31-.12-.35-.24a.372.372 0 0 1 .1-.42l10.26-8.92c.06-.05.12-.07.19-.08.02-.01.04-.01.06-.01.09 0 .18.03.25.09l.4.35 9.86 8.57c.15.13.15.3.11.42-.05.12-.16.24-.35.24h-20.53zm1.25 1.6v-1.15c0-.03.02-.05.05-.05h4.22c.03 0 .05.03.05.05v1.15c0 .02-.02.04-.05.04h-4.22c-.03 0-.05-.02-.05-.04zm.81.44h2.69v7.95h-2.69v-7.95zm-.81 9.54v-1.14c0-.03.02-.05.05-.05h4.22c.03 0 .05.02.05.05v1.15c0 .02-.02.04-.05.04h-4.22c-.03 0-.05-.02-.05-.05zm-1.92.67c0-.13.1-.22.22-.22H179.392c.12 0 .22.1.22.22v.81c0 .11-.1.21-.22.21h-21.42c-.12 0-.22-.1-.22-.22v-.8zM105.172 170.776l6.14 2.25c.36.13.75.05 1.01-.22.27-.27.35-.65.22-1.01l-2.48-6.78c1.62-2.88 2.53-6.12 2.62-9.39.331-10.964-8.357-19.9-19.46-19.9-11.038 0-20.28 8.918-20.6 19.88-.311 10.96 8.344 19.89 19.47 19.89 4.75 0 9.39-1.67 13.08-4.72zm-31.85-15.15c.31-10.59 9.24-19.2 19.9-19.2 10.657 0 19.093 8.559 18.76 19.18-.09 3.21-.99 6.39-2.61 9.2-.05.09-.06.2-.03.3l2.55 6.93c.05.14-.03.24-.06.28-.04.03-.14.11-.27.06l-6.33-2.32a.344.344 0 0 0-.35.06 19.9 19.9 0 0 1-12.79 4.68c-10.683 0-19.082-8.57-18.77-19.17zM332.669 126.574h-86.88a.35.35 0 1 0 0 .7h86.88a.35.35 0 1 0 0-.7z"/></svg>