<svg xmlns="http://www.w3.org/2000/svg" enable-background="new 0 0 600 500" viewBox="18.4 64.095 563.2 371.91"><path fill="#f5f5f5" d="M540.6 413c0 3.4-25.4 6.1-56.8 6.1-31.3 0-56.8-2.7-56.8-6.1 0-3.4 25.4-6.1 56.8-6.1s56.8 2.8 56.8 6.1zM556 358.6H44c11.5-25.8 17.9-31.5 28.8-46.1 16.6-22.3 45.7-25.6 56.7-20 11 5.6 20.4 13.7 31 20 34.5 20.4 80.3 1.5 112.5-18.8 28.6-18 38.5 9.5 51.6-3.8 31.1-31.5 84.9-2.7 96.9 9.2 41 40.8 74.3-14.4 95.7 13 13.4 17 18 26.8 38.8 46.5zM383.7 376c.1-.2.1-.5.1-.8 0-1.4-.9-2.7-2.2-3.3-.2-1.2-1.3-2.1-2.7-2.1h-.2c-.7-1.3-2.1-2.1-3.7-2.1-1.4 0-2.7.7-3.4 1.8-.5-.3-1-.5-1.6-.5-1.4 0-2.6 1-2.7 2.3-.4-.2-.9-.4-1.4-.4-.4 0-.8.1-1.2.3-.6-.9-1.7-1.5-3-1.5-1.5 0-2.8.9-3.3 2.1-1 0-1.8.8-1.8 1.8 0 .1 0 .3.1.4-.9.2-1.5 1-1.5 1.9v.1h28.5zM431.9 390c.1-.2.1-.5.1-.8 0-1.4-.9-2.7-2.2-3.3-.2-1.2-1.3-2.1-2.7-2.1h-.2c-.7-1.3-2.1-2.1-3.7-2.1-1.4 0-2.7.7-3.4 1.8-.5-.3-1-.5-1.6-.5-1.4 0-2.6 1-2.7 2.3-.4-.2-.9-.4-1.4-.4-.4 0-.8.1-1.2.3-.6-.9-1.7-1.5-3-1.5-1.5 0-2.8.9-3.3 2.1-1 0-1.8.8-1.8 1.8 0 .1 0 .3.1.4-.9.2-1.5 1-1.5 1.9v.1h28.5z"/><path fill="#fff" d="m341.3 102.8 1.8 57.1c.2 5.2 4.4 9.3 9.6 9.3h37.1l19.6 15.3c1.1.9 2.7.1 2.6-1.3l-.8-14.1h5.6c2.7 0 5.4-1.1 7.3-3.1 1.9-2 3-4.7 2.9-7.4l-1.8-57.1c-.2-5.2-4.4-9.3-9.6-9.3h-64.2c-2.7 0-5.4 1.2-7.3 3.1-1.9 2-2.9 4.7-2.8 7.5z"/><path fill="#67db8a" d="m347.2 102.4 1.8 57.1c.1 2.1 1.7 3.7 3.8 3.7H417c2.3 0 4.2-2 4.2-4.3v-1.3l-1.8-55.8c-.1-2.1-1.7-3.7-3.8-3.7h-64.2c-2.4 0-4.3 2-4.2 4.3z"/><path fill="#fff" d="M372.9 151.5h24c1.1 0 2-.9 1.9-2l-1.2-18.8c-.1-1.1-1-2-2.2-2h-24c-1.1 0-2 .9-1.9 2l1.2 18.8c.1 1.1 1 2 2.2 2z"/><path fill="#3c4150" d="M386.6 144.8h-4.3c-.3 0-.5-.2-.4-.5l.8-4.8c-.7-.5-1.1-1.2-1.2-2-.1-1.4 1-2.5 2.4-2.5s2.6 1.1 2.7 2.5c.1.9-.3 1.6-.9 2.1l1.4 4.8c0 .2-.2.4-.5.4z"/><path fill="#3c4150" d="M386.6 145.1h-4.3c-.2 0-.5-.1-.6-.3-.1-.2-.2-.4-.1-.6l.7-4.6c-.7-.5-1.1-1.3-1.1-2.2 0-.8.2-1.5.7-2.1.5-.5 1.2-.9 2-.9 1.6 0 3 1.3 3 2.9 0 .9-.3 1.7-.9 2.2l1.3 4.6c.1.2 0 .4-.1.6-.1.3-.4.4-.6.4zm-2.8-9.8c-.6 0-1.1.2-1.5.6-.4.4-.6 1-.5 1.5 0 .7.4 1.4 1 1.8.1.1.2.2.1.3l-.8 4.8H386.6l-1.4-4.8c0-.1 0-.3.1-.4.5-.4.8-1.1.8-1.8 0-1-1-2-2.3-2z"/><path fill="#fff" d="m370.5 122.1-.1 1.6c0 .2.1.3.3.3h4.8c.2 0 .3-.1.3-.3l.1-1.6c0-.2-.1-.3-.3-.3h-.7c-.2-5.1 3-8.3 7-8.3s7.4 3.2 7.7 7.2l.5 8h3.6l-.5-8c-.4-5.9-5.5-10.8-11.5-10.8-5.9 0-10.7 4.8-10.4 11.9h-.5c-.2 0-.3.1-.3.3z"/><path fill="#3c4150" d="M398 130.7c-.1-1.3-1.2-2.4-2.5-2.4H394l-.5-7.7c-.4-6.1-5.7-11.1-11.8-11.1-6 0-10.9 4.8-10.7 11.9h-.1c-.4 0-.7.3-.7.6l-.1 1.6c0 .2.1.3.2.5.1.1.3.2.5.2h4.8c.4 0 .7-.3.7-.6l.1-1.6c0-.2-.1-.3-.2-.5-.1-.1-.3-.2-.5-.2h-.4c0-4.7 3-7.6 6.7-7.6 3.8 0 7.1 3.1 7.3 6.9l.5 7.7h-18.2c-.6 0-1.2.3-1.7.7-.4.5-.6 1.1-.6 1.7l1.2 18.8c.1 1.3 1.2 2.4 2.5 2.4h24c.6 0 1.2-.3 1.7-.7.4-.5.6-1.1.6-1.7l-1.3-18.9zm-8.1-10.1c-.3-4.2-3.8-7.5-8-7.5-4.1 0-7.6 3.4-7.4 8.7 0 .2.2.3.3.3l.7-.1v1.6l-4.7.1.1-1.6h.4c.1 0 .2 0 .3-.1.1-.1.1-.2.1-.3-.3-6.9 4.3-11.5 10-11.5 5.8 0 10.7 4.7 11.1 10.5l.5 7.7h-2.9l-.5-7.8zm8.1 30.1c-.3.3-.7.5-1.1.5h-24c-.9 0-1.8-.8-1.8-1.7l-1.2-18.8c0-.4.1-.9.4-1.2.3-.3.7-.5 1.1-.5h24c.9 0 1.8.8 1.8 1.7l1.2 18.8c.1.5-.1.9-.4 1.2z"/><path fill="#fff" d="m449.9 393.3-2.9 12.4 13.2-1 3.6-10.8c-3.3-.8-10.7.9-13.9-.6z"/><path fill="#fff" d="M450.4 400.6c0-1-.9-1.8-2-1.8-.9 0-1.6.5-1.9 1.2l-1.6 3.7-13.5 3.8c-1.8.5-3.1 2-3.1 3.7 0 .3.2.5.5.5l37.4.5c.3 0 .6-.2.6-.5l.1-4.5s0-5.7-5.2-6.9c0 0-2.6 4.8-7.7 4.2-3.3-.4-3.6-3.9-3.6-3.9zM437.1 409.1l29.7.4M433.1 407l-1.3 4.7M503.5 393.3l-.1 12.4 13-1 1.2-10.8c-3.6-.8-10.6.9-14.1-.6z"/><path fill="#fff" d="M505.6 400.6c-.2-1-1.3-1.8-2.4-1.8-.9 0-1.5.5-1.7 1.2l-.7 3.7-12.6 3.8c-1.7.5-2.6 2-2.2 3.7.1.3.4.5.7.5l37.5.5c.3 0 .5-.2.4-.5l-1-4.5s-1.3-5.7-6.8-6.9c0 0-1.5 4.8-6.8 4.2-3.2-.4-4.4-3.9-4.4-3.9zM494.2 409.1l29.9.4M489.8 407l-.2 4.7"/><path fill="#67db8a" d="M521.4 390.9c.1 1.9-1.5 3.5-3.6 3.5h-16c-1.5 0-2.8-.8-3.4-2-.1-.2-.2-.5-.2-.8L482.1 272l-13.5 119.9c-.1.7-.5 1.4-1.1 1.8-.6.5-1.3.7-2.2.7h-17.8c-1.9 0-3.4-1.4-3.3-3.1l7.4-158 2.9-.1 53.1-1.4 4.3-.1 9.5 159.2z"/><path fill="#34b75c" d="M465 392.2c.8.5 1.7 1 2.6 1.5-.6.5-1.3.7-2.2.7h-17.8c-1.9 0-3.4-1.4-3.3-3.1l7.4-158 2.9-.1c3.8 3.5 6.3 8.6 6.1 12.7-.2 4-2.2 8.1-.6 11.9 1.7 4.1 7.1 6.4 7.9 10.7.9 4.9-4.6 8.8-6 13.5-2.4 7.8 6.6 15.7 4.4 23.6-.9 3.2-3.5 5.8-5.1 8.8-4.2 8.2-.1 17.6 1.4 26.6.2 1.2.3 2.4 0 3.6-.4 1.2-1.3 16.6-2 17.6-5.2 7-3.2 25.1 4.3 30zM521.4 390.9c.1 1.9-1.5 3.5-3.6 3.5h-16c-1.5 0-2.8-.8-3.4-2 .1-1.6.5-3.2 1.1-4.8.8-1.9 2-3.7 2.8-5.6 3.4-8.7-2.6-41 .7-49.8 1.7-4.4 5.7-8.3 5.5-13-.2-3.8-3.1-7.1-4.2-10.8-2.6-9.3 6.9-18.9 3.6-28-1.3-3.8-4.8-6.9-5.8-10.9-1.3-5.6 2.9-11.2 2.5-16.9-.3-5.7-4.3-10.7-.9-16.3.9-1.6 2.3-3.1 3.9-4.4l4.3-.1 9.5 159.1z"/><path fill="#fff" d="m463.9 189.8-18.3 24.5c-2.3 3.1-6.7 4-10 2-8-4.9-22.2-15.5-31.9-34l5.9-8.2 26.5 21.1 6.2-14.9 21.6 9.5zM499.3 144.8c-1.5-2.1-16.5-3.1-20.5.2l-10.2 33.1-10.9 71.7c.2 2.7 45.4 1.5 45.2-1.2l7.8-90.2-11.4-13.6z"/><path fill="#fff" d="M493.1 249.5c1.7 8.1 28 8.5 27.5 2.6l-13.2-64.8 23 .4s-.6-24.2-6.1-30.3c-3.8-4.2-14.3-9.2-21.1-11.4-2.3-.7-3.9-1.2-3.9-1.2s-12.2 40.7-13.1 54.7c-.7 9.3 2.1 38.2 6.9 50zM455.4 202.7l-9.4 51c.5 5.9 20.5 4.1 20-1.8 1.9-10.7.5-35.3 1.8-43 2.9-16.6 11-63.9 11-63.9l-6.7 3.3-11.9 4.4c-3.8 1.4-6.9 4.3-8.6 8l-12.6 24 16.4 18zM507.4 187.4l-1.1-7.7M481.6 137.9l1.6 18.2 13.5-12.4-.9-12.9c1.6.2 3.4-.8 4.6-2.6 1.5-2.3 1.3-5.1-.4-6.2-1-.6-2.3-.6-3.4 0l.5-4.3-3.2 4c-1-5.5-4.8-9.7-9.5-9.9-5.8-.3-10.8 5.3-11.3 12.5-.4 6.8 3.3 12.6 8.5 13.6z"/><path fill="#fff" d="M496.9 123.7c.7-.2 1.4.2 1.8.8.4.6.3 1.4.1 2.1-.2.7-.7 1.2-1.2 1.7M487 137c-2.1.9-3.8 1.3-5.6.9M476.7 212.5c2.4 1 4.8 1.9 7.2 2.7 1.6.5 3.1 1 4.7 1.4 14.4 3.8 26.9 3.2 34.2 2.3 3.9-.5 6.7-3.9 6.5-7.8l.3-23.3-22.2-.4 2.5 14.9-22.6.2h-4.5l-6.7.1.6 9.9z"/><path fill="#fff" d="m482.1 206.5.5 5.2c.1.6.6 1 1.2 1l4.4-.4c.6-.1 1-.6 1-1.2l-.5-5.2c-.1-.6-.6-1-1.2-1l-4.4.4c-.6.1-1.1.6-1 1.2z"/><path fill="#fff" d="m485.5 207.2.2 2.4-1.4.1M436.5 183.7l10.5 29.7c.3.8 1 1.3 1.8 1.2l18.6-1.6c1.2-.1 1.9-1.3 1.5-2.4l-10.5-29.7c-.3-.8-1-1.3-1.8-1.2l-18.6 1.6c-1.2.1-1.9 1.3-1.5 2.4z"/><path fill="#fff" d="M476 202.8s-3.8-4.2-5.4-5.1c-1.9-1.1-6.8-1.9-6.8-1.9l1.2 3.3s-8.6-2.5-10.2-.7c-.7.8.1 1.5 1.2 2-1.2 0-2.3.2-2.7.7-.8.9.2 1.6 1.5 2.2-.2.1-.5.2-.6.4-.6.7 0 1.4.9 1.9-.1.1-.3.2-.3.3-1.6 1.8 4.6 3.1 4.6 3.1l17.4 3.2M455.9 200.4l4.8 1.1M454.6 203.2l4.7 1.1M454.9 205.5l4.8 1.1M464.9 199.1l3 2M396.2 168.8s.6 11.2 7.8 13.1l4.9-6.9c.2-.9-4.5-18.5-6.9-20.5-.9-.8-1.9 1.4-1.8 2.6v.1l.7 5-.4 1.1s-.9.2-1.3.8c0 0-1.6.4-1.7 1.4-1.3.8-1.6 1.5-1.3 3.3z"/><path fill="#3c4150" d="M524.1 412.5zM453.8 213.8zM458.7 189zM524.5 157.3c-4.1-4.5-15.1-9.5-21.2-11.5-2-.7-3.4-1.1-3.8-1.2-.4-.5-1.4-.9-2.4-1.1l-.9-12.2c1.6 0 3.4-1.1 4.5-2.8.6-.9 1-1.9 1-2.9l.1-.3c.2-.3 3.7-6.9 1.8-10.8-.6-1.3-1.8-2.2-3.5-2.6 0-1.1-.1-4-2.2-6.2-1.9-2-4.8-2.9-8.7-2.7-6.7.3-9.6-1-11.7-2-1.5-.7-2.6-1.3-4.4-.9-3.4.6-6.1 7.8-2 12.3-.5 1.2-.8 2.4-.8 3.8v.8c.2 1.8.8 3.4 1.8 4.7-.3.6-.5 1.3-.6 2-.2 1.4.2 2.8 1 3.6.6 5.5 3.9 10 8.5 11.1l.4 5.1c-1.3.3-2.4.8-3.2 1.5l-6.2 3-11.9 4.4c-3.9 1.5-7.1 4.3-8.8 8.1l-10.6 20.3-2.7.2c-1.4.1-2.3 1.5-1.8 2.9l2 5.5-2.2 5.3-24-19.1-.3-6.1h5.3c2.8 0 5.6-1.2 7.6-3.2s3.1-4.8 3-7.7l-1.8-57.1c-.2-5.4-4.5-9.6-9.9-9.6h-64.2c-2.8 0-5.6 1.2-7.6 3.3-2 2-3.1 4.8-3 7.7l1.8 57.1c.2 5.4 4.5 9.6 9.9 9.6h37l7.7 6c1.1 2.7 2.9 5.5 6.1 6.6l-.1.1c-.1.1-.1.3 0 .4 9.8 18.5 24.3 29.3 32.1 34.1 1.3.8 2.7 1.2 4.1 1.2 2.4 0 4.8-1.1 6.4-3.2l.8-1.1v.1c.3.9 1.1 1.4 2 1.4h.2l4-.4-7.2 39v.1c.2 1.9 2.1 3 4.6 3.6L444 391.4c0 .9.3 1.7.9 2.3.7.7 1.7 1.2 2.8 1.2h1.6l-.9 3.6c-1 0-1.8.6-2.2 1.4l-1.5 3.5-13.3 3.8c-2 .5-3.3 2.2-3.3 4 0 .2.1.4.2.6.2.2.4.3.7.3h2.9l34.5.5c.5 0 .9-.4.9-.8V406.5c0-.1 0-.3-.1-.5 0-.1 0-.3-.1-.4-.1-.3-.2-.7-.3-1.1-.6-1.6-1.9-3.5-4.4-4.2l1.7-5.2h1.5c.9 0 1.7-.3 2.4-.8s1.1-1.3 1.2-2.1l13.2-117.1 15.7 116.8c.3 1.8 2 3.1 3.9 3.1h1.3v3.7c-1 0-1.7.6-1.9 1.5l-.7 3.5-12.4 3.8c-1.9.6-2.9 2.2-2.5 4.1.1.4.5.8 1 .8 32.9.4 37 .5 37.4.5.3 0 .5-.1.6-.3.1-.2.2-.4.1-.6 0-.1-1-4.8-1-4.5-.7-2.8-3.1-6.1-6.7-7.1l.6-5.3c2.2 0 4.1-1.7 4-3.8l-8-134.6c2.8-.3 7.3-1.4 7.1-4.2-.6-3.2-5.8-28.5-6.5-32.1 3.2-.1 6-.4 8.4-.7 4.1-.5 7-4 6.8-8.2l.3-23h.5c.1 0 .2 0 .3-.1.1-.1.1-.2.1-.3-.1-1.3-.8-24.7-6.3-30.8zm-51.7-33v1.4c-.3-.6-.3-1.3-.2-2.1.1-.5.2-1.1.4-1.5l.1.1c-.2.7-.3 1.4-.3 2.1zm4.4-9 1.2.3c12.8 2.2 13.8 1.1 13.7 5.3v2.7l-2.2-.1c0-2.5-1.7-4-3.5-3.8-1.4.1-2.6 1.1-3.4 2.2-1-.4-2.1-.5-3.3-.3-.3-2-1.7-3.2-3.4-3-.5 0-1.1.2-1.6.5.7-1.5 1.5-2.8 2.5-3.8zm12 8.8c-.5 3.5-4 5.7-5.8 3.8-2.1-2.2 0-7.2 3.1-7.5.3 0 .8 0 1.1.2 1 .3 1.8 1.5 1.6 3.5zm-14.9-3.9c.6-.6 1.4-1 2.1-1 1.6-.1 2.6 1.1 2.7 2.7 0 .1.2 1.6-.8 3.1-1.1 1.9-3.3 3.1-4.9 1.9-.1-2.1.1-4.4.9-6.7zm7.2 17.4c-4.1-1-7.2-4.9-7.9-9.8 2 1 4.4-.5 5.5-2.7.4-.7.7-1.8.7-2.9 1-.2 2-.1 2.8.2-1.8 3.3-.4 7.1 2.7 6.8 2.1-.2 4.2-2.5 4.5-5.1l2.3.1c.2 2.1.7 2.5 1.1 2.5h.4l.1-.4c.5-2.5 2.9-4.2 4.8-4.1 1.4.1 2.2 1.1 2.3 2.8l.1.6c-.1.8-.4 1.6-.9 2.3-1.1 1.7-2.8 2.7-4.3 2.5l-.4-.1.9 12.8v.3l-.4.3-12.5 11.5-1-11.5-.1-.7-.4-4.8c.3 0 .5.1.8.1 1.3 0 2.7-.4 4.3-1.1.2-.1.3-.3.2-.5-.1-.2-.3-.3-.5-.2-1.9 1.1-3.5 1.4-5.1 1.1zm-2.4 7.6c.6-.5 1.6-.9 2.7-1.2l1.1 12.8 13.8-12.8c1.1.3 1.8.6 2.1.9-.9 3-12.2 41.2-13.1 54.6 0 .8-.1 1.7-.1 2.6h-3l-6.7.1c-.9-1-3.8-4.1-5.2-4.9-.2-.1-.3-.2-.5-.3l8.9-51.8zm8.5 60.1c.4 0 .7.3.7.7l.5 5.2c0 .4-.3.8-.7.8-.1 0-4.6.4-4.5.4-.4 0-.7-.3-.7-.7l-.5-5.2c0-.4.2-.7.6-.8.1 0 4.3-.4 4.6-.4zm-27.8.9c-.1 0-5.1-1.2-4.7-1.1-.4-.3-1.2-.7-.7-1.3.1-.1.2-.2.4-.3.1 0 4.8 1.1 4.5 1h.1c.2 0 .3-.1.3-.3 0-.2-.1-.4-.3-.4-.1 0-4.8-1.1-4.7-1.1-.1-.1-1.3-.6-1.4-1.1 0-.2.1-.4.3-.6.6-.4 1.6-.4 2.3-.4.1 0 5 1.2 4.7 1.1h.1c.2 0 .3-.1.3-.3 0-.2-.1-.4-.3-.4-.1 0-5-1.2-4.7-1.1-.4-.2-1.1-.6-1.2-1 0-.1-.1-.2.2-.5 1.4-1.6 9.6.7 9.8.8.1.1 2.2 1.5 2.9 2 .1 0 .1.1.2.1s.2-.1.3-.2c.1-.2.1-.4-.1-.5-.1-.1-3.1-2-2.9-1.9 0-.1-1-2.8-1-2.6 1.6.3 4.7 1 6.1 1.8 1.5.8 4.9 4.5 5.3 5l.6 8.7c-15.5-2.8-.3-.1-17-3.1-1-.2-4.2-1.1-4.5-2-.1-.2.1-.5.3-.7.1 0 4.3 1 4.5 1h.1c.1 0 .3-.1.3-.3.2 0 .1-.2-.1-.3zm9.6 5 6.9 1.3v.2c0 .1.1.2.2.3 3.6 1.5 7.4 2.8 9.9 3.5.8 9.1 2.9 24.8 6.3 33.2 0 .2.1.4.2.6-3.7.3-8.5.6-13.9.7-5 .1-9.2.1-12.4 0 1.3-9.5.7-27.8 1.2-37.5.9-.4 1.6-1.3 1.6-2.3zm12.8.5c.1.7.6 1.2 1.1 1.3l.1 1.7c-2.1-.7-4.3-1.5-6.4-2.4l-.6-9.4 6-.1.2 2.3c-.5.2-.9.7-.9 1.3 0 .2.5 5.2.5 5.3zm-30.3-51c1.7-3.6 4.7-6.4 8.4-7.8l11.9-4.4 5.9-2.9.1-.1-.8 4.6-8 46.6c-1.6-.6-4.1-1.1-5.6-1.4-3.3-9.2-4.2-11.8-4.4-12.4v-.2l2.2-11.6c0-.2-.1-.4-.3-.4-.2 0-.4.1-.4.3l-2 10.4-.3-.8c-.4-1-1.3-1.5-2.2-1.4-5.8.5-14.4 1.3-15 1.3l10.5-19.8zm-61.9 8.2c-.1 0-.1-.1-.2-.1h-37.1c-5 0-9.1-3.9-9.2-8.9l-1.8-57.1c-.1-2.7 1-5.3 2.8-7.2 1.9-1.9 4.4-3 7.1-3h64.2c5 0 9.1 3.9 9.2 9l1.8 57.1c.1 2.6-1 5.2-2.8 7.2-1.9 1.9-4.4 3-7.1 3h-5.6c-.1 0-.2 0-.3.1-.1.1-.1.2-.1.3l.3 5.9-1.4-1.1c-.1-.1-.2-.1-.3-.1-.1 0-.2.1-.2.1l-.1.1c-.8-3.9-4.6-18-6.9-19.8-.3-.3-.7-.3-1.1-.1-.8.4-1.4 2-1.3 3 .1.5.8 5.4.7 5.1 0 .1-.1.2-.1.3l-.2.6c-.8.3-1.1.6-1.2.8-.5.2-1.1.5-1.4.9-.3.3-.3.5-.4.6-.5.3-.9.5-1.1.8-.6.7-.5 1.1-.3 2.5 0 .2.2 2.7 1 5.4l-6.9-5.4zm12.1-.7c-.3.3-.7.9-.9 1.9-.4-.1-.4.6-1 .7-.3-1.7-.8-5.3-.7-6 0-.4.5-.8.9-.9 0 .5.1 1 .2 1.4l1.5 2.9zm-4.1 3.5s0-.1 0 0c-.1-.2-.4-.2-.5-.1-.1.1-.3.2-.4.2-.2-1-.4-2.2-.5-3.2-.2-1.3-.2-1.8.8-2.3 0 1.6.5 4.7.6 5.4zm-.8.8c.3-.1.9-.3.9-.6.3.5 1.9-.1 1.5-.7-.1-.1-.3-.2-.5 0-.1.1-.3.2-.4.2-.1-.6-.9-5.4-.6-5.9.1-.1.2-.3.3-.4 0-.1.4-.3.4-.3-.1 1.2.7 5.9.8 6.4 0 .2.2.3.5.3s.7-.1 1.1-.5c0 .9.2 2 .7 3.4.1.1.2.2.3.2h.1c.2-.1.3-.3.2-.4-1.6-4.4.2-5.5.2-5.5.2-.1.2-.3.1-.5l-1.6-3.1c-.4-1.5.1-2.6.1-2.7.1-.1.2-.9.9-.6 1.5.8 3.4 6.1 3.9 8.1.1.2.2.3.4.2.2-.1.3-.2.2-.4-.2-.8-2.2-7.5-4.3-8.5-.4-.2-.9-.2-1.3.1-.1-.8-.6-4.2-.6-4v-.1c-.1-.8.4-2.1.9-2.3.1 0 .2-.1.3 0 2.1 1.7 6.8 18.3 6.8 20-.1.1-5.1 7.1-4.8 6.6-3.9-1.2-5.7-5.7-6.5-9zm48.1 41.7c-2.3 3-6.4 3.8-9.5 1.9-7.7-4.7-22-15.4-31.7-33.6l.1-.2c.1 0 .1-.1.1-.1.1-.1 5.7-7.9 5.3-7.4l26.2 20.8c.1.1.2.1.3.1.1 0 .2-.1.2-.2l2.1-5 7.9 22.3-1 1.4zm3.5.1c-.6 0-1.3-.3-1.5-1l-.2-.5-.3-.8c0-.1-10.1-28.5-10.1-28.4-.3-.8.3-1.8 1.2-1.9 9.8-.9 16.5-1.5 16.6-1.5.6 0 1.1.4 1.3 1 4.5 12.6 3.1 8.6 2.8 7.9.2.5.9 2.6 3.1 8.9-1.8-.4-6.2-1.2-7.4.2-.5.6-.5 1.3.3 1.9-1.7.2-2.3 1.1-2.1 1.8.1.6.8 1 1.3 1.4-.3.2-.5.6-.5 1.1 0 .5.5.9.9 1.2-1.6 1.8 2.4 3.2 4.8 3.7.5.1 7.3 1.3 7.2 1.3l.1.3c.3.9-.3 1.8-1.2 1.9-7.2.6-10 .9-11 1h-.6l-.7.1-4 .4zm-2.4 39.4 7.2-39.1c4-.3 9.5-.8 13.4-1.2-.5 9.4.2 31-1.3 38.5v.1c.2 2.7-4.5 4.5-9.3 4.9-3.2.2-9.7-.1-10-3.2zm-14.9 157.6h-2.6c-.1 0-.1 0-.2-.1v-.1c0-1.5 1.2-2.9 2.8-3.4l1-.3-1 3.9zm34.3-7.2c-.7.1-1.4.3-2 .7-.7.5-1.2 1.1-1.5 1.9-.3.8-.3 1.7 0 2.5l-25.2-.3c-.2 0-.4.2-.4.3 0 .2.2.4.3.4l25.7.3h3.7v1.8c0 .1-.1.1-.2.1l-34-.5 1.1-4.1 11.7-3.3c.1 0 .2-.1.2-.2l1.5-3.7c.2-.5.8-.9 1.4-.9h.2c.2 0 .3 0 .5.1.3.1.6.2.8.4.3.3.4.6.4 1 0 0 .4 3.8 3.8 4.2 1 .1 1.9 0 2.7-.2 1.9-.5 3.3-1.7 4.3-2.7.5-.5.9-1 1-1.3h.1c2.2.7 3.3 2.1 3.9 3.5zm-4.3-4.2-.1.1s-2.6 4.5-7.4 4c-2.8-.3-3.2-3.3-3.2-3.5 0-.5-.2-1-.6-1.5-.3-.3-.7-.5-1.1-.6l.9-3.7h13.3l-1.8 5.2zm27.7 11.4h-2.6c-.2 0-.3-.1-.3-.2-.3-1.5.5-2.8 2-3.3l1.1-.3-.2 3.8zm32.6-7.2c-1.5.2-2.7 1.2-2.9 2.6-.1.8.1 1.6.5 2.4l-25.2-.3c-.2 0-.4.2-.4.3s.2.4.3.4c1.4 0 31 .4 29.6.4l.4 1.9h-.1l-34.2-.5.2-4.1 10.8-3.3c.1 0 .2-.1.2-.3l.7-3.7c.1-.5.6-.9 1.2-.9.1 0 .4 0 .7.1.7.2 1.4.8 1.5 1.5.1.2 1.3 3.8 4.7 4.1h.1c3.2.3 5.7-1.4 7-4.2h.2c2.3.8 3.8 2.2 4.7 3.6zm-18-5.7v-3.8h13.3l-.6 5.3c-.1.1-1.5 4.6-6.5 4.1-2.9-.3-4-3.4-4.1-3.6-.2-.9-1.1-1.7-2.1-2zm17.3-7.5c.1 1.5-1.2 3-3.2 3.1h-16.1c-1.6 0-3-1.1-3.2-2.5-18.5-137.9-15.5-114.1-17.4-132.4 0-.2-.2-.3-.4-.3s-.3.2-.3.4c0 .1.4 3.8.4 3.7l-.8 22c0 .2.1.3.3.3l-12 106.6c-.1.6-.4 1.2-1 1.6-.5.4-1.2.7-2 .7h-17.7c-.9 0-1.7-.3-2.3-.9-.5-.5-.7-1.1-.7-1.8l6.3-134c1.8.3 3.7.3 5.5.2 5-.4 10.2-2.4 9.9-5.6 0-.1 0-.2.1-.4 8 .3 19 0 26.8-.7 2.8 4.9 14.2 6.1 19.9 5.4l7.9 134.6zm-6.6-166.6 5.7 27.8c.4 5-22 5.1-26.2-1.3-.1-.2-.3-.4-.4-.6-.2-.5-.2-.7-.3-.8-3.3-8.2-5.3-23.3-6.2-32.2 8.1 4.7 18.1 6.4 27.4 7.1zm14.4-13.2c.2 3.8-2.5 7-6.2 7.5-10.4 1.4-22.2.8-33.9-2.2l-.3-3.8c.6-.2 1-.8 1-1.5l-.5-5.2c0-.4-.2-.7-.5-1-.2-.2-.4-.3-.7-.3l-.2-1.8 18.8-.2H509.8c.1 0 .2 0 .2-.1.1-.1.1-.2.1-.3l-2-12-.4-2.5h.6l9.7.2 11.1.2-.2 23zM508.5 187H507.7l-1-7.4c0-.2-.2-.3-.4-.3s-.3.2-.3.4l1 7.6v.1l.5 2.8.5 2.8 1.5 8.9h-3l-19.2.2h-.8c0-1 0-1.8.1-2.6.8-12.9 11.4-48.8 12.9-54 0-.1.1-.2.1-.3.2.1.5.1.8.3.7.2 1.6.5 2.7.9 7.3 2.4 17.3 7.4 20.9 11.3 5 5.5 5.9 26.6 6 29.7l-21.5-.4zM458.7 189.1z"/><path fill="#3c4150" d="M459.5 182.9s0 .1 0 0c.1.1.1.1 0 0 0 .1 0 0 0 0zM459.6 183.1zM479.4 128.2c.4.1.7.2.9.2h.1c.2 0 .3-.1.3-.3.1-.2-.1-.4-.3-.4-.2 0-.5-.1-.9-.2-.2 0-.2-.1-.2-.2-.1-.4.5-1.5 1.2-2.4.2-.2.6-.7.8-.9.3-.4-.2-.8-.5-.5l-.4.4c-.2.2-.4.5-.8 1-.6.8-1.2 1.8-1 2.5.2.4.4.7.8.8zM485.5 125.1c.5 0 .9-.5 1-1.1.1-.6-.1-1-.6-1-.4 0-.9.5-1 1.1-.1.7.1 1.1.6 1zM477.5 122.1c-.4 0-.9.5-1 1.1v.2c0 .3 0 .5.2.6.1.1.2.2.4.1.2 0 .5-.1.6-.3.2-.2.3-.5.4-.7.1-.6-.1-1-.6-1zM483.8 132.5c-1.6.8-3.1 1-4.7.7-.2 0-.4.1-.4.3 0 .2.1.4.3.4.5.1 1 .2 1.6.2 1.2 0 2.4-.3 3.6-.9.2-.1.2-.3.2-.5-.2-.3-.4-.3-.6-.2zM496.9 124.1c.5-.1 1.1.1 1.4.6.3.5.3 1.1 0 1.8-.2.5-.5 1-1.1 1.6-.1.1-.1.4 0 .5.1.1.2.1.3.1.1 0 .2 0 .3-.1.4-.4 1-1 1.3-1.8.3-.8.3-1.7-.1-2.4-.5-.8-1.4-1.2-2.2-1-.2.1-.3.3-.2.4 0 .2.2.3.3.3zM485.8 207c-.1-.1-.2-.2-.3-.2-.2 0-.3.2-.3.4l.2 2-1.1.1c-.2 0-.3.2-.3.4s.2.3.3.3l1.4-.1c.1 0 .2-.1.2-.1.1-.1.1-.2.1-.3l-.2-2.3v-.2zM443.5 183.8c-.1-.3-.4-.5-.8-.5-.1 0-2.3.2-3.1.3-.5 0-.8.6-.7 1 3.4 9.5-.4-1.2 2.9 8 .1.3.4.5.7.5.2 0-1 .1 3.2-.3.6-.1.8-.6.6-1l-2.8-8zm.4 7.9c-.5 0-1-.3-1.2-.8-.2-.5.1-.9.6-1 .5 0 1 .3 1.2.8.2.5-.1.9-.6 1zm-.8-2.5c-.4 0-1-.3-1.2-.7v-.1c-.2-.5.1-.9.6-1 .5 0 1.1.3 1.2.8.2.5-.1.9-.6 1zm-1.4-4.4c.5 0 1.1.3 1.2.8.2.5-.1.9-.6 1-.5 0-1.1-.3-1.2-.8s.1-1 .6-1z"/><ellipse cx="250.3" cy="409" fill="#f5f5f5" rx="112.3" ry="6.7"/><path fill="#34b75c" d="m146.6 107.1 12.6 280.4c.5 12 10.2 21.2 22.2 21.2H192c-12 0-21.7-9.2-22.2-21.2l-12.6-280.4c-.6-13.5 10.6-25.2 24.2-25.2h-10.6c-13.6 0-24.8 11.7-24.2 25.2z"/><path fill="#46c671" d="m151.1 107.1 12.6 280.4c.5 12 10.2 21.2 22.2 21.2h6.1c-12 0-21.7-9.2-22.2-21.2l-12.6-280.4c-.6-13.5 10.6-25.2 24.2-25.2h-6.1c-13.7 0-24.9 11.7-24.2 25.2z"/><path fill="#fff" d="m157.2 107.1 12.6 280.4c.5 12 10.2 21.2 22.2 21.2h121.5c13.6 0 24.8-11.6 24.2-25.2l-12.6-280.4c-.5-12-10.2-21.2-22.2-21.2H181.3c-13.6 0-24.7 11.7-24.1 25.2z"/><path fill="#fff" d="M327.4 397.9c-3.7 3.8-8.5 5.9-13.7 5.9H192.2c-9.5 0-17-7.1-17.5-16.6l-11.8-263.5H321L332.7 384c.2 5.1-1.6 10.1-5.3 13.9z"/><path fill="#f5f5f5" d="m162.9 123.7-.8-17c-.2-5 1.6-9.9 5.1-13.7 3.7-4 9-6.1 14.4-6.1h34.2c1.1 0 2.1.8 2.3 1.9l1.9 8.5c.2 1.1 1.2 1.9 2.4 1.9H260c1.3 0 2.4-1 2.6-2.3l.9-7.6c.1-1.3 1.3-2.3 2.6-2.3h36.6c9.5 0 17 7.2 17.5 16.7l.9 20.1H162.9z"/><path fill="#fff" d="m154.1 123.8 1 22.3c.1 1.3-1 2.3-2.3 2.3-1.1 0-1.9-.9-2-1.9l-1-22.3c-.1-1.3 1-2.3 2.3-2.3 1.1 0 1.9.8 2 1.9zM155.8 158l.2 5.3c.1 1.3-1 2.3-2.3 2.3-1.1 0-1.9-.9-2-1.9l-.2-5.3c-.1-1.3 1-2.3 2.3-2.3 1.1 0 1.9.8 2 1.9zM184 97c.2 2.7-1.7 4.8-4.4 4.8s-5-2.2-5.2-4.8c-.2-2.7 1.7-4.8 4.4-4.8s5 2.1 5.2 4.8z"/><path fill="#f5f5f5" d="M258.9 90.2c.1 1.2-.8 2.2-2.1 2.2h-19.2c-1.2 0-2.3-1-2.4-2.2-.1-1.2.8-2.2 2.1-2.2h19.2c1.2 0 2.3 1 2.4 2.2zM230.7 90.2c.1 1.2-.8 2.2-2.1 2.2h-1.9c-1.2 0-2.3-1-2.4-2.2-.1-1.2.8-2.2 2.1-2.2h1.9c1.2 0 2.3 1 2.4 2.2z"/><path fill="#fff" d="M288.2 383.4c.2 2.7-2 4.9-4.7 4.9-2.8 0-5.2-2.2-5.4-4.9-.2-2.7 2-4.9 4.7-4.9 2.8 0 5.2 2.2 5.4 4.9z"/><path fill="#e1e5e2" d="M263 383.4c.2 2.7-2 4.9-4.7 4.9-2.8 0-5.2-2.2-5.4-4.9-.2-2.7 2-4.9 4.7-4.9 2.8 0 5.2 2.2 5.4 4.9z"/><path fill="#fff" d="M237.9 383.4c.2 2.7-2 4.9-4.7 4.9-2.8 0-5.2-2.2-5.4-4.9-.2-2.7 2-4.9 4.7-4.9 2.8 0 5.2 2.2 5.4 4.9zM228.6 247.2c-.3.2-.6.3-.9.3-.5 0-1-.3-1.3-.7-.5-.7-.2-1.7.5-2.2 13.4-8.6 19-21.6 17-39.9-.1-.9.5-1.7 1.4-1.8.9-.1 1.6.5 1.7 1.4 2.2 19.3-4 33.7-18.4 42.9z"/><path fill="#e1e5e2" d="M207.3 254.1c0 .9-.7 1.6-1.6 1.6h-11.5c-.8 0-1.5-.6-1.5-1.5l-.5-11.5c0-.9.6-1.6 1.5-1.7.8 0 1.6.6 1.6 1.5l.4 10h10c.9 0 1.6.7 1.6 1.6z"/><path fill="#fff" d="M251.8 231.5c-3.3 7.5-8.3 14.1-14.9 19.4-.3.2-.6.3-1 .3-.5 0-.9-.2-1.2-.6-.5-.7-.4-1.7.3-2.2 6.2-5 10.9-11.1 14-18.2 2.8-6.6 4.2-14.1 3.8-21.9l-.9-20.8c-.1-1.9-.9-3.7-2.3-5-1.4-1.3-3.1-2.1-5-2.1-1.8-.1-3.5.7-4.7 2-1.3 1.4-2 3.3-2 5.2l1.2 26.8c0 .3-.2 20.7-18.5 27.2-.8.3-1.7-.1-2-.9-.3-.8.2-1.7 1-2 16.2-5.8 16.3-23.9 16.3-24.1l-1.2-26.7c-.1-2.8.9-5.6 2.9-7.6 1.9-1.9 4.4-3 7.1-2.9 2.6.1 5.1 1.1 7 2.9 2 1.9 3.1 4.4 3.2 7.1l.9 20.8c.4 8.3-1 16.3-4 23.3z"/><path fill="#fff" d="M246 253.2c-.3.3-.7.4-1 .4-.4 0-.9-.2-1.2-.5-.6-.7-.5-1.6.2-2.2 11.8-10.1 17.2-22 16.5-36.1l-1.2-27c-.2-3.9-1.8-7.6-4.7-10.3-2.9-2.8-6.7-4.3-10.6-4.3-3.7 0-7.2 1.5-9.7 4.2-2.7 2.8-4 6.6-3.9 10.6l.8 17.5c0 .9-.6 1.6-1.5 1.7-.9 0-1.6-.6-1.6-1.5l-.8-17.5c-.2-4.9 1.5-9.4 4.7-12.9 3.2-3.3 7.4-5.2 12-5.2 4.7 0 9.3 1.8 12.8 5.1s5.5 7.7 5.7 12.4l1.2 27c.7 14.9-5.3 27.9-17.7 38.6zM229.2 161.8c-9 5.2-14.4 15.1-13.9 25.7l1.1 23.9c.2 5-3.2 9.3-8.1 10H208c-.8 0-1.5-.6-1.5-1.4-.1-.9.5-1.7 1.4-1.8 3.2-.5 5.6-3.3 5.4-6.7l-1.1-23.9c-.5-11.8 5.4-22.8 15.5-28.6.8-.4 1.7-.2 2.1.6.4.8.1 1.7-.6 2.2z"/><path fill="#fff" d="M210.4 228.5c-.1 0-.3.1-.4.1-.7 0-1.3-.5-1.5-1.2-.2-.8.3-1.7 1.2-1.9 10.2-2.5 11.1-10.1 11.1-10.9l-1.2-26.9c-.3-6.7 2-13.1 6.6-17.9 4.6-4.8 10.8-7.4 17.5-7.4 6.7 0 13.1 2.6 18.1 7.4 4.3 4.2 7.1 9.6 7.9 15.5.1.9-.5 1.7-1.4 1.8-.8.1-1.6-.5-1.8-1.3-.7-5.2-3.1-9.9-7-13.7-4.4-4.2-10-6.5-15.9-6.5-5.8 0-11.2 2.3-15.2 6.4-4 4.1-6 9.7-5.7 15.5l1.2 27v.1c.1.1-.5 10.7-13.5 13.9zM207.9 191.5l.8 18.9c0 .9-.6 1.6-1.5 1.7h-.1c-.8 0-1.5-.6-1.5-1.5l-.8-18.9c0-.9.6-1.6 1.5-1.7.8 0 1.6.7 1.6 1.5z"/><path fill="#fff" d="m243.7 196.9-.5-10.4c0-.9.6-1.6 1.5-1.7.8-.1 1.6.6 1.6 1.5l.5 10.4c0 .9-.6 1.6-1.5 1.7h-.1c-.8 0-1.5-.6-1.5-1.5zM271.2 214.6c-.4 13.5-6.2 28.9-14.7 39.2-.3.4-.8.6-1.2.6-.3 0-.7-.1-1-.3-.7-.6-.8-1.5-.2-2.2 8-9.7 13.6-24.6 14-37.2l-.9-21.2c0-.9.6-1.6 1.5-1.7.8 0 1.6.6 1.6 1.5l.9 21.2v.1z"/><path fill="#e1e5e2" d="m191 146.5.4 9.9c0 .9-.6 1.6-1.5 1.7h-.1c-.8 0-1.5-.6-1.5-1.5l-.5-11.5c0-.4.1-.9.4-1.2.3-.3.7-.5 1.2-.5h11.5c.9 0 1.6.7 1.5 1.6 0 .9-.7 1.6-1.6 1.6H191z"/><path fill="#fff" d="M214.7 235.6h-.4c-.7 0-1.3-.5-1.5-1.2-.2-.8.3-1.7 1.1-1.9 4.8-1.3 8.6-4.2 11.2-8.5 2-3.3 3-7.2 3.1-11.4 0-.9.7-1.6 1.6-1.6.9 0 1.5.7 1.5 1.6 0 4.7-1.3 9.2-3.5 13-3 5.1-7.4 8.4-13.1 10zM286 209.7c.4 8.2-.3 16.2-2.1 23.7-2.2 9.5-5.4 16-9.5 19.2-.3.2-.6.3-1 .3-.5 0-.9-.2-1.2-.6-.5-.7-.4-1.7.3-2.2 3.4-2.7 6.3-8.8 8.4-17.4 1.7-7.2 2.4-14.9 2-22.9l-1-22.3c-.2-5.4-1.6-10.6-4-15.5-.4-.8-.1-1.7.7-2.1.8-.4 1.7-.1 2.1.7 2.6 5.3 4.1 10.9 4.4 16.7l.9 22.4z"/><path fill="#fff" d="M266.9 253.9c-.3.4-.8.6-1.2.6-.3 0-.7-.1-1-.4-.7-.5-.7-1.5-.2-2.2 6.2-7.3 12.1-23.6 11.1-37.1l-1.2-27.1c-.3-7.9-3.8-15.4-9.6-21-5.9-5.6-13.4-8.7-21.3-8.7-2.6 0-5.2.3-7.6 1-.8.2-1.7-.3-1.9-1.1-.2-.8.3-1.7 1.1-1.9 2.7-.8 5.6-1.1 8.5-1.1 8.7 0 17.1 3.4 23.5 9.5 6.4 6.2 10.2 14.3 10.6 23.1l1.2 27c1 14.5-5.3 31.4-12 39.4z"/><path fill="#e1e5e2" d="M303.6 254c0 .4-.1.9-.4 1.2-.3.3-.7.5-1.2.5h-11.5c-.9 0-1.6-.7-1.5-1.6 0-.9.7-1.6 1.6-1.6h9.9l-.4-9.9c0-.9.6-1.6 1.5-1.7.9 0 1.6.6 1.6 1.5l.4 11.6z"/><path fill="#fff" d="M204.6 184.7c.6-21 17.5-37.4 38.6-37.4 10.7 0 21 4.2 28.9 11.7 1.5 1.4 2.9 3 4.2 4.6.5.7.4 1.7-.3 2.2-.7.5-1.7.4-2.2-.2-1.2-1.5-2.5-3-3.9-4.3-7.3-7-16.8-10.9-26.8-10.9-19.3 0-34.8 15-35.4 34.3 0 .9-.7 1.5-1.6 1.5-.9.1-1.5-.6-1.5-1.5z"/><path fill="#e1e5e2" d="M299.2 156.3c0 .9-.6 1.6-1.5 1.7h-.1c-.8 0-1.5-.6-1.5-1.5l-.4-10.1h-10c-.9 0-1.6-.7-1.5-1.6 0-.9.7-1.6 1.6-1.6h11.5c.8 0 1.5.7 1.5 1.5l.4 11.6z"/><path fill="#46c671" d="m313.3 282.9 1 15.2c.1 2-1.4 3.6-3.4 3.6H190.8c-2 0-3.7-1.6-3.9-3.6l-1-15.2c-.1-2 1.4-3.6 3.4-3.6h120.1c2-.1 3.8 1.6 3.9 3.6z"/><path fill="#fff" d="M195.1 294.3c-.1-.1-.2-.2-.2-.4l-.4-6.7c0-.1 0-.3.1-.4.1-.1.2-.1.3-.1h2.6c.8 0 1.4.2 1.9.5.5.4.7.8.7 1.5 0 .4-.1.8-.2 1.1-.2.3-.4.5-.7.6.4.1.8.4 1.1.7.3.3.5.7.5 1.2 0 .7-.2 1.2-.6 1.6-.4.4-1.1.6-2.1.6h-2.7c-.1 0-.2-.1-.3-.2zm2.4-4.2c.7 0 1.1-.1 1.4-.3.3-.2.4-.5.3-.9 0-.3-.2-.6-.5-.8-.3-.2-.7-.3-1.2-.3h-2l.2 2.4h1.8zm.5 3.4c.7 0 1.2-.1 1.5-.3.3-.2.4-.5.4-.9-.1-.8-.7-1.3-2-1.3h-2.1l.2 2.5h2zM201.9 287.6c-.1-.1-.2-.2-.2-.4s0-.3.1-.4c.1-.1.2-.2.4-.2h.1c.2 0 .3.1.4.2.1.1.2.2.2.4s0 .3-.1.4c-.1.1-.2.2-.4.2h-.1c-.1-.1-.2-.1-.4-.2zm.5 6.8c-.1-.1-.2-.2-.2-.4l-.3-4.7c0-.1 0-.3.1-.4s.2-.1.3-.1c.1 0 .3 0 .4.1.1.1.2.2.2.4l.3 4.7c0 .1 0 .3-.1.4-.1.1-.2.1-.3.1s-.3 0-.4-.1zM206 294.2c-.4-.2-.8-.6-1.1-1-.3-.4-.4-1-.4-1.5 0-.6 0-1.1.2-1.5.2-.4.5-.8.9-1s.9-.4 1.5-.4 1.1.1 1.5.4.8.6 1.1 1c.3.4.4 1 .5 1.5 0 .6 0 1.1-.3 1.5-.2.4-.5.8-.9 1-.4.2-.9.4-1.5.4-.5 0-1-.1-1.5-.4zm2.3-.7c.3-.1.5-.4.6-.7.2-.3.2-.7.2-1.1 0-.5-.1-.8-.3-1.1-.2-.3-.4-.5-.7-.7-.3-.1-.6-.2-.9-.2-.3 0-.6.1-.9.2s-.5.4-.6.7c-.2.3-.2.7-.2 1.1 0 .5.1.8.3 1.1.2.3.4.5.7.7.3.1.6.2.9.2.4 0 .7-.1.9-.2zM211.9 294.4c-.1-.1-.2-.2-.2-.4l-.3-4.7c0-.1 0-.3.1-.4s.2-.1.3-.1.3 0 .4.1c.1.1.2.2.2.4v.5c.2-.3.4-.5.7-.7.3-.2.6-.3 1.1-.3.4 0 .8.1 1.1.3.3.2.5.5.7.8.4-.8 1.1-1.1 2-1.1.4 0 .8.1 1.1.3.3.2.5.5.7.8.2.3.2.7.3 1l.2 3.2c0 .1 0 .3-.1.4-.1.1-.2.1-.3.1s-.3 0-.4-.1c-.1-.1-.2-.2-.2-.4l-.2-3c0-.5-.1-.8-.3-1.1s-.5-.3-.9-.3-.7.1-.9.3c-.2.2-.4.4-.6.8l.2 3.3c0 .1 0 .3-.1.4-.1.1-.2.1-.3.1s-.3 0-.4-.1c-.1-.1-.2-.2-.2-.4l-.2-3c0-.5-.1-.8-.3-1.1s-.5-.3-.9-.3-.7.1-.9.3c-.2.2-.4.4-.6.8l.2 3.3c0 .1 0 .3-.1.4-.1.1-.2.1-.3.1s-.5-.1-.6-.2zM222.2 293.8c-.5-.5-.8-1.2-.9-2.2 0-.5 0-1 .2-1.4.2-.4.4-.8.8-1.1.4-.3.9-.4 1.4-.4.5 0 1 .1 1.4.4.4.3.7.6 1 1 .2.4.4.9.4 1.4 0 .1 0 .3-.1.4s-.2.1-.4.1h-3.7c.1.5.3.9.6 1.2.3.3.8.4 1.4.4.3 0 .6 0 .8-.1.2-.1.4-.1.7-.3h.2c.1 0 .2 0 .3.1.1.1.1.2.2.3 0 .2-.1.3-.3.4-.3.2-.6.3-.8.4-.3.1-.6.1-1.1.1-.8.1-1.5-.2-2.1-.7zm3.4-2.6c0-.4-.2-.7-.3-.9-.2-.2-.4-.4-.6-.5s-.5-.2-.8-.2-.5.1-.7.2-.4.3-.6.5c-.1.2-.2.5-.2.9h3.2zM228.4 293.1l-.2-3.4h-.8c-.1 0-.1 0-.2-.1l-.1-.1c0-.1 0-.1.1-.2l1.4-1.5c.1-.1.1-.1.2-.1s.1 0 .2.1c0 0 .1.1.1.2l.1.9h1.2c.1 0 .2 0 .3.1.1.1.1.2.1.3 0 .1 0 .2-.1.3-.1.1-.2.1-.3.1h-1.2l.2 3.3c0 .3.1.5.2.5.1.1.3.1.5.1.1 0 .3 0 .4-.1h.2c.1 0 .2 0 .3.1.1.1.1.2.1.3 0 .2-.1.3-.2.4-.3.1-.6.2-.9.2-1 .1-1.6-.4-1.6-1.4zM232.5 294.4c-.1-.1-.2-.2-.2-.4l-.3-4.7c0-.1 0-.3.1-.4s.2-.1.3-.1.3 0 .4.1c.1.1.2.2.2.4v.5c.5-.7 1-1 1.7-1h.1c.1 0 .3 0 .4.1.1.1.2.2.2.4 0 .1 0 .3-.1.3-.1.1-.2.1-.4.1h-.1c-.4 0-.7.1-1 .3-.3.2-.5.4-.7.7l.2 3.3c0 .1 0 .3-.1.4-.1.1-.2.1-.3.1s-.3 0-.4-.1zM236.2 287.6c-.1-.1-.2-.2-.2-.4s0-.3.1-.4c.1-.1.2-.2.4-.2h.1c.2 0 .3.1.4.2.1.1.2.2.2.4s0 .3-.1.4c-.1.1-.2.2-.4.2h-.1c-.2-.1-.3-.1-.4-.2zm.5 6.8c-.1-.1-.2-.2-.2-.4l-.3-4.7c0-.1 0-.3.1-.4s.2-.1.3-.1c.1 0 .3 0 .4.1.1.1.2.2.2.4l.3 4.7c0 .1 0 .3-.1.4-.1.1-.2.1-.3.1s-.3 0-.4-.1zM240.4 294.2c-.5-.2-.8-.6-1.1-1-.3-.4-.5-1-.5-1.6s.1-1.1.3-1.6c.2-.4.6-.8 1-1 .4-.2.9-.4 1.4-.4.4 0 .7 0 1 .1s.6.2.8.4c.2.1.2.2.2.4 0 .1 0 .2-.1.3-.1.1-.2.1-.3.1-.1 0-.2 0-.2-.1-.3-.1-.5-.2-.6-.3-.2-.1-.4-.1-.7-.1-.6 0-1.1.2-1.5.5-.3.4-.5.8-.4 1.4s.2 1.1.6 1.4c.4.4.9.5 1.5.5.3 0 .5 0 .6-.1.2-.1.4-.1.6-.3.1 0 .2-.1.2-.1.1 0 .2 0 .3.1.1.1.1.2.1.3 0 .2-.1.3-.2.4-.2.2-.5.3-.8.4-.3.1-.6.1-1 .1-.2.6-.7.5-1.2.2zM250.2 294l-3.1-6.6v-.2c0-.2 0-.3.1-.4.1-.1.2-.1.4-.1.1 0 .2 0 .3.1s.2.1.2.2l3 6.4 2.2-6.4c0-.1.1-.2.2-.2s.2-.1.3-.1c.2 0 .3 0 .4.1s.1.2.2.4v.2l-2.3 6.6c-.1.3-.4.5-.7.5h-.2c-.6 0-.9-.1-1-.5zM255.5 293.8c-.5-.5-.8-1.2-.9-2.2 0-.5 0-1 .2-1.4.2-.4.4-.8.8-1.1.4-.3.9-.4 1.4-.4.5 0 1 .1 1.4.4.4.3.7.6 1 1 .2.4.4.9.4 1.4 0 .1 0 .3-.1.4s-.2.1-.4.1h-3.7c.1.5.3.9.6 1.2.3.3.8.4 1.4.4.3 0 .6 0 .8-.1.2-.1.4-.1.7-.3h.2c.1 0 .2 0 .3.1.1.1.1.2.2.3 0 .2-.1.3-.3.4-.3.2-.6.3-.8.4-.3.1-.6.1-1.1.1-.9.1-1.6-.2-2.1-.7zm3.3-2.6c0-.4-.2-.7-.3-.9-.2-.2-.4-.4-.6-.5s-.5-.2-.8-.2-.5.1-.7.2-.4.3-.6.5c-.1.2-.2.5-.2.9h3.2zM261.5 294.4c-.1-.1-.2-.2-.2-.4l-.3-4.7c0-.1 0-.3.1-.4s.2-.1.3-.1.3 0 .4.1c.1.1.2.2.2.4v.5c.5-.7 1-1 1.7-1h.1c.1 0 .3 0 .4.1.1.1.2.2.2.4 0 .1 0 .3-.1.3-.1.1-.2.1-.4.1h-.1c-.4 0-.7.1-1 .3-.3.2-.5.4-.7.7l.2 3.3c0 .1 0 .3-.1.4-.1.1-.2.1-.3.1s-.3 0-.4-.1zM265.2 287.6c-.1-.1-.2-.2-.2-.4s0-.3.1-.4c.1-.1.2-.2.4-.2h.1c.2 0 .3.1.4.2.1.1.2.2.2.4s0 .3-.1.4c-.1.1-.2.2-.4.2h-.1c-.2-.1-.3-.1-.4-.2zm.5 6.8c-.1-.1-.2-.2-.2-.4l-.3-4.7c0-.1 0-.3.1-.4s.2-.1.3-.1c.1 0 .3 0 .4.1.1.1.2.2.2.4l.3 4.7c0 .1 0 .3-.1.4-.1.1-.2.1-.3.1s-.3 0-.4-.1zM268.8 294.4c-.1-.1-.2-.2-.2-.4l-.3-4.3h-.7c-.1 0-.2 0-.3-.1-.1-.1-.1-.2-.1-.3 0-.1 0-.2.1-.3.1-.1.2-.1.3-.1h.7v-.6c0-.4 0-.8.2-1.1.1-.3.3-.5.6-.6.2-.1.5-.2.8-.2.3 0 .7.1 1 .2.1 0 .1.1.2.2s.1.1.1.2 0 .2-.1.3c-.1.1-.2.1-.3.1h-.6c-.3 0-.5.1-.7.2-.1.1-.2.4-.2.8v.6h1.4c.1 0 .2 0 .3.1.1.1.1.2.1.3 0 .1 0 .2-.1.3-.1.1-.2.1-.3.1h-1.4l.3 4.3c0 .1 0 .3-.1.4-.1.1-.2.1-.3.1s-.2-.1-.4-.2zM272.1 287.6c-.1-.1-.2-.2-.2-.4s0-.3.1-.4c.1-.1.2-.2.4-.2h.1c.2 0 .3.1.4.2.1.1.2.2.2.4s0 .3-.1.4c-.1.1-.2.2-.4.2h-.1c-.1-.1-.2-.1-.4-.2zm.5 6.8c-.1-.1-.2-.2-.2-.4l-.3-4.7c0-.1 0-.3.1-.4s.2-.1.3-.1c.1 0 .3 0 .4.1.1.1.2.2.2.4l.3 4.7c0 .1 0 .3-.1.4-.1.1-.2.1-.3.1s-.3 0-.4-.1zM276.4 294.2c-.5-.2-.8-.6-1.1-1-.3-.4-.5-1-.5-1.6s.1-1.1.3-1.6c.2-.4.6-.8 1-1 .4-.2.9-.4 1.4-.4.4 0 .7 0 1 .1s.6.2.8.4c.2.1.2.2.2.4 0 .1 0 .2-.1.3-.1.1-.2.1-.3.1-.1 0-.2 0-.2-.1-.3-.1-.5-.2-.6-.3-.2-.1-.4-.1-.7-.1-.6 0-1.1.2-1.5.5-.3.4-.5.8-.4 1.4s.2 1.1.6 1.4c.4.4.9.5 1.5.5.3 0 .5 0 .6-.1.2-.1.4-.1.6-.3.1 0 .2-.1.2-.1.1 0 .2 0 .3.1.1.1.1.2.1.3 0 .2-.1.3-.2.4-.2.2-.5.3-.8.4-.3.1-.6.1-1 .1-.3.6-.8.5-1.2.2zM281.7 294.4c-.3-.1-.5-.3-.7-.6-.2-.3-.3-.5-.3-.9 0-.5.2-1 .6-1.3.4-.3 1-.5 1.9-.5h1.3v-.1c0-.5-.2-.8-.4-1-.3-.2-.6-.3-1.1-.3-.3 0-.5 0-.7.1s-.5.1-.7.2h-.1c-.1 0-.2 0-.3-.1-.1-.1-.1-.2-.1-.3 0-.2.1-.3.3-.4.6-.3 1.2-.4 1.9-.4.5 0 .9.1 1.3.3.4.2.6.5.8.8.2.3.3.7.3 1.1l.2 3.1c0 .1 0 .3-.1.4-.1.1-.2.1-.3.1s-.3 0-.4-.1c-.1-.1-.2-.2-.2-.4v-.3c-.5.6-1.2.8-2 .8-.7 0-1-.1-1.2-.2zm2.1-.9c.3-.2.5-.4.7-.6l-.1-.9h-1.2c-1.1 0-1.6.3-1.6.9 0 .3.1.5.3.6.2.2.5.2.9.2s.7-.1 1-.2zM287.4 293.1l-.2-3.4h-.8c-.1 0-.1 0-.2-.1l-.1-.1c0-.1 0-.1.1-.2l1.4-1.5c.1-.1.1-.1.2-.1s.1 0 .2.1c0 0 .1.1.1.2l.1.9h1.2c.1 0 .2 0 .3.1.1.1.1.2.1.3 0 .1 0 .2-.1.3-.1.1-.2.1-.3.1h-1.2l.2 3.3c0 .3.1.5.2.5.1.1.3.1.5.1.1 0 .3 0 .4-.1h.2c.1 0 .2 0 .3.1.1.1.1.2.1.3 0 .2-.1.3-.2.4-.3.1-.6.2-.9.2-.9.1-1.5-.4-1.6-1.4zM291 287.6c-.1-.1-.2-.2-.2-.4s0-.3.1-.4c.1-.1.2-.2.4-.2h.1c.2 0 .3.1.4.2.1.1.2.2.2.4s0 .3-.1.4c-.1.1-.2.2-.4.2h-.1c-.1-.1-.2-.1-.4-.2zm.5 6.8c-.1-.1-.2-.2-.2-.4l-.3-4.7c0-.1 0-.3.1-.4s.2-.1.3-.1c.1 0 .3 0 .4.1.1.1.2.2.2.4l.3 4.7c0 .1 0 .3-.1.4-.1.1-.2.1-.3.1s-.3 0-.4-.1zM295.1 294.2c-.4-.2-.8-.6-1.1-1-.3-.4-.4-1-.4-1.5 0-.6 0-1.1.2-1.5.2-.4.5-.8.9-1s.9-.4 1.5-.4 1.1.1 1.5.4.8.6 1.1 1c.3.4.4 1 .5 1.5 0 .6 0 1.1-.3 1.5-.2.4-.5.8-.9 1-.4.2-.9.4-1.5.4-.5 0-1-.1-1.5-.4zm2.3-.7c.3-.1.5-.4.6-.7.2-.3.2-.7.2-1.1 0-.5-.1-.8-.3-1.1-.2-.3-.4-.5-.7-.7-.3-.1-.6-.2-.9-.2-.3 0-.6.1-.9.2s-.5.4-.6.7c-.2.3-.2.7-.2 1.1 0 .5.1.8.3 1.1.2.3.4.5.7.7.3.1.6.2.9.2.4 0 .7-.1.9-.2zM301 294.4c-.1-.1-.2-.2-.2-.4l-.3-4.7c0-.1 0-.3.1-.4s.2-.1.3-.1.3 0 .4.1c.1.1.2.2.2.4v.5c.3-.3.5-.6.9-.7.3-.2.7-.3 1.1-.3.4 0 .8.1 1.1.3.3.2.6.5.7.8.2.3.3.7.3 1.1l.2 3.1c0 .1 0 .3-.1.4-.1.1-.2.1-.3.1s-.3 0-.4-.1c-.1-.1-.2-.2-.2-.4l-.2-3c-.1-.9-.5-1.3-1.3-1.3-.4 0-.7.1-1 .3-.3.2-.5.4-.8.8l.2 3.3c0 .1 0 .3-.1.4-.1.1-.2.1-.3.1s-.2-.2-.3-.3z"/><path fill="#46c671" d="M260.6 178.3c.1 1.7-1.2 3.1-2.9 3.1s-3.2-1.4-3.3-3.1c-.1-1.7 1.2-3.1 2.9-3.1 1.7-.1 3.2 1.3 3.3 3.1zM282 170.6c.1 1.7-1.2 3.1-2.9 3.1s-3.2-1.4-3.3-3.1c-.1-1.7 1.2-3.1 2.9-3.1s3.2 1.4 3.3 3.1zM231.3 160.4c.1 1.7-1.2 3.1-2.9 3.1s-3.2-1.4-3.3-3.1c-.1-1.7 1.2-3.1 2.9-3.1s3.1 1.4 3.3 3.1zM225 202.9c.1 1.7-1.2 3.1-2.9 3.1s-3.2-1.4-3.3-3.1c-.1-1.7 1.2-3.1 2.9-3.1s3.2 1.4 3.3 3.1zM249.2 210c.1 1.7-1.2 3.1-2.9 3.1s-3.2-1.4-3.3-3.1c-.1-1.7 1.2-3.1 2.9-3.1s3.2 1.4 3.3 3.1zM280.2 211.1c.1 1.7-1.2 3.1-2.9 3.1s-3.2-1.4-3.3-3.1c-.1-1.7 1.2-3.1 2.9-3.1s3.2 1.4 3.3 3.1zM268.2 236.2c.1 1.7-1.2 3.1-2.9 3.1s-3.2-1.4-3.3-3.1c-.1-1.7 1.2-3.1 2.9-3.1s3.2 1.4 3.3 3.1zM233.1 233.1c.1 1.7-1.2 3.1-2.9 3.1s-3.2-1.4-3.3-3.1c-.1-1.7 1.2-3.1 2.9-3.1s3.2 1.4 3.3 3.1z"/><path fill="#fff" d="M231.8 317.6h-54.3M276 317.6h-37.6M322 317.6h-39.7M199.2 327.9h-21.1M258.8 327.9h-51M322.7 327.9h-57.1M232 338.1h-53.2M296.1 338.1h-57.9M323.3 338.1h-21.4M203.9 348.3h-24.5M262.5 348.3h-52.2M323.9 348.3h-55M298.6 358.6h26M235.8 358.6h57.9M180 358.6h47.8M212.6 368.8h-31.9M263.8 368.8H219M325.2 368.8h-53.8"/><path fill="#3c4150" d="m338 383.5-12.6-280.4c-.5-12.3-10.3-21.5-22.6-21.5h-132c-6.6 0-13 2.8-17.7 7.6-4.6 4.8-7.1 11.4-6.8 17.9l12.6 280.5c.6 12.3 10.3 21.5 22.6 21.5h132c6.6 0 13-2.8 17.7-7.6 4.6-4.9 7.1-11.4 6.8-18zm-156.6 24.9c-11.9 0-21.3-9-21.9-20.8L147 107.1c-.3-6.3 2.1-12.7 6.6-17.4 4.5-4.7 10.8-7.4 17.2-7.4h4.8c-10.9 2.5-19.3 13.1-18.8 24.8l12.6 280.5c.6 10.7 7.5 18.4 16.8 20.8h-4.8zm149.3-7.4c-4.5 4.7-10.8 7.4-17.2 7.4H192c-11.8 0-21.3-8.9-21.9-20.8l-12.6-280.5c-.6-13.3 10.4-24.8 23.8-24.8h121.5c11.9 0 21.3 9 21.9 20.8l12.6 280.4c.3 6.4-2.1 12.8-6.6 17.5z"/><path fill="#3c4150" d="m321.4 123.6-.9-20.1c-.5-9.7-8.1-17-17.8-17H266c-1.5 0-2.8 1.2-3 2.6l-.9 7.5c-.1 1.1-1.1 2-2.3 2h-37.6c-1 0-1.8-.7-2-1.6l-1.9-8.5c-.3-1.3-1.4-2.1-2.7-2.1h-34.2c-11.5 0-20.3 9.3-19.8 20.2l.8 17 11.8 263.5c.4 9.7 8.1 17 17.8 17h121.5c5.3 0 10.2-2.1 13.9-6 3.7-3.9 5.6-8.9 5.4-14.1l-11.4-260.4zm-158.9-16.9c-.4-10.4 8-19.4 19.1-19.4h34.2c1 0 1.8.7 2 1.6l1.9 8.5c.3 1.3 1.4 2.1 2.7 2.1H260c1.5 0 2.8-1.1 3-2.6l.9-7.5c.1-1.1 1.1-2 2.3-2h36.6c9.3 0 16.7 7 17.1 16.3l.9 19.8H163.2l-.7-16.8zM332.4 384c.2 5-1.6 9.9-5.2 13.6-3.6 3.7-8.4 5.8-13.4 5.8H192.2c-9.3 0-16.7-7-17.1-16.3L163.2 124h157.4l11.8 260z"/><path fill="#3c4150" d="M179.6 102.2c2.8 0 5-2.3 4.8-5.2-.2-2.8-2.7-5.1-5.6-5.1-2.9 0-5 2.4-4.8 5.2.3 2.8 2.8 5.1 5.6 5.1zm-.8-9.7c2.5 0 4.7 2 4.9 4.5.2 2.5-1.6 4.4-4 4.4-2.5 0-4.7-2-4.9-4.5-.2-2.4 1.5-4.4 4-4.4z"/><path fill="#3c4150" d="m178.7 97-1.1 1.2c-.1.1-.1.4 0 .5.1.1.2.1.2.1.1 0 .2 0 .3-.1l1.1-1.2 1.3 1.2c.1.1.2.1.2.1.1 0 .2 0 .3-.1.1-.1.1-.4 0-.5l-1.3-1.2 1.1-1.2c.1-.1.1-.4 0-.5-.1-.1-.4-.1-.5 0l-1.1 1.2-1.3-1.2c-.1-.1-.4-.1-.5 0s-.1.4 0 .5l1.3 1.2zM295.8 93.6h12.6c.2 0 .4-.2.4-.4s-.2-.4-.4-.4h-12.6c-.2 0-.4.2-.4.4s.2.4.4.4zM296.1 96.6c-.2 0-.4.2-.4.4s.2.4.4.4h12.6c.2 0 .4-.2.4-.4s-.2-.4-.4-.4h-12.6zM296.4 100.4c-.2 0-.4.2-.4.4s.2.4.4.4H309c.2 0 .4-.2.4-.4s-.2-.4-.4-.4h-12.6zM237.7 92.8h19.1c1.5 0 2.6-1.3 2.4-2.6-.1-1.4-1.4-2.6-2.8-2.6h-19.2c-1.5 0-2.5 1.2-2.4 2.6.2 1.5 1.4 2.6 2.9 2.6zm-.4-4.5h19.2c1.1 0 2 .9 2.1 1.9.1 1-.6 1.9-1.7 1.9h-19.1c-1.1 0-2-.9-2.1-1.9-.2-1 .5-1.9 1.6-1.9zM226.7 92.8h1.9c1.5 0 2.6-1.3 2.4-2.6-.1-1.4-1.4-2.6-2.8-2.6h-1.9c-1.5 0-2.5 1.2-2.4 2.6.2 1.5 1.4 2.6 2.8 2.6zm-.4-4.5h1.9c1.1 0 2 .9 2.1 1.9.1 1-.6 1.9-1.7 1.9h-1.9c-1.1 0-2-.9-2.1-1.9-.1-1 .7-1.9 1.7-1.9zM293 117.4c.1 0 .2 0 .2-.1l4.5-4c.1-.1.1-.2.1-.3 0-.1 0-.2-.1-.3l-4.2-3.8c-.1-.1-.4-.1-.5 0-.1.1-.1.4 0 .5l3.9 3.6-4.3 3.8c-.1.1-.2.3 0 .5.2.1.3.1.4.1zM189.7 117.3c.1.1.2.1.2.1.1 0 .2 0 .3-.1.1-.1.1-.4 0-.5l-3.9-3.7 4.2-3.6c.1-.1.2-.3 0-.5-.1-.1-.3-.2-.5 0l-4.5 3.8c-.1.1-.1.2-.1.3 0 .1 0 .2.1.3l4.2 3.9zM282.8 378.1c-1.5 0-2.8.6-3.8 1.6-.9 1-1.4 2.3-1.3 3.7.2 2.9 2.8 5.3 5.7 5.3 1.5 0 2.8-.6 3.8-1.6.9-1 1.4-2.3 1.3-3.7-.2-2.9-2.8-5.3-5.7-5.3zm3.9 8.5c-.8.9-2 1.4-3.3 1.4-2.6 0-4.9-2.1-5-4.6-.1-1.2.3-2.3 1.1-3.2.8-.9 2-1.4 3.3-1.4 1.3 0 2.5.5 3.4 1.3.9.8 1.5 2 1.6 3.2.1 1.3-.3 2.4-1.1 3.3zM257.6 378.1c-1.5 0-2.8.6-3.8 1.6-.9 1-1.4 2.3-1.3 3.7.2 2.9 2.8 5.3 5.7 5.3 1.5 0 2.8-.6 3.8-1.6.9-1 1.4-2.3 1.3-3.7-.1-2.9-2.7-5.3-5.7-5.3zm3.9 8.5c-.8.9-2 1.4-3.3 1.4-2.6 0-4.9-2.1-5-4.6-.1-1.2.3-2.3 1.1-3.2.8-.9 2-1.4 3.3-1.4 1.3 0 2.5.5 3.4 1.3s1.5 2 1.6 3.2c.1 1.3-.3 2.4-1.1 3.3zM232.5 378.1c-1.5 0-2.8.6-3.8 1.6-.9 1-1.4 2.3-1.3 3.7.2 2.9 2.8 5.3 5.7 5.3 1.5 0 2.8-.6 3.8-1.6.9-1 1.4-2.3 1.3-3.7-.2-2.9-2.7-5.3-5.7-5.3zm3.9 8.5c-.8.9-2 1.4-3.3 1.4-2.6 0-4.9-2.1-5-4.6-.1-1.2.3-2.3 1.1-3.2.8-.9 2-1.4 3.3-1.4 1.3 0 2.5.5 3.4 1.3.9.8 1.5 2 1.6 3.2.1 1.3-.3 2.4-1.1 3.3zM226.8 244.2c-.9.6-1.2 1.8-.6 2.7.5.8 1.6 1.2 2.7.6 12.2-7.8 18.6-19.3 19-34.4 1.1-.5 1.8-1.7 1.7-3.1-.1-1.2-.8-2.3-1.8-2.9-.1-.9-.1-1.9-.2-2.8 0-.5-.3-1-.7-1.3-.4-.3-.9-.5-1.4-.4-1 .1-1.8 1.1-1.7 2.1.1.8.2 1.7.2 2.5-.9.7-1.3 1.8-1.3 2.8.1 1.1.6 2 1.4 2.6-.4 14.1-6.1 24.4-17.3 31.6zm17.6-39.6c-.1-.7.4-1.3 1.1-1.4h.2c.3 0 .5.1.8.3.3.2.4.5.4.8.1.8.2 1.6.2 2.4-.4-.1-.7-.2-1.1-.2-.5 0-.9.1-1.3.3-.2-.7-.3-1.4-.3-2.2zm-1.1 5.4c-.1-1.5 1.1-2.7 2.6-2.7s2.9 1.3 3 2.8c.1 1.5-1 2.8-2.6 2.8-1.6-.1-2.9-1.5-3-2.9zm1.4 3.1c.5.2 1 .4 1.6.4.3 0 .6 0 .8-.1-.5 14.7-6.8 25.9-18.7 33.5-.6.4-1.3.2-1.7-.3-.3-.6-.2-1.3.4-1.7 11.4-7.3 17.2-17.8 17.6-31.8zM195.6 242.4c0-.5-.2-1-.6-1.3-.4-.3-.9-.5-1.4-.5-1.1 0-1.9 1-1.8 2l.5 11.5c.1 1 .9 1.8 1.9 1.8h11.5c1.1 0 1.9-.9 1.9-1.9 0-.5-.2-1-.5-1.4-.4-.4-.8-.6-1.4-.6H196l-.4-9.6zm11 10.8c.2.2.3.5.3.9 0 .7-.6 1.2-1.3 1.2h-11.5c-.7 0-1.2-.5-1.2-1.1l-.5-11.5c0-.7.5-1.3 1.2-1.3h.1c.3 0 .6.1.8.3.2.2.4.5.4.8l.5 10.1c0 .2.2.3.3.3h10c.4 0 .7.1.9.3z"/><path fill="#3c4150" d="M235.9 251.6c.4 0 .9-.2 1.2-.4 6.7-5.4 11.7-12 15-19.5 3-7 4.5-15.1 4.1-23.4l-.9-20.8c-.3-5.8-5-10.2-10.6-10.3-6-.1-10.6 5-10.3 10.8l1.2 26.7c0 .5-.2 8.3-4.9 15.1-.3-.1-.6-.1-.9-.1-1.8 0-3.4 1.5-3.3 3.5 0 .4.1.7.2 1.1-2 1.7-4.4 3.2-7.3 4.2-1 .3-1.5 1.5-1.2 2.5.3.9 1.4 1.5 2.4 1.2 3.7-1.3 6.7-3.3 9.1-5.5 2.4.2 4-1.9 3.5-4 5.8-8 6-17.5 6-18.1l-1.2-26.8c-.1-3.8 2.8-6.9 6.3-6.8 3.5.1 6.7 3 6.9 6.8l.9 20.8c.3 7.7-1 15.2-3.8 21.7-3 7-7.7 13-13.9 18-.8.7-1 1.9-.3 2.7.7.4 1.2.6 1.8.6zm-15.4-10.3c-.6.2-1.3-.1-1.5-.7-.2-.6.1-1.3.8-1.6 3-1.1 5.4-2.5 7.4-4.2.5.7 1.1 1.3 1.9 1.5-2.4 2.1-5.2 3.8-8.6 5zm10.1-5.5c-1.6.3-3.3-1.1-3.3-2.8-.1-1.5 1-2.7 2.6-2.7s3 1.3 3 3c-.2 1.3-1.1 2.4-2.3 2.5zm4.6 13c6.3-5.1 11-11.2 14.1-18.3 2.9-6.6 4.2-14.2 3.9-22l-.9-20.8c-.2-4.2-3.7-7.4-7.6-7.4h-.2c-3.9 0-7 3.4-6.9 7.5l1.2 26.8c0 .5-.2 9.5-5.6 17.2-.4-.8-1-1.4-1.7-1.7 4.7-7 4.9-14.9 4.9-15.4l-1.2-26.7c-.2-5.4 4-10.2 9.6-10.1 5.2.1 9.7 4.3 9.9 9.7l.9 20.8c.4 8.2-1 16.2-4 23.1-3.2 7.5-8.2 13.9-14.8 19.3-.5.4-1.3.3-1.7-.2-.6-.6-.5-1.4.1-1.8z"/><path fill="#3c4150" d="M246.2 253.5c12.5-10.8 18.5-23.9 17.8-39l-1.2-27c-.1-2.7-.8-5.3-2.1-7.7.2-.5.3-1.2.2-1.5-.1-1.9-1.8-3.4-3.7-3.4h-.3c-3.1-3.1-7.9-5.3-13.1-5.3-9.9.1-17.5 8.4-17.1 18.5l.8 17.5c0 .5.2 1 .6 1.3.4.4.9.5 1.4.5 1.1-.1 1.9-1 1.8-2l-.8-17.5c-.3-7.9 5.6-14.3 13.3-14.4 3.7-.1 7.3 1.4 10.2 4-.1.3-.1.6-.1.9.1 1.8 1.6 3.3 3.4 3.4.9 1.8 1.5 3.9 1.6 6l1.2 27c.7 14.1-4.7 25.8-16.4 35.9-.8.7-.9 1.9-.2 2.7.8.7 2 .7 2.7.1zm-2.1-80.8h-.1c-7.9.1-14.3 6.7-14 15.1l.8 17.5c0 .7-.5 1.3-1.2 1.3-.3 0-.7-.1-.9-.3-.2-.2-.4-.5-.4-.8l-.8-17.5c-.4-9.7 6.9-17.7 16.4-17.7 4.5-.1 8.8 1.6 12.2 4.7-.8.3-1.5.9-1.8 1.7-2.8-2.6-6.4-4-10.2-4zm12.9 8.2c-1.2-.3-2.2-1.4-2.3-2.7 0-.3 0-.7.2-1.1 1.1-2.8 5.2-1.8 5.4 1.1.1 2.1-1.8 3.2-3.3 2.7zm-12.8 70.2c11.9-10.2 17.3-22.1 16.7-36.4l-1.2-27c-.1-2.1-.6-4.1-1.5-6 1-.1 1.6-.6 2.1-1.2 1.1 2.2 1.7 4.6 1.8 7l1.2 27c0 .8.1 1.6.1 2.4 0 13.9-5.9 26-17.6 36-.5.4-1.3.4-1.7-.1s-.4-1.3.1-1.7zM208.3 221.7c5-.7 8.6-5.2 8.4-10.3l-1-23.9v-1.3c0-9 4.2-17.4 11.4-22.5.4.2.9.3 1.4.3.9 0 1.8-.4 2.4-1 .7-.7.9-1.7.9-2.5-.2-3-4-4.6-6.1-2.4-.6.7-.9 1.5-.9 2.5v.1c-8.5 6.2-13.4 16.3-12.9 27.1l1.1 23.9c.1 3.2-2 5.8-5.1 6.3-1 .1-1.8 1.1-1.7 2.2.1 1 .9 1.7 1.9 1.7.1-.2.1-.2.2-.2zm17.7-63.2c1.1-1.1 2.8-1 3.9 0 1.2 1.1 1.3 2.8.3 3.9-.5.5-1.1.8-1.9.8-1.7 0-3.1-1.6-3-3.1.1-.6.3-1.2.7-1.6zM206.7 220c-.1-.7.4-1.3 1.1-1.4 3.5-.5 5.9-3.5 5.7-7l-1.1-23.9c-.5-10.5 4.2-20.3 12.4-26.3.3.8.8 1.5 1.5 1.9-7.5 5.6-11.8 14.6-11.4 24.2l1 23.9c.2 4.8-3.1 8.9-7.8 9.6h-.1c-.5.1-1.2-.3-1.3-1z"/><path fill="#3c4150" d="M210.5 228.8c13.3-3.3 13.9-14.1 13.9-14.2v-.2l-.4-8.7c1-.7 1.5-1.8 1.4-2.9-.1-1.2-.7-2.2-1.6-2.8l-.6-12.6c-.5-11.9 8.7-21.6 20.6-21.6 11.2 0 21.1 8.5 22.6 19.8.1.5.3 1 .8 1.3.4.3.9.4 1.4.3 1.1-.2 1.8-1.1 1.7-2.2-1.7-12.7-12.8-23.1-26.3-23.1-14.1 0-25.1 11.5-24.5 25.6l.5 12.3c-.8.5-1.5 1.6-1.4 2.9.1 1.2.7 2.2 1.7 2.8l.4 8.8c-.1.8-.9 8.1-10.9 10.5-1 .2-1.7 1.3-1.5 2.3.1 1.3 1.1 2 2.2 1.7zm9.5-41.2c-.6-13.8 10.2-24.9 23.8-24.9 13.1 0 24 10.1 25.7 22.5.1.7-.4 1.3-1.1 1.4-.3 0-.6 0-.9-.2s-.4-.5-.5-.8c-1.5-11.5-11.6-20.5-23.3-20.5-12.2 0-21.9 9.9-21.3 22.3l.5 12.2c-.4-.2-.8-.3-1.3-.3-.4 0-.8.1-1.1.2l-.5-11.9zm-.9 15.3c-.1-1.6 1.1-2.8 2.6-2.8 1.6 0 2.9 1.3 3 2.8.1 1.5-1.1 2.8-2.6 2.8s-2.9-1.3-3-2.8zm-9.3 22.9c10.4-2.6 11.3-10.3 11.4-11.2l-.4-8.4c.4.2.8.2 1.3.2.4 0 .8-.1 1.2-.2l.4 8.3v.1s-.2 2.7-1.9 5.6c-1.7 3-5.1 6.3-11.4 7.9-.6.2-1.3-.2-1.5-.9-.2-.6.2-1.2.9-1.4zM207.2 212.4h.1c1-.1 1.9-1 1.8-2l-.8-18.9c0-.5-.2-1-.6-1.3-.4-.4-.9-.5-1.4-.5-1.1.1-1.9 1-1.8 2l.8 18.9c0 1 .9 1.8 1.9 1.8zm-2.1-20.7c0-.7.5-1.3 1.2-1.3h.1c.3 0 .6.1.8.3.2.2.4.5.4.8l.8 18.9c0 .7-.5 1.3-1.1 1.3h-.1c-.6 0-1.2-.5-1.2-1.1l-.9-18.9z"/><path fill="#3c4150" d="M245.2 198.7h.1c1.1-.1 1.9-1 1.8-2l-.5-10.4c0-.5-.3-1-.6-1.3-.4-.3-.9-.5-1.4-.5-1.1.1-1.9 1-1.8 2l.5 10.4c.1 1.1.9 1.8 1.9 1.8zm-.5-13.5c.4 0 .7.1.9.3.2.2.4.5.4.8l.5 10.4c0 .7-.5 1.3-1.2 1.3h-.1c-.7 0-1.2-.5-1.2-1.1l-.5-10.4c0-.7.5-1.2 1.2-1.3zM256.7 254.1c3.4-4.1 6.4-9.1 8.7-14.4 1.9-.1 3.2-1.6 3.1-3.5 0-.8-.4-1.5-.9-2.1 2.3-6.4 3.6-13.1 3.8-19.4v-.2l-.9-21.2c0-.5-.2-1-.6-1.3-.4-.3-.9-.5-1.4-.5-1 .1-1.9 1-1.8 2l.9 21.1c-.2 5.8-1.5 12.2-3.7 18.3-.6.1-1.1.5-1.5.9-.6.7-.9 1.5-.9 2.5 0 .5.2 1.1.5 1.5-2.3 5.2-5.1 10-8.3 13.9-.7.8-.5 2.1.2 2.7 1 .6 2.2.5 2.8-.3zm11.7-39.5-.9-21.2c0-.7.5-1.3 1.2-1.3h.1c.3 0 .6.1.8.3.2.2.4.5.4.8l1 21.2v.1c-.2 6.1-1.5 12.7-3.7 18.9-.6-.5-1.4-.8-2.2-.8h-.1c1.9-5.9 3.2-12.2 3.4-18zm-6 21.6c0-.7.2-1.4.7-1.9.5-.5 1.1-.8 1.9-.8 1.6 0 2.9 1.3 3 2.8.1 1.5-1 2.8-2.6 2.8h-.3c-1.5-.3-2.6-1.4-2.7-2.9zm-8.1 15.9c3.2-3.9 6-8.6 8.3-13.7.5.6 1.3 1.1 2.1 1.2-2.3 5.2-5.2 10-8.5 14-.4.5-1.2.6-1.7.2-.5-.4-.6-1.1-.2-1.7zM189.9 158.4h.1c1.1-.1 1.9-1 1.8-2l-.4-9.5h9.5c1.1 0 1.9-.9 2-1.9 0-.5-.2-1-.5-1.4-.4-.4-.8-.6-1.4-.6h-11.5c-.5 0-1 .2-1.4.6-.4.4-.6.9-.5 1.4l.5 11.5c-.1 1.1.7 1.9 1.8 1.9zm-1.4-14.3c.2-.3.6-.4.9-.4h11.5c.3 0 .6.1.9.4.2.2.3.5.3.9 0 .7-.6 1.2-1.3 1.2H191c-.1 0-.2 0-.3.1-.1.1-.1.2-.1.3l.4 9.9c0 .7-.5 1.3-1.2 1.3h-.1c-.6 0-1.2-.5-1.2-1.1l-.5-11.5c.1-.5.3-.9.5-1.1zM214.8 235.9c5.8-1.6 10.3-5 13.3-10.1 2.3-3.8 3.5-8.4 3.6-13.1 0-.5-.2-1-.5-1.3-.4-.4-.8-.6-1.4-.6-1.1 0-1.9.9-1.9 1.9 0 4.1-1.1 7.9-3 11.2-2.5 4.2-6.2 7-11 8.3-1 .3-1.6 1.3-1.4 2.4.3 1 1.3 1.6 2.3 1.3zm-.7-3c4.9-1.3 8.8-4.2 11.4-8.6 2-3.3 3.1-7.3 3.1-11.5 0-.7.6-1.2 1.3-1.2.3 0 .6.1.9.3.2.2.3.5.3.9 0 4.6-1.2 9.1-3.5 12.8-3 5-7.3 8.3-12.9 9.8-.6.2-1.3-.2-1.5-.9-.2-.8.2-1.5.9-1.6z"/><path fill="#3c4150" d="M267.2 254.1c6.8-8 13.1-25 11.9-39.6v-.4c.9-.5 1.6-1.7 1.5-3-.1-1.2-.8-2.3-1.8-2.9l-.9-20.7c-.8-18.2-16.1-32.9-34.4-32.9-2.9 0-5.8.4-8.6 1.1-1 .3-1.7 1.3-1.4 2.4.3 1 1.3 1.6 2.3 1.3 2.5-.7 5-1 7.6-1 16.2 0 29.9 13.1 30.6 29.3l.9 20.6c-.8.5-1.4 1.6-1.3 2.8.1 1.1.7 2.1 1.5 2.8v.9c1.1 13.5-4.9 29.6-11 36.9-.7.8-.6 2 .2 2.7 1 .6 2.2.5 2.9-.3zm7.5-66.5c-.7-16.6-14.7-30-31.3-30-2.6 0-5.2.3-7.7 1-.7.2-1.3-.2-1.5-.8-.2-.7.2-1.3.9-1.5 2.7-.8 5.5-1.1 8.4-1.1 17.8 0 32.9 14.3 33.7 32.3l.9 20.4c-.4-.1-.8-.2-1.2-.2-.5 0-.9.1-1.3.2l-.9-20.3zm-.4 23.5c-.1-1.5 1-2.7 2.6-2.7 1.5 0 2.9 1.3 3 2.8.1 1.5-1 2.8-2.6 2.8-1.5-.1-2.9-1.4-3-2.9zm-9.5 41c6.2-7.4 12.2-23.8 11.2-37.4v-.4c.4.2.9.3 1.4.3.4 0 .7-.1 1.1-.2v.1c.1 1.2.1 2.3.1 3.5 0 13.5-5.8 28.3-11.9 35.6-.4.5-1.2.6-1.7.2-.6-.4-.7-1.2-.2-1.7zM300 252.2h-9.5c-1 0-1.9.9-2 1.9 0 .5.2 1 .5 1.4.4.4.8.6 1.4.6H302c.5 0 1-.2 1.4-.6.3-.4.5-.8.5-1.4v-.1l-.5-11.5c0-.5-.2-1-.6-1.3-.4-.4-.9-.5-1.4-.5-1.1 0-1.9 1-1.8 2l.4 9.5zm.3-9.6c0-.7.5-1.3 1.2-1.3.3 0 .6.1.9.3.2.2.4.5.4.8l.5 11.5c0 .3-.1.7-.4.9-.2.2-.5.4-.9.4h-11.5c-.3 0-.6-.1-.9-.3-.2-.2-.3-.5-.3-.9 0-.7.6-1.2 1.3-1.2h9.9c.1 0 .2 0 .3-.1s.1-.2.1-.3l-.6-9.8z"/><path fill="#3c4150" d="M206.1 186.6c1 0 1.9-.9 1.9-1.9.5-19 15.9-33.9 35-33.9 12 0 23.1 5.7 30.4 15.1.6.8 1.9 1 2.7.3.8-.7 1-1.9.3-2.7-8.1-10.4-20.3-16.5-33.4-16.5-21.2 0-38.3 16.6-38.9 37.7.1 1.1 1 1.9 2 1.9zm-1.2-1.9c.6-20.8 17.4-37 38.2-37 12.2 0 24.4 5.5 32.8 16.2.4.5.3 1.3-.2 1.7-.5.4-1.3.3-1.7-.2-7.3-9.4-18.6-15.3-30.9-15.3-19.5 0-35.2 15.2-35.7 34.6 0 .7-.6 1.2-1.3 1.2-.7 0-1.2-.5-1.2-1.2zM285.6 146.8h9.7l.4 9.7c0 1 .9 1.8 1.9 1.8h.1c1-.1 1.9-1 1.8-2l-.5-11.5c0-1-.9-1.8-1.9-1.8h-11.5c-1.1 0-1.9.9-1.9 1.9 0 .5.2 1 .5 1.4.4.3.9.5 1.4.5zm.1-3.1h11.5c.6 0 1.2.5 1.2 1.2l.5 11.5c0 .7-.5 1.2-1.1 1.3h-.1c-.6 0-1.2-.5-1.2-1.1l-.5-10.1c0-.2-.2-.3-.3-.3h-10c-.3 0-.6-.1-.8-.3-.2-.2-.3-.5-.3-.9-.2-.8.4-1.3 1.1-1.3zM190.8 302.1h120.1c1.1 0 2-.4 2.8-1.2.7-.8 1.1-1.8 1-2.8l-1-15.2c-.2-2.2-2-4-4.2-4H189.3c-1.1 0-2 .4-2.8 1.2-.7.8-1.1 1.8-1 2.8l1 15.2c.2 2.2 2.1 4 4.3 4zm-3.7-21.6c.6-.6 1.4-.9 2.2-.9h120.1c1.8 0 3.4 1.5 3.5 3.3l1 15.2c.1.9-.2 1.7-.8 2.3-.6.6-1.4 1-2.2 1H190.8c-1.8 0-3.4-1.5-3.5-3.3l-1-15.2c-.1-.9.2-1.8.8-2.4zM275.4 170.6c.1 1.6 1.3 3 2.9 3.4 1.9 4.4 3 9 3.3 13.7l1 22.3c.4 7.9-.3 15.5-2 22.8-2 8.6-4.9 14.5-8.2 17.2-.9.7-1 1.9-.3 2.7.7.8 1.8 1 2.7.3 4.1-3.3 7.4-9.8 9.6-19.4 1.5-6.3 2.2-12.9 2.2-19.7 0-1.4 0-2.8-.1-4.2l-1-22.3c-.2-5.2-1.4-10.2-3.5-15 .3-.6.5-1.2.5-1.9-.1-1.9-1.8-3.4-3.7-3.4-2 0-3.5 1.5-3.4 3.5zm9.3 16.9 1 22.3c.4 8.2-.3 16.1-2.1 23.6-2.2 9.4-5.4 15.8-9.4 19-.6.4-1.3.3-1.7-.2-.4-.5-.3-1.3.2-1.7 3.5-2.8 6.4-8.9 8.5-17.6 1.7-7.3 2.4-15 2-23l-1-22.3c-.2-4.7-1.3-9.3-3.2-13.6.9 0 1.7-.3 2.3-.9 2.1 4.6 3.2 9.4 3.4 14.4zm-6.1-19.7c1.6 0 2.9 1.3 3 2.8 0 .4 0 .7-.1 1-.5 1.4-2.1 2.1-3.6 1.5-1-.4-1.7-1.4-1.8-2.6-.1-1.5 1-2.7 2.5-2.7zM232.1 317.6c0-.2-.2-.4-.4-.4h-54.3c-.2 0-.4.2-.4.4s.2.4.4.4h54.3c.3 0 .4-.2.4-.4zM276.4 317.6c0-.2-.2-.4-.4-.4h-37.6c-.2 0-.4.2-.4.4s.2.4.4.4H276c.2 0 .4-.2.4-.4zM281.9 317.6c0 .2.2.4.4.4H322c.2 0 .4-.2.4-.4s-.2-.4-.4-.4h-39.7c-.2.1-.4.2-.4.4zM199.5 327.9c0-.2-.2-.4-.4-.4H178c-.2 0-.4.2-.4.4s.2.4.4.4h21.1c.3-.1.4-.3.4-.4zM258.8 327.5h-51c-.2 0-.4.2-.4.4s.2.4.4.4h51c.2 0 .4-.2.4-.4s-.2-.4-.4-.4zM265.2 327.9c0 .2.2.4.4.4h57.1c.2 0 .4-.2.4-.4s-.2-.4-.4-.4h-57.1c-.2 0-.4.2-.4.4zM232.3 338.1c0-.2-.2-.4-.4-.4h-53.2c-.2 0-.4.2-.4.4s.2.4.4.4H232c.2-.1.3-.2.3-.4zM296.5 338.1c0-.2-.2-.4-.4-.4h-57.9c-.2 0-.4.2-.4.4s.2.4.4.4h57.9c.2-.1.4-.2.4-.4zM301.6 338.1c0 .2.2.4.4.4h21.4c.2 0 .4-.2.4-.4s-.2-.4-.4-.4H302c-.3 0-.4.2-.4.4zM204.2 348.3c0-.2-.2-.4-.4-.4h-24.5c-.2 0-.4.2-.4.4s.2.4.4.4h24.5c.3 0 .4-.2.4-.4zM262.5 348h-52.2c-.2 0-.4.2-.4.4s.2.4.4.4h52.2c.2 0 .4-.2.4-.4s-.2-.4-.4-.4zM268.5 348.3c0 .2.2.4.4.4H324c.2 0 .4-.2.4-.4s-.2-.4-.4-.4h-55.1c-.2.1-.4.2-.4.4zM298.2 358.6c0 .2.2.4.4.4h26c.2 0 .4-.2.4-.4s-.2-.4-.4-.4h-26c-.2 0-.4.2-.4.4zM235.5 358.6c0 .2.2.4.4.4h57.9c.2 0 .4-.2.4-.4s-.2-.4-.4-.4h-57.9c-.3 0-.4.2-.4.4zM228.2 358.6c0-.2-.2-.4-.4-.4H180c-.2 0-.4.2-.4.4s.2.4.4.4h47.8c.2-.1.4-.2.4-.4zM212.6 368.5h-32c-.2 0-.4.2-.4.4s.2.4.4.4h32c.2 0 .4-.2.4-.4s-.2-.4-.4-.4zM263.8 368.5H219c-.2 0-.4.2-.4.4s.2.4.4.4h44.8c.2 0 .4-.2.4-.4s-.2-.4-.4-.4zM271.1 368.8c0 .2.2.4.4.4h53.8c.2 0 .4-.2.4-.4s-.2-.4-.4-.4h-53.8c-.3.1-.4.2-.4.4z"/><path fill="#67db8a" d="M128.2 344.4s-5.3.1-8.6 8-8.4 14.1-17.3 9.2c0 0-5.4-3.5-.5-10 4.5-6.1 14.8-12.1 26.4-7.2zM107.4 308.2c-2.7-2.6-7.1-2.8-9.9-.3-1.4 1.3-2.5 3.4-1.6 6.7 2.1 7.7 3.2 8.2 1.9 13.5-1.2 5.3-3 17.4 2.3 18.6 7.5 1.7 12.2-11.9 12.2-11.9s2.5-7.6-.6-18.6c-1.1-4-2.7-6.5-4.3-8z"/><path fill="#67db8a" d="M69 335.8s6.2-3.2 12.5 4.9 11.2 6.8 12.7 5.3c1.5-1.4 2.5-8.1 0-12.5s-8.5-5-14.8-4c-6.4.9-9.6 4.1-10.4 6.3z"/><path fill="#fff" d="m78.8 373.3 5.9 26.4c.3 1.5 1.6 2.5 3.1 2.5h19.8c1.5 0 2.8-1 3.1-2.5l5.9-26.4H78.8z"/><path fill="#fff" d="M118.9 367.4v5.9c0 .6-.4 1-1 1H77.5c-.6 0-1-.4-1-1v-5.9c0-.6.4-1 1-1h40.3c.6 0 1.1.5 1.1 1z"/><path fill="#e1e5e2" d="M76.5 371.2v2.2c0 .6.4 1 1 1h40.3c.6 0 1-.4 1-1v-2.2H76.5z"/><path fill="#3c4150" d="M128.3 344.1s0-.1 0 0c0-.1 0-.1 0 0-11.2-4.7-21.7.4-26.8 7.2-1.7 2.3-2.4 4.4-2 6.5.3 1.9 1.5 3.1 2.2 3.7-.4 1.4-.7 2.9-.8 4.6h-4.5c.2-6.3 2.1-13.2 4.1-19 5.6 1 10.3-6.9 12.2-12.2 0-.1 2.5-7.9-.6-18.8-.8-2.9-2.2-6.1-4.4-8.2-4.9-4.8-14.2-1.3-12 6.8 2.1 7.7 3.1 8.1 1.9 13.3-1.2 5.4-3 17.3 2.3 18.9-2 5.8-4 12.8-4.2 19.1h-1.8v-14.9c0-1.5-.2-3-.4-4.3.5-.2.8-.5.9-.6 1.6-1.5 2.7-8.4.1-13-2.3-4-7.2-5.4-15.2-4.2-6.2.9-9.6 4.1-10.6 6.5-.2.4-2.9 6.5.9 9.5 3.4 2.7 7.5 1.5 9.5-1.4.6-.8 1.4-1.8 2.2-2.8 2.8 3.6 7.2 7.6 11.5 6.2.2 1.2.4 2.6.4 4 .1 5.9.1 11 0 14.9H77.5c-.8 0-1.4.6-1.4 1.3v5.9c0 .7.6 1.4 1.4 1.4h1.3c.6 2.6-2.1-9.3 5.6 25.1.4 1.6 1.8 2.8 3.5 2.8h19.8c1.7 0 3.1-1.1 3.5-2.8.2-.8-1 4.4 5.6-25.1h1.3c.7 0 1.3-.6 1.3-1.4v-5.9c0-.8-.6-1.3-1.3-1.3h-16.3c.1-1.5.3-2.9.7-4.2 2.8 1.5 5.8 2.3 8.8 1.3 3.5-1.2 6.4-4.7 8.9-10.7.1-.3.2-.5.3-.8 1.5-.4 5.2.8 6.4 1.5 1.2.7 2.9 1.2 4.3.8 1.2-.3 2.1-1.2 2.7-2.5 1.8-3.7-5.5-7.1-5.6-7.2zm-30-15.9c1.3-5.4.1-6-1.9-13.6-.7-2.7-.2-4.8 1.5-6.4 1.3-1.2 2.9-1.7 4.5-1.7 5 0 7.7 5.1 9.1 9.8 3.1 10.7.7 18.3.6 18.4 0 .1-4.4 12.7-11.3 11.8.9-2.7 1.9-5.1 2.7-7.1 5.6-14.1 0-25.8 0-25.9l-.6.3c0 .1 5.4 11.5 0 25.3-.8 2-1.8 4.5-2.7 7.2-4.9-1.3-3-13.3-1.9-18.1zm-7.8 18.6c-3.7-.3-6.8-3.7-9-6.6-2.9-3.7-7.3-6.4-11.8-5 0-.1.1-.1.1-.2 1.3-2.1 4.4-4.4 9.6-5.2 7.6-1.1 12.4.2 14.5 3.9 2.4 4.3 1.5 10.7.1 12.1-.1.1-.3.3-.6.5-2.1-9.1-9.3-13-9.3-13.1-.2-.1-.4 0-.5.1-.1.2 0 .4.1.5.1 0 7 3.9 9 12.8-.6.1-1.3.3-2.2.2zm21.4 46.1H83.5l-4-18.2h36.4l-4 18.2zm6-26.1c.4 0 .7.3.7.7v5.9c0 .4-.3.7-.7.7H77.6c-.4 0-.7-.3-.7-.7v-5.9c0-.4.3-.7.7-.7h40.3zm-7.1-4.3c-2.5.9-5.3.4-8.3-1.3 2.9-8.5 11.2-12.3 11.3-12.3.2-.1.3-.3.2-.5-.1-.2-.3-.3-.5-.2-.1.1-8.5 3.9-11.6 12.5-.6-.6-1.5-1.6-1.7-3.1-.3-1.8.3-3.8 1.9-5.9 3.6-4.8 10-8.8 17.5-8.8 2.4 0 4.8.4 7.3 1.3-.5.1-1.3.5-1.6.6-2.9 1.4-4.9 4.3-6.1 7.4-2.3 5.8-5.1 9.2-8.4 10.3z"/><path fill="#fff" d="M111 204.1c-19.6-9.4-32.5-26.6-33.5-57.9 10.3-1.8 19.3-6 27.9-10.4 9.3 4.5 19 8.7 29.6 10.4 4.1 31.3-5.9 48.5-24 57.9z"/><path fill="#3c4150" d="M111 204.5h-.2C89.2 194 78.2 175 77.2 146.2c0-.2.1-.3.3-.4 10.3-1.8 19.5-6.1 27.8-10.4.1-.1.2-.1.3 0 9 4.3 18.8 8.6 29.5 10.4.2 0 .3.1.3.3 3.8 28.8-4.1 47.9-24.2 58.3 0 0-.1.1-.2.1zm-33.1-58c1 28.3 11.8 47 33.1 57.3 19.6-10.3 27.3-29 23.7-57.2-10.6-1.8-20.3-6-29.3-10.4-8.2 4.2-17.2 8.4-27.5 10.3z"/><path fill="#46c671" d="M110.6 198.7c-17.5-9.3-26.5-24.8-28.1-48.7 8.6-2 16.3-5.4 23.4-9.1 7.7 3.6 15.9 7.1 24.9 9.1 2.3 23.9-4.2 39.5-20.2 48.7z"/><path fill="#3c4150" d="M110.6 199.1h-.2c-17.7-9.4-26.7-24.9-28.3-48.9 0-.2.1-.3.3-.4 9.1-2.1 17.2-5.9 23.3-9 .1 0 .2-.1.3 0 6.6 3.1 15.3 6.9 24.8 9 .1 0 .3.2.3.3 2.4 24.1-4.1 39.6-20.3 49h-.2zm-27.7-48.7c1.6 23.5 10.4 38.8 27.7 48 15.8-9.2 22.1-24.5 19.8-48-9.4-2.1-18-5.9-24.5-9-6 3.1-14 6.9-23 9z"/><path fill="#fff" d="m118.1 166.4-11.1 9.3c-.5.4-1.1.6-1.8.5-.8-.1-1.5-.4-2.1-1.1l-5-5.3c-1.2-1.2-1.2-2.9-.2-3.9 1-.9 2.8-.7 4 .5l3 3.2 9.2-7.8c1.1-.9 2.9-.6 4 .6 1 1.4 1 3.1 0 4z"/><path fill="#3c4150" d="M105.4 176.6h-.3c-.9-.1-1.7-.5-2.4-1.2l-5-5.3c-.7-.7-1.1-1.6-1-2.5 0-.7.3-1.4.8-1.9 1.2-1.1 3.2-.8 4.5.5l2.8 2.9 9-7.5c1.2-1 3.2-.7 4.5.6.7.7 1 1.7 1 2.5 0 .7-.4 1.4-.9 1.8l-11.1 9.3c-.6.6-1.2.8-1.9.8zm-6-10.8c-.5 0-1 .2-1.4.5-.4.3-.6.8-.6 1.4 0 .7.3 1.4.8 2l5 5.3c.5.5 1.2.9 1.9 1 .6.1 1.1-.1 1.5-.4l11.1-9.3c.4-.3.6-.8.6-1.3 0-.7-.2-1.4-.8-2-1-1.1-2.6-1.4-3.5-.6l-9 7.6c-.1.1-.4.1-.5 0l-3-3.2c-.6-.7-1.4-1-2.1-1zm18.7.6z"/><path fill="#f5f5f5" d="M405.9 257.3c0 11.1 3.5 16.1 7.7 16.1 4.3 0 7.7-5 7.7-16.1 0-11.1-3.5-24.1-7.7-24.1-4.3.1-7.7 13.1-7.7 24.1z"/><path fill="#f5f5f5" d="M413.2 268h.9v36h-.9zM113.3 259.7c0 11.1 3.5 16.1 7.7 16.1 4.3 0 7.7-5 7.7-16.1 0-11.1-3.5-24.1-7.7-24.1s-7.7 13-7.7 24.1z"/><path fill="#f5f5f5" d="M120.6 270.3h.9v36h-.9z"/><path fill="#3c4150" d="M535.3 122.1c-4.9 0-9.7-1.7-13.6-4.9l-6.4 2.3c-.4.1-.8 0-1-.2-.3-.3-.4-.7-.2-1l2.6-7c-1.7-3-2.6-6.3-2.7-9.7-.2-5.5 1.8-10.6 5.6-14.5 3.8-3.9 9-6.1 14.6-6.1 11.4 0 21 9.2 21.3 20.6.2 5.5-1.8 10.6-5.6 14.5-3.9 3.9-9.1 6-14.6 6zm-13.5-5.6c.1 0 .2 0 .2.1 3.7 3.1 8.4 4.9 13.3 4.9 5.4 0 10.4-2.1 14.1-5.9 3.6-3.8 5.6-8.7 5.4-14-.3-11-9.6-19.9-20.6-19.9-5.4 0-10.4 2.1-14.1 5.9-3.6 3.7-5.6 8.7-5.4 14 .1 3.3 1 6.6 2.7 9.5.1.1.1.2 0 .3l-2.6 7.2c-.1.2 0 .3.1.3s.1.1.3.1l6.6-2.4c-.1-.1-.1-.1 0-.1z"/><path fill="#67db8a" d="M548.2 101.5c.2 7.4-5.7 13.4-13.1 13.4-7.5 0-13.7-6-13.9-13.4-.2-7.4 5.7-13.4 13.1-13.4 7.4 0 13.7 6 13.9 13.4z"/><path fill="#fff" d="M532.6 104.9c-.1 0-.2 0-.3-.1l-3.2-3.8c-.1-.1-.1-.4 0-.5.1-.1.4-.1.5 0l3 3.6 7-5.8c.1-.1.4-.1.5 0 .1.1.1.4 0 .5l-7.3 6s-.1.1-.2.1z"/></svg>